<svg width="184" height="177" viewBox="0 0 184 177" fill="none" xmlns="http://www.w3.org/2000/svg">
<path d="M174.724 75.6859C170.787 70.4197 164.318 66.1663 157.716 66.2967C150.17 66.4473 144.355 71.181 137.198 70.2173C129.594 69.1903 119.978 61.4509 116.364 49.1884C113.831 40.5817 112.994 29.1342 104.431 23.6749C100.901 21.4401 96.7714 20.3377 92.5967 20.5155C93.0075 23.3009 92.8132 26.142 92.027 28.8455C91.2409 31.549 89.8814 34.0513 88.041 36.1821C86.2007 38.3128 83.9229 40.022 81.3625 41.1932C78.8022 42.3643 76.0195 42.97 73.2041 42.9689C73.1148 45.5239 73.2555 48.0818 73.6244 50.6116L76.5254 45.4843C76.9166 44.7902 78.0483 45.3153 77.6524 46.0059C74.0336 52.4033 74.0661 52.4118 73.9335 52.5439C74.1854 53.9558 74.4959 55.356 74.8649 56.7444C74.8649 56.7444 80.9531 59.5089 83.2158 60.6351C83.3107 60.6851 83.3914 60.7582 83.4507 60.8476C83.51 60.937 83.5459 61.0398 83.5551 61.1467C83.5643 61.2535 83.5465 61.361 83.5034 61.4592C83.4603 61.5574 83.3933 61.6432 83.3084 61.7087L77.9674 65.4196C79.9452 69.9663 82.6875 74.1404 86.0752 77.7608C88.7069 80.5325 91.8532 82.7651 95.3385 84.3337C94.8168 79.8034 96.7526 83.1752 96.8946 83.6507C97.5962 82.7801 95.7902 83.5548 97.0576 85.0486C97.736 85.3255 98.4296 85.5634 99.1352 85.761C101.04 85.4181 101.412 84.179 104.436 83.1052C104.86 82.9428 105.317 82.8808 105.77 82.9239C106.222 82.9671 106.659 83.1142 107.045 83.354C107.432 83.5937 107.758 83.9194 107.997 84.3058C108.237 84.6922 108.384 85.1287 108.428 85.5814C108.48 86.1891 108.377 86.8001 108.128 87.3568C126.856 88.2206 141.316 79.1895 157.077 75.3512C170.194 72.1582 174.52 83.649 181.577 92.7597C181.665 92.8774 181.792 92.96 181.935 92.9931C182.079 93.0261 182.229 93.0075 182.36 92.9404C182.491 92.8733 182.594 92.7622 182.651 92.6265C182.708 92.4908 182.715 92.3394 182.672 92.1989C181.038 86.261 178.345 80.6669 174.724 75.6859ZM109.883 51.4705C109.797 51.8459 110.593 51.302 101.038 57.8382C100.903 57.9302 100.736 57.9655 100.575 57.9364C100.413 57.9073 100.27 57.8162 100.175 57.6826L94.2069 49.0934C94.1153 48.9574 94.0803 48.7912 94.1094 48.6299C94.1384 48.4686 94.2292 48.325 94.3624 48.2296L102.952 42.2618C103.087 42.1698 103.254 42.1345 103.415 42.1636C103.577 42.1927 103.72 42.2837 103.815 42.4173C110.517 51.9151 109.9 51.0302 109.883 51.4705Z" fill="#E6DEFF"/>
<path d="M128.504 85C89.5 96.5 72.8343 67.3216 74.1676 55.9883L112.668 64.9883L128.504 85Z" fill="#E6DEFF"/>
<path d="M42.5433 31.4903L35.4225 39.1509C35.3127 39.2725 35.2546 39.4322 35.2606 39.596C35.2666 39.7597 35.3361 39.9147 35.4546 40.028L43.1152 47.1488C43.2366 47.259 43.3963 47.3174 43.5602 47.3114C43.7241 47.3055 43.8792 47.2356 43.9922 47.1167C51.8443 38.7901 51.2723 39.3974 51.2776 39.011C51.2014 38.5863 52.1048 39.416 43.4217 31.4595C43.3004 31.3487 43.1405 31.2898 42.9762 31.2956C42.812 31.3013 42.6566 31.3713 42.5433 31.4903Z" fill="#FF4848"/>
<path d="M12.3056 44.0609L12.3061 44.0607C13.8842 43.2484 15.6215 42.7928 17.3952 42.726C19.1688 42.6593 20.9355 42.9831 22.5702 43.6744C24.2049 44.3658 25.6677 45.4079 26.8553 46.7271C28.0428 48.0462 28.9259 49.6101 29.4423 51.3082L29.4425 51.3087C30.1157 53.5147 30.1459 55.867 29.5294 58.0895C28.9129 60.312 27.6754 62.3126 25.962 63.8566C24.2486 65.4006 22.1304 66.4239 19.8559 66.8066C17.5814 67.1892 15.245 66.9152 13.1208 66.0168C10.9965 65.1183 9.17253 63.6327 7.86282 61.7342C6.55311 59.8357 5.81199 57.6031 5.72642 55.2982C5.64085 52.9934 6.21437 50.7119 7.3797 48.7215C8.54503 46.7311 10.2538 45.1144 12.3056 44.0609Z" fill="#2755A0" stroke="black"/>
<path d="M133.266 32.8488L133.266 32.8485C134.294 32.3192 135.427 32.0223 136.582 31.9788C137.738 31.9353 138.89 32.1463 139.955 32.5969C141.02 33.0474 141.973 33.7265 142.747 34.5862C143.521 35.4458 144.097 36.465 144.433 37.5716L144.433 37.5721C144.872 39.0097 144.892 40.5426 144.49 41.991C144.088 43.4394 143.282 44.7432 142.165 45.7494C141.049 46.7556 139.668 47.4225 138.186 47.6719C136.704 47.9212 135.181 47.7427 133.797 47.1572C132.412 46.5717 131.224 45.6035 130.37 44.3663C129.517 43.129 129.034 41.6741 128.978 40.172C128.922 38.67 129.296 37.1832 130.055 35.8861C130.815 34.5889 131.928 33.5353 133.266 32.8488Z" fill="#78B5FF" stroke="black"/>
<path d="M115.968 92.8991C114.032 91.6886 112.093 90.4786 110.152 89.2692C109.475 88.847 108.903 89.9502 109.578 90.3711L115.395 93.9985C116.073 94.4219 116.644 93.32 115.968 92.8991Z" fill="black"/>
<path d="M50.7493 39.8891C51.4437 39.0992 51.5169 38.9829 50.7399 38.2182C49.9629 37.4536 48.06 35.7098 43.4204 31.4544C43.2994 31.3439 43.14 31.2852 42.9762 31.2909C42.8125 31.2967 42.6575 31.3664 42.5446 31.4851L35.4225 39.147C35.3131 39.2688 35.2553 39.4284 35.2613 39.592C35.2673 39.7556 35.3366 39.9106 35.4546 40.0241L43.1152 47.1449C43.2366 47.2551 43.3963 47.3135 43.5602 47.3075C43.7241 47.3016 43.8792 47.2317 43.9922 47.1128C48.2086 42.6412 50.0019 40.7495 50.7493 39.8891ZM36.7542 39.5375L43.0361 32.7793L49.7876 39.0551L43.5119 45.8065L36.7542 39.5375Z" fill="black"/>
<path d="M114 85C113.5 85.5 101 86.5 99 85V81L115 78C115.167 79.6667 114.5 84.5 114 85Z" fill="#E6DEFF"/>
<path d="M170.481 106.301C170.194 105.542 169.832 104.813 169.4 104.126C163.672 94.7714 157.349 83.8962 142.895 62.5492C142.852 62.4915 142.796 62.4446 142.732 62.4124C142.668 62.3801 142.597 62.3633 142.525 62.3633C142.453 62.3633 142.382 62.3801 142.317 62.4124C142.253 62.4446 142.197 62.4915 142.154 62.5492C134.002 74.7394 115.865 104.669 115.697 105.012C115.094 106.258 114.786 107.627 114.797 109.011C114.809 110.396 115.139 111.759 115.763 112.995C116.386 114.232 117.286 115.307 118.393 116.14C119.5 116.972 120.783 117.537 122.144 117.793C124.445 118.207 126.038 117.626 128.595 116.968C131.769 111.78 130.777 106.486 130.933 103.854C130.924 103.08 131.078 102.314 131.385 101.604C131.691 100.894 132.144 100.257 132.713 99.7332C133.188 99.2867 133.776 98.9799 134.414 98.8467C135.051 98.7135 135.714 98.7591 136.327 98.9784C138.524 99.9646 138.138 103.085 138.331 105.088C138.624 108.113 139.689 111.577 142.576 112.607C143.731 113.019 151.045 114.869 152.824 115.276C152.935 115.307 153.029 115.381 153.085 115.481C153.142 115.581 153.157 115.7 153.128 115.811C153.107 115.883 153.031 116.126 153.016 116.175C155.21 116.739 157.407 117.285 159.599 117.867C161.173 118.297 162.835 118.291 164.407 117.849C165.978 117.406 167.399 116.544 168.518 115.356C169.636 114.167 170.41 112.696 170.756 111.101C171.102 109.505 171.007 107.846 170.481 106.301ZM141.719 97.5187V86.6803C141.719 86.5679 141.764 86.4602 141.844 86.3807C141.923 86.3013 142.031 86.2566 142.143 86.2566C142.255 86.2566 142.363 86.3013 142.443 86.3807C142.522 86.4602 142.567 86.5679 142.567 86.6803C142.567 86.6803 142.658 94.3537 142.609 97.5176C142.608 97.5748 142.595 97.6311 142.572 97.6833C142.549 97.7355 142.515 97.7826 142.473 97.8217C142.432 97.8608 142.382 97.8912 142.329 97.9111C142.275 97.931 142.218 97.94 142.161 97.9377C142.048 97.9345 141.941 97.8898 141.86 97.8123C141.778 97.7347 141.728 97.6297 141.719 97.5176V97.5187Z" fill="#FFD748"/>
<path d="M152.819 115.273C151.09 114.878 143.694 113.004 142.571 112.604C141.631 112.187 140.804 111.551 140.16 110.748C139.516 109.946 139.074 109.001 138.87 107.993C138.416 106.222 138.188 104.4 138.191 102.572C138.1 101.184 137.716 99.6049 136.322 98.976C135.708 98.7566 135.046 98.711 134.409 98.8442C133.771 98.9774 133.183 99.2842 132.708 99.7307C130.142 101.835 131.114 105.664 130.935 108.915C130.655 114.002 128.562 118.765 124.108 121.452C118.69 124.72 114.346 124.121 109.06 120.876C104.402 118.017 101.749 115.487 95.9609 110.973C96.8553 111.995 97.7104 113.051 98.5243 114.139C106.042 123.87 110.544 135.59 111.473 147.852C111.792 150.939 111.468 154.06 110.523 157.017C119.186 157.103 127.575 153.986 134.079 148.263C138.427 144.616 142.182 140.315 145.21 135.516C148.177 130.548 151.724 120.789 153.126 115.809C153.156 115.697 153.141 115.578 153.083 115.477C153.025 115.377 152.93 115.304 152.819 115.273Z" fill="#F3AF82"/>
<path d="M168.231 125.097L175.728 133.611C176.099 134.031 176.711 133.415 176.343 132.996L168.845 124.484C168.475 124.064 167.863 124.683 168.231 125.097Z" fill="black"/>
<path d="M180.111 87.0155C176.485 87.9578 172.883 88.9914 169.292 90.0583C169.188 90.0947 169.101 90.1694 169.05 90.2673C168.998 90.3652 168.986 90.479 169.016 90.5856C169.045 90.6922 169.114 90.7836 169.208 90.8413C169.303 90.899 169.416 90.9186 169.524 90.8962L180.341 87.8534C180.452 87.8228 180.546 87.7494 180.603 87.6493C180.66 87.5491 180.675 87.4304 180.645 87.3193C180.614 87.2082 180.541 87.1138 180.441 87.0568C180.341 86.9999 180.222 86.985 180.111 87.0155Z" fill="black"/>
<path d="M160.009 61.9586L168.836 51.9069C169.204 51.4892 168.591 50.8721 168.221 51.2934L159.394 61.345C159.028 61.7628 159.639 62.3811 160.009 61.9586Z" fill="black"/>
<path d="M67.1559 99.8142C65.7463 99.1548 64.2977 98.5822 62.8184 98.0994C61.2733 97.3729 59.9134 96.3049 58.8416 94.9759C57.8866 93.8127 57.2707 92.4088 57.0615 90.9184C56.8028 89.0042 57.4828 87.1624 57.8103 85.2992C58.2281 83.634 58.0195 81.8733 57.2241 80.3517C56.8559 79.7483 56.3229 79.2626 55.688 78.9519C55.0531 78.6411 54.3426 78.5183 53.6401 78.5977C52.9669 78.7583 52.3615 79.1271 51.91 79.6517C51.4585 80.1763 51.184 80.8299 51.1255 81.5195C51.0176 82.5051 50.7732 83.4708 50.3992 84.389C48.7911 87.3428 42.8456 91.6518 40.128 93.61C34.8328 97.4241 32.5269 98.7817 27.3112 102.985C21.4238 107.725 15.5851 112.65 10.9972 118.706C6.68931 124.393 3.31424 131.358 3.14572 138.615C2.83124 152.04 17.1302 161.613 30.6946 163.129C43.2431 164.528 55.5259 157.843 62.4778 147.669C63.3199 146.409 64.0889 145.101 64.7812 143.753C64.8354 143.653 64.8493 143.536 64.8202 143.425C64.7911 143.315 64.7212 143.22 64.6246 143.16C39.6829 127.812 37.9361 126.71 37.8435 126.649C37.6975 126.922 35.2327 131.556 34.1729 133.629C33.9178 134.127 33.169 133.688 33.4229 133.191C36.6983 126.772 40.0686 120.856 43.2004 114.485C43.4307 114.018 44.0917 114.366 43.986 114.822C45.0007 115.237 45.9545 115.789 46.8212 116.461C47.7735 117.203 48.9083 117.675 50.106 117.826C53.0171 118.182 54.9183 114.641 52.4225 111.041C54.2703 112.161 55.3562 114.021 58.1272 113.718C58.6881 113.598 59.1949 113.299 59.5717 112.866C59.9485 112.434 60.1749 111.891 60.217 111.318C60.4342 108.4 58.2838 107.165 57.1018 105.098C59.3991 105.769 61.8026 105.999 64.1855 105.776C65.9656 105.609 68.5111 105.044 68.8351 102.918C68.8783 102.294 68.7433 101.672 68.446 101.122C68.1487 100.573 67.7012 100.119 67.1559 99.8142ZM16.398 153.309C14.6271 152.184 13.0915 150.726 11.8765 149.016C11.5514 148.559 12.3038 148.126 12.6254 148.578C13.7601 150.164 15.1907 151.516 16.8383 152.559C17.313 152.858 16.8715 153.609 16.398 153.309ZM47.6305 107.365C46.4363 106.975 45.2861 106.461 44.1985 105.832C44.1497 105.802 44.1075 105.763 44.0742 105.716C44.041 105.67 44.0173 105.617 44.0047 105.561C43.9921 105.505 43.9908 105.447 44.0008 105.391C44.0109 105.335 44.0321 105.281 44.0632 105.233C44.1219 105.14 44.2137 105.073 44.3201 105.045C44.4265 105.017 44.5395 105.03 44.6364 105.082C45.6673 105.657 46.7466 106.139 47.8619 106.525C48.3888 106.708 48.161 107.547 47.6305 107.365ZM53.3019 101.394L50.0336 99.603C49.5423 99.3336 49.9814 98.5836 50.4727 98.853L53.7458 100.644C54.2311 100.913 53.792 101.66 53.3019 101.394Z" fill="#F3AF82"/>
<path d="M70.5943 83.2169C68.0392 81.8391 63.3777 83.1528 61.6759 87.1331C61.2124 88.4048 61.1641 89.7907 61.5381 91.0915C61.9122 92.3924 62.6892 93.541 63.7575 94.3722C64.8981 95.1575 66.2677 95.5407 67.6502 95.4614C69.0328 95.3821 70.3496 94.8448 71.3929 93.9343C72.1656 93.241 72.7689 92.3797 73.1564 91.4167C73.544 90.4536 73.7054 89.4145 73.6282 88.3793C73.5511 87.344 73.2374 86.3403 72.7114 85.4453C72.1855 84.5504 71.4611 83.788 70.5943 83.2169Z" fill="#F3AF82"/>
<path d="M75.4095 71.6176C75.8055 71.0989 76.0016 70.455 75.9618 69.8036C75.922 69.1522 75.6491 68.537 75.1929 68.0703C74.3268 67.2548 73.064 67.6404 72.0924 68.0517C70.5132 68.7202 69.1157 69.7547 68.0151 71.0697C68.1071 70.7291 68.1193 70.3719 68.0507 70.0258C67.982 69.6797 67.8345 69.3541 67.6194 69.0744C66.729 68.1092 65.3378 68.7918 64.5844 69.5661C63.9594 70.2971 63.5219 71.1694 63.3098 72.1075C62.484 75.6353 62.894 75.9643 62.3658 78.6858C62.2722 79.1687 62.5131 79.3887 62.9518 79.2782C63.0763 79.2455 75.9169 75.6413 77.0104 75.2832C79.9732 74.3114 79.6366 70.4019 75.4095 71.6176Z" fill="black"/>
<path d="M111.477 147.852C110.623 136.438 106.653 125.478 99.9998 116.166C97.2173 112.029 93.8234 108.337 89.9339 105.218C84.0003 100.697 73.2306 97.2183 62.8206 98.0976C64.3009 98.5787 65.7496 99.1523 67.1581 99.8149C67.7039 100.119 68.1518 100.573 68.4496 101.122C68.7473 101.672 68.8826 102.295 68.8397 102.918C68.5157 105.045 65.9678 105.61 64.1901 105.777C61.8072 106 59.4037 105.769 57.1064 105.098C58.3062 107.2 60.44 108.393 60.2216 111.319C60.1801 111.89 59.9547 112.433 59.5793 112.865C59.2039 113.298 58.6986 113.597 58.1389 113.719C55.3786 114.02 54.2654 112.152 52.4343 111.041C55.032 114.79 52.8817 118.168 50.1178 117.827C47.2933 117.479 46.8471 115.981 43.9978 114.822C44.1046 114.371 43.4412 114.019 43.2121 114.485C40.1836 120.64 36.6993 126.799 33.4346 133.192C33.1807 133.688 33.9295 134.128 34.1846 133.63C34.6048 132.806 36.1214 129.918 37.8422 126.642C38.0938 126.805 40.6773 128.422 64.6327 143.163C64.7293 143.223 64.7993 143.318 64.8284 143.428C64.8575 143.539 64.8435 143.656 64.7894 143.756C64.0971 145.105 63.328 146.412 62.4859 147.672C58.5185 153.473 52.9685 158.013 46.4958 160.751C49.4183 163.489 52.0431 166.025 55.5269 168C56.5 169 62.3187 172.765 63 173C70.1662 175.47 99.7808 181.307 109.5 155C110.31 152.16 111.768 150.79 111.477 147.852Z" fill="#FF4848"/>
<path d="M16.8361 152.558C15.1893 151.515 13.7596 150.163 12.6255 148.578C12.3039 148.126 11.5515 148.559 11.8767 149.016C13.0916 150.726 14.6272 152.184 16.3982 153.308C16.8693 153.608 17.3108 152.856 16.8361 152.558Z" fill="#FF4848"/>
<path d="M44.1997 105.828C45.287 106.458 46.4373 106.971 47.6317 107.361C48.1622 107.543 48.39 106.704 47.8631 106.524C46.7479 106.137 45.6686 105.653 44.6376 105.078C44.5383 105.023 44.4213 105.009 44.3117 105.039C44.2022 105.069 44.1087 105.141 44.0514 105.239C43.9942 105.337 43.9776 105.454 44.0053 105.564C44.033 105.674 44.1028 105.769 44.1997 105.828Z" fill="#FF4848"/>
<path d="M50.0352 99.6044L53.3034 101.395C53.7936 101.665 54.2326 100.915 53.7413 100.645L50.4743 98.8544C49.9829 98.585 49.5438 99.335 50.0352 99.6044Z" fill="#FF4848"/>
<path d="M19.4497 101.064C23.3146 97.9758 27.3894 95.1604 31.6446 92.6377C31.7441 92.5795 31.8163 92.4841 31.8455 92.3726C31.8746 92.2611 31.8583 92.1426 31.8001 92.0431C31.7418 91.9437 31.6465 91.8714 31.535 91.8423C31.4235 91.8131 31.305 91.8294 31.2055 91.8877C26.8453 94.3868 22.7067 97.2541 18.835 100.458C18.4018 100.807 19.0189 101.42 19.4497 101.064Z" fill="black"/>
<path d="M17.5487 98.6801C21.3788 95.4795 25.5987 92.7767 30.1079 90.6364C30.6123 90.3991 30.172 89.6467 29.67 89.8864C25.0967 92.0646 20.8173 94.8128 16.934 98.0654C16.5055 98.425 17.1226 99.0361 17.5487 98.6801Z" fill="black"/>
<path d="M142.714 86.6736C142.714 86.5219 142.654 86.3764 142.547 86.2691C142.44 86.1618 142.294 86.1016 142.142 86.1016C141.991 86.1016 141.845 86.1618 141.738 86.2691C141.631 86.3764 141.57 86.5219 141.57 86.6736V97.5168C141.58 97.6699 141.648 97.8134 141.761 97.9179C141.873 98.0225 142.021 98.0802 142.174 98.0793C142.326 98.0812 142.473 98.0229 142.582 97.917C142.691 97.8112 142.754 97.6664 142.757 97.5144C142.806 94.3873 142.716 86.7531 142.714 86.6736Z" fill="black"/>
<path d="M168.951 124.377C168.451 123.808 167.616 124.622 168.114 125.187L175.611 133.7C176.111 134.269 176.945 133.454 176.442 132.89L168.951 124.377Z" fill="black"/>
<path d="M180.944 87.4106C180.901 87.2682 180.805 87.1479 180.675 87.0747C180.546 87.0016 180.393 86.9812 180.249 87.0178C177.096 87.8378 173.656 88.805 169.426 90.0618C169.277 90.1035 169.151 90.2026 169.075 90.3374C168.999 90.4721 168.98 90.6315 169.022 90.7803C169.063 90.9292 169.162 91.0554 169.297 91.1312C169.432 91.207 169.591 91.2261 169.74 91.1844L180.562 88.1404C180.709 88.094 180.832 87.9912 180.904 87.8544C180.975 87.7176 180.99 87.558 180.944 87.4106Z" fill="black"/>
<path d="M160.115 62.0568L168.941 52.0051C169.435 51.4426 168.608 50.6214 168.104 51.1946L159.277 61.2463C158.783 61.8088 159.609 62.6288 160.115 62.0568Z" fill="black"/>
<path d="M170.632 106.241C170.177 104.995 169.858 104.581 166.784 99.5194C161.636 91.0354 155.229 80.4764 143.02 62.4463C142.962 62.3706 142.888 62.3112 142.802 62.2694C142.717 62.2276 142.623 62.206 142.528 62.2071C142.432 62.2081 142.339 62.2307 142.254 62.2744C142.17 62.318 142.097 62.3818 142.041 62.4588C134.056 74.3974 115.896 104.281 115.577 104.935C114.963 106.202 114.649 107.595 114.66 109.003C114.671 110.41 115.007 111.796 115.641 113.053C116.275 114.31 117.191 115.404 118.316 116.25C119.442 117.096 120.747 117.671 122.131 117.93C124.369 118.332 125.952 117.812 128.285 117.197C126.38 120.093 123.458 122.168 120.097 123.012C115.765 124.273 112.134 122.573 109.154 120.744C104.463 117.864 101.807 115.317 96.0892 110.869C94.2471 108.768 92.2216 106.836 90.0368 105.095C84.4876 100.865 73.9351 97.0148 62.8605 97.9392C61.4146 97.3168 60.1441 96.3498 59.1609 95.1204C58.1776 93.8911 57.5118 92.4383 57.2223 90.891C56.7749 87.5776 59.4464 83.5629 57.3648 80.2638C56.9812 79.6368 56.4264 79.1335 55.7659 78.8108C55.1054 78.4881 54.3665 78.3592 53.636 78.4419C52.93 78.6075 52.2942 78.9927 51.8196 79.541C51.345 80.0894 51.0559 80.7725 50.9933 81.495C50.8864 82.4616 50.6467 83.4102 50.2811 84.3113C48.6659 87.2782 42.6303 91.6245 40.0539 93.4805C34.7599 97.2947 32.4588 98.6496 27.2265 102.857C21.5076 107.461 15.5348 112.468 10.8863 118.603C7.39613 123.209 3.19625 130.42 3.00519 138.599C2.68952 152.067 16.8319 161.718 30.6858 163.265C36.0618 163.858 41.4997 163.047 46.4694 160.912C82.5 199.5 114.916 153.082 103 166C105.5 164.5 108.5 160 110.64 157.149C119.302 157.208 127.683 154.079 134.188 148.359C138.545 144.696 142.311 140.382 145.352 135.571C149.047 129.375 152.391 118.752 153.128 116.332C153.84 116.514 158.135 117.605 159.572 117.987C161.174 118.43 162.866 118.428 164.465 117.98C166.065 117.532 167.512 116.655 168.651 115.445C169.789 114.235 170.575 112.738 170.924 111.114C171.273 109.489 171.172 107.8 170.632 106.229V106.241ZM47.6347 160.404C53.6827 157.62 58.8609 153.246 62.6161 147.748C63.4605 146.484 64.2319 145.172 64.9266 143.82C64.9994 143.687 65.0183 143.531 64.9795 143.384C64.9406 143.237 64.847 143.11 64.7178 143.03C42.4332 129.315 38.6689 126.976 38.0577 126.591C43.7802 115.888 43.4158 116.281 44.0863 115.009C45.0393 115.41 45.935 115.935 46.7495 116.572C47.7225 117.331 48.8823 117.813 50.1066 117.967C52.7768 118.296 55.0341 115.23 52.9407 111.55C54.4395 112.645 55.6286 114.135 58.1766 113.858C58.7679 113.729 59.3019 113.412 59.6995 112.955C60.0971 112.499 60.337 111.926 60.3838 111.323C60.5939 108.503 58.6345 107.191 57.443 105.336C59.6477 105.936 61.9423 106.134 64.217 105.92C67.1316 105.644 68.7409 104.64 69.0008 102.934C69.0447 102.281 68.903 101.628 68.5922 101.052C68.2814 100.476 67.8142 100 67.2443 99.6789C66.7618 99.4032 66.2588 99.1644 65.7396 98.9661C72.2937 98.9187 78.7716 100.373 84.6763 103.218C88.2129 104.905 91.3666 107.299 93.9435 110.251C99.1832 115.966 103.36 122.57 106.276 129.754C108.635 135.522 110.153 140.949 110.472 147.85C111.637 173 67.5 185.5 47.6347 160.404ZM56.3407 92.334C56.8161 93.754 57.571 95.0637 58.561 96.1871C59.5509 97.3106 60.7558 98.2236 62.1046 98.8739C64.0746 99.841 65.0454 99.8122 66.651 100.683C67.5933 101.3 68.2567 102.449 67.5945 103.395C67.2688 103.764 66.8731 104.066 66.4303 104.282C65.9875 104.498 65.5063 104.624 65.0145 104.654C62.1393 105.096 59.1991 104.808 56.4628 103.821C56.3618 103.793 56.2553 103.793 56.1544 103.821C56.0534 103.849 55.9617 103.903 55.8889 103.978C55.8161 104.053 55.7649 104.148 55.7406 104.25C55.7163 104.352 55.7198 104.459 55.7508 104.559C57.0787 107.687 58.6594 107.799 59.2101 110.471C59.3271 110.919 59.2732 111.395 59.0587 111.806C58.8442 112.217 58.4844 112.533 58.0494 112.694C57.4718 112.769 56.8844 112.711 56.3335 112.522C55.7826 112.332 55.283 112.017 54.8738 111.602C53.8808 110.651 52.6904 109.931 51.3872 109.494C51.275 109.466 51.157 109.472 51.0483 109.511C50.9395 109.55 50.8448 109.623 50.776 109.715C50.7071 109.808 50.6672 109.919 50.6613 110.034C50.6554 110.15 50.6837 110.264 50.7428 110.363C51.6758 111.417 52.3082 112.702 52.5739 114.084C52.6652 114.626 52.5698 115.182 52.303 115.662C52.0362 116.142 51.614 116.518 51.1059 116.726C48.7597 117.418 46.5405 114.393 43.9534 113.738C43.8295 113.706 43.6986 113.717 43.5804 113.765C43.4621 113.814 43.3628 113.9 43.2972 114.01C41.1611 117.76 35.2619 129.29 33.3085 133.116C32.9643 133.791 33.9814 134.359 34.3232 133.689C35.3643 131.663 36.4224 129.644 37.4976 127.635C37.4976 127.635 62.0797 142.799 63.6331 143.755C57.8668 154.649 46.651 161.92 35.0198 162.291C22.9056 162.673 7.81373 155.144 4.69855 143.319C3.85306 139.604 4.02782 135.73 5.20418 132.106C8.3336 121.213 16.6158 113.18 24.294 106.757C28.0746 103.495 32.0402 100.453 36.1709 97.6476C40.6366 94.5147 45.9342 90.8972 49.5395 87.1874C50.8784 85.9859 51.7412 84.3435 51.971 82.5592C52.1775 81.3725 52.4611 79.7433 53.8935 79.5759C54.5941 79.5618 55.2767 79.7991 55.8181 80.2439C56.3595 80.6887 56.724 81.3135 56.8461 82.0034C57.6496 85.2397 55.2204 87.936 56.3407 92.334ZM111.637 147.833C110.754 135.936 106.493 124.538 99.355 114.979C101.558 116.749 104.091 118.728 106.767 120.599C109.123 122.248 113.712 124.959 117.954 124.607C122.11 124.129 125.917 122.054 128.569 118.817C130.774 115.949 132.2 111.904 131.965 106.368C131.703 100.157 134.596 99.2882 135.98 99.9231C137.79 101.015 136.823 103.437 137.68 107.363C138.208 109.782 139.494 112.845 142.627 113.693C146.592 114.768 149.654 115.561 151.981 116.111C150.238 122.005 148.009 127.743 145.315 133.268C142.561 138.163 139.013 142.566 134.815 146.297C128.169 152.312 119.97 156.086 111.005 156.012C111.5 153 111.873 150.575 111.637 147.833ZM139.029 107.943C138.577 106.182 138.351 104.37 138.356 102.552C138.225 100.58 137.586 99.3643 136.399 98.8315C135.761 98.5977 135.07 98.5473 134.405 98.6844C133.739 98.8215 133.125 99.1396 132.631 99.6066C130.001 101.762 130.982 105.669 130.804 108.898C130.683 111.282 130.098 113.621 129.083 115.782C129.083 115.782 126.544 116.428 125.799 116.624C124.267 117.03 122.648 116.97 121.151 116.45C119.654 115.929 118.347 114.972 117.397 113.703C116.447 112.434 115.898 110.91 115.82 109.327C115.743 107.743 116.14 106.174 116.961 104.818C118.095 102.945 136.551 72.8073 142.539 63.8071C156.724 84.7388 163.296 96.2513 168.245 104.153C168.713 104.867 169.117 105.62 169.451 106.406C169.911 107.634 170.061 108.958 169.888 110.259C169.714 111.559 169.222 112.798 168.455 113.863C167.688 114.927 166.67 115.788 165.492 116.365C164.313 116.942 163.01 117.219 161.699 117.172C160.032 117.003 160.987 117.17 142.735 112.477C142.703 112.469 142.671 112.466 142.638 112.464C141.721 112.05 140.916 111.423 140.289 110.638C139.662 109.852 139.23 108.929 139.029 107.943Z" fill="black"/>
<path d="M70.6702 83.0939C67.9657 81.6366 63.2425 83.0784 61.5324 87.0861C61.1687 88.0165 61.0323 89.0202 61.1345 90.0139C61.2367 91.0076 61.5746 91.9626 62.1201 92.7995C62.6655 93.6364 63.4028 94.331 64.2707 94.8257C65.1386 95.3203 66.112 95.6007 67.11 95.6436C68.0176 95.6536 68.9176 95.4768 69.7539 95.1243C70.5903 94.7717 71.3453 94.251 71.9719 93.5943C72.5985 92.9377 73.0833 92.1592 73.3963 91.3072C73.7094 90.4552 73.8438 89.548 73.7914 88.6419C73.7372 87.5384 73.427 86.4626 72.8853 85.4997C72.3436 84.5367 71.5852 83.7131 70.6702 83.0939ZM71.368 92.5569C70.6033 93.4473 69.5708 94.0661 68.425 94.3207C67.2792 94.5753 66.0817 94.4519 65.0119 93.9691C63.8952 93.3468 63.0404 92.3425 62.6044 91.1407C62.1684 89.939 62.1805 88.6203 62.6384 87.4266C63.2085 86.1166 64.2177 85.0464 65.4922 84.4006C66.7666 83.7549 68.2264 83.5739 69.62 83.889C70.3597 84.2926 71.002 84.8533 71.502 85.5317C72.0019 86.21 72.3473 86.9896 72.5139 87.8156C72.6805 88.6416 72.6642 89.4941 72.4663 90.3132C72.2683 91.1323 71.8935 91.8981 71.368 92.5569Z" fill="black"/>
<path d="M16.9111 152.429C15.279 151.398 13.863 150.06 12.7421 148.488C12.309 147.88 11.3086 148.477 11.7512 149.098C12.9762 150.825 14.5261 152.296 16.3142 153.43C16.9527 153.833 17.5543 152.837 16.9111 152.429Z" fill="black"/>
<path d="M47.9178 106.389C46.8101 106.005 45.738 105.525 44.7136 104.954C44.6469 104.917 44.5735 104.894 44.4977 104.886C44.4219 104.878 44.3452 104.885 44.2721 104.907C44.1639 104.938 44.067 105 43.9934 105.086C43.9197 105.171 43.8723 105.276 43.857 105.387C43.8417 105.499 43.859 105.613 43.907 105.715C43.955 105.817 44.0316 105.902 44.1274 105.962C45.2755 106.639 46.5038 107.169 47.7837 107.541C47.9187 107.528 48.0452 107.469 48.142 107.374C48.2389 107.279 48.3003 107.154 48.316 107.019C48.3316 106.885 48.3007 106.749 48.2282 106.634C48.1558 106.519 48.0462 106.433 47.9178 106.389Z" fill="black"/>
<path d="M53.8154 100.512L50.5459 98.7199C49.8861 98.3638 49.2998 99.3654 49.9644 99.7298L53.2327 101.522C53.8925 101.884 54.4823 100.876 53.8154 100.512Z" fill="black"/>
<path d="M19.5711 101.185C23.4278 98.0942 27.4968 95.2787 31.7482 92.7587C31.8131 92.7197 31.8695 92.6681 31.9141 92.607C31.9587 92.5458 31.9907 92.4764 32.0081 92.4027C32.0342 92.2929 32.028 92.1779 31.9901 92.0716C31.9522 91.9653 31.8844 91.8722 31.7947 91.8037C31.7051 91.7351 31.5975 91.694 31.485 91.6853C31.3725 91.6766 31.2598 91.7008 31.1607 91.7548C26.7904 94.256 22.6432 97.1286 18.7653 100.341C18.1802 100.821 18.9896 101.659 19.5711 101.185Z" fill="black"/>
<path d="M17.6458 98.7915C21.4666 95.5991 25.6762 92.9032 30.1741 90.768C30.8601 90.4416 30.2857 89.4281 29.6081 89.7497C25.024 91.9341 20.7344 94.6889 16.8411 97.9489C16.2585 98.439 17.0749 99.2697 17.6458 98.7915Z" fill="black"/>
<path d="M54 166.5C70 182 103.5 176.5 110 151.5L54 166.5Z" fill="#FF4848"/>
<path d="M62.1793 78.8019C62.1637 78.8752 62.1636 78.9511 62.1792 79.0245C62.1947 79.0979 62.2255 79.1672 62.2696 79.2279C62.3136 79.2886 62.37 79.3394 62.4349 79.3769C62.4999 79.4144 62.572 79.4379 62.6466 79.4458C62.9737 79.4453 63.2966 79.3728 63.5924 79.2334C69.3244 77.3787 72.0514 77.0555 77.043 75.4267C78.8339 74.8415 79.7689 72.9543 78.5365 71.7717C78.1308 71.4877 77.6633 71.3044 77.1727 71.2367C76.6821 71.1691 76.1825 71.2191 75.715 71.3827C76.0326 70.8458 76.1623 70.2184 76.0838 69.5996C76.0052 68.9807 75.7228 68.4057 75.2811 67.9652C74.3547 67.0932 73.0519 67.4815 72.0218 67.9169C70.5755 68.5307 69.2772 69.4469 68.2143 70.604C68.2755 69.4956 67.6649 68.467 66.556 68.4513C65.7516 68.508 65.0003 68.8741 64.46 69.4728C63.8196 70.2225 63.3705 71.1163 63.1512 72.0776C62.2855 75.7941 62.7732 75.8536 62.1793 78.8019ZM66.7393 72.8425C66.7568 72.9663 66.8134 73.0812 66.9008 73.1706C66.9882 73.2599 67.1019 73.319 67.2253 73.3391C67.3486 73.3593 67.4752 73.3395 67.5865 73.2826C67.6978 73.2257 67.788 73.1348 67.844 73.023C69.0136 71.0715 70.8184 69.5813 72.956 68.8019C73.1421 68.6668 73.3622 68.5861 73.5916 68.5688C73.821 68.5516 74.0507 68.5985 74.2549 68.7043C74.4592 68.8101 74.63 68.9706 74.7483 69.1679C74.8665 69.3653 74.9276 69.5916 74.9246 69.8216C74.848 70.3606 74.6607 70.8779 74.3746 71.3411C74.0885 71.8043 73.7097 72.2032 73.262 72.513C72.7273 73.0126 73.3669 73.8871 73.9704 73.4344C74.569 72.9863 75.2564 72.6713 75.9867 72.5107C76.3825 72.4242 77.3105 72.2188 77.7494 72.6322C78.1402 72.9956 77.8029 73.6334 77.4175 73.9252C75.6173 75.0581 69.7684 76.0297 63.4744 78.0529C63.89 75.2639 63.8015 73.0124 64.7659 71.0443C65.5267 69.4897 67.2501 68.95 67.0391 70.676C66.8613 71.3852 66.7608 72.1117 66.7393 72.8425Z" fill="black"/>
</svg>
