<svg width="156" height="31" viewBox="0 0 156 31" fill="none" xmlns="http://www.w3.org/2000/svg">
<rect width="31.2361" height="31.0001" rx="15.5" fill="white"/>
<path d="M18.6343 5.09666C24.3208 6.98455 28.2595 13.0346 26.4186 18.5796C25.3625 21.7609 23.2337 22.6813 21.4936 21.4231C19.7536 20.1649 18.4216 17.9928 13.2934 19.8695C8.16526 21.7462 2.32213 18.6212 4.64121 11.6358C6.48209 6.09084 12.9478 3.20876 18.6343 5.09666Z" fill="#1A55DA"/>
<ellipse cx="2.09327" cy="2.09327" rx="2.09327" ry="2.09327" transform="matrix(0.866024 -0.500003 0.499997 0.866027 19.2656 15.4023)" fill="white"/>
<ellipse cx="16.3669" cy="22.4528" rx="1.79237" ry="1.86985" transform="rotate(1.29355 16.3669 22.4528)" fill="#1A55DA"/>
<path d="M39.6484 25.0637H47.8158C51.1241 25.0637 54.0964 23.0219 54.0964 19.6877C54.0964 17.284 52.649 15.6557 50.633 14.9837C52.0029 14.1566 52.9333 12.6834 52.9333 10.7707C52.9333 7.74674 50.3229 5.9375 47.118 5.9375H39.6484V25.0637ZM46.5752 8.85813C48.2293 8.85813 49.3407 9.86613 49.3407 11.2618C49.3407 12.8643 48.1259 13.8465 46.5752 13.8465H43.1893V8.85813H46.5752ZM47.3247 16.612C49.0047 16.612 50.4262 17.6975 50.4262 19.3C50.4262 21.0059 49.1081 22.1431 47.3247 22.1431H43.1893V16.612H47.3247Z" fill="white"/>
<path d="M59.6735 19.1708C59.6735 16.0175 61.6119 15.3714 63.3953 15.3714H63.8347V12.3215H63.111C61.431 12.3215 60.1387 13.0452 59.4926 14.3117V12.3215H56.2618V25.0637H59.6735V19.1708Z" fill="white"/>
<path d="M71.8958 11.7807C68.2515 11.7807 65.4601 14.7271 65.4601 18.3973C65.4601 22.0675 68.2515 25.0398 71.8958 25.0398C73.6017 25.0398 75.0749 24.3419 76.1346 23.2306V25.0637H79.417V12.0391H76.1346V13.5382C75.0749 12.4268 73.6017 11.7807 71.8958 11.7807ZM72.4903 14.6754C74.5063 14.6754 76.1087 16.3296 76.1087 18.3973C76.1087 20.4909 74.5063 22.145 72.4903 22.145C70.4743 22.145 68.8977 20.4909 68.8977 18.3973C68.8977 16.3296 70.4743 14.6754 72.4903 14.6754Z" fill="white"/>
<path d="M82.379 25.0637H85.7907V17.7234C85.7907 16.1468 87.0055 15.0612 88.4787 15.0612C89.6676 15.0612 90.9599 15.9142 90.9599 17.7234V25.0637H94.3716V16.9997C94.3716 14.0015 92.123 12.0631 89.3575 12.0631C87.8584 12.0631 86.5144 12.6575 85.6098 13.6655V12.3215H82.379V25.0637Z" fill="white"/>
<path d="M102.898 25.0398C104.604 25.0398 106.077 24.3678 107.137 23.2823V25.0637H110.419V5.9375H107.008V13.4865C106.025 12.4527 104.578 11.7807 102.898 11.7807C99.2537 11.7807 96.4623 14.753 96.4623 18.4232C96.4623 22.0675 99.2537 25.0398 102.898 25.0398ZM103.492 22.145C101.476 22.145 99.8998 20.4909 99.8998 18.4232C99.8998 16.3296 101.476 14.6754 103.492 14.6754C105.508 14.6754 107.111 16.3296 107.111 18.4232C107.111 20.4909 105.508 22.145 103.492 22.145Z" fill="white"/>
<path d="M113.235 17.5726C113.235 11.9437 117.791 5.93825 124.058 5.961C127.952 5.97513 131.244 8.64323 130.936 12.6421H127.276C127.526 9.98642 126.923 6.95552 123.723 6.95552C120.633 6.95552 118.646 8.87045 117.53 11.5483C116.372 14.3688 115.95 18.3209 117.989 20.8549C120.826 24.3526 127.042 22.3307 128.809 18.4371H129.322C128.475 20.7523 126.868 23.0177 124.621 24.1296C119.678 26.575 113.185 23.6259 113.235 17.5726Z" fill="white"/>
<path d="M135.692 25.0393C134.348 25.0393 133.357 24.6602 132.72 23.9021C132.099 23.1439 131.789 22.1273 131.789 20.8522C131.789 19.8528 131.953 18.8793 132.28 17.9316C132.625 16.9667 133.099 16.1051 133.702 15.347C134.322 14.5716 135.037 13.9599 135.847 13.5119C136.657 13.0639 137.536 12.8399 138.483 12.8399C139.362 12.8399 140.017 13.038 140.447 13.4343C140.895 13.8306 141.119 14.3045 141.119 14.8559C141.119 15.4245 140.921 15.95 140.525 16.4325C140.129 16.915 139.422 17.3544 138.406 17.7507C137.406 18.147 136.002 18.5088 134.193 18.8362C134.158 19.1636 134.141 19.491 134.141 19.8184C134.141 20.8178 134.365 21.619 134.813 22.2221C135.278 22.8251 135.968 23.1267 136.881 23.1267C137.432 23.1267 137.975 22.9802 138.509 22.6873C139.043 22.3944 139.603 21.9205 140.189 21.2658H140.241L140.525 21.4984C139.956 22.5322 139.241 23.3851 138.38 24.0571C137.536 24.7119 136.64 25.0393 135.692 25.0393ZM137.734 13.7962C136.889 13.7962 136.157 14.1753 135.537 14.9334C134.934 15.6916 134.52 16.6823 134.296 17.9057C135.502 17.6645 136.441 17.4147 137.113 17.1562C137.785 16.8805 138.259 16.5703 138.535 16.2257C138.828 15.8639 138.974 15.4331 138.974 14.9334C138.974 14.606 138.871 14.339 138.664 14.1322C138.457 13.9082 138.147 13.7962 137.734 13.7962Z" fill="white"/>
<path d="M144.464 25.0393C143.774 25.0393 143.3 24.7895 143.042 24.2898C142.784 23.7728 142.723 23.075 142.861 22.1962L145.831 6.52573L148.108 5.96094H148.185L145.316 21.6534C145.161 22.5667 145.299 23.0233 145.73 23.0233C146.006 23.0233 146.307 22.8768 146.635 22.5839C146.962 22.2738 147.281 21.7827 147.591 21.1107L147.979 21.2658C147.479 22.5581 146.936 23.5144 146.35 24.1347C145.764 24.7378 145.136 25.0393 144.464 25.0393Z" fill="white"/>
<path d="M151.67 25.0393C150.98 25.0393 150.507 24.7895 150.248 24.2898C149.99 23.7728 149.929 23.075 150.067 22.1962L153.038 6.52573L155.314 5.96094H155.392L152.523 21.6534C152.368 22.5667 152.505 23.0233 152.936 23.0233C153.212 23.0233 153.513 22.8768 153.841 22.5839C154.168 22.2738 154.487 21.7827 154.797 21.1107L155.185 21.2658C154.685 22.5581 154.142 23.5144 153.556 24.1347C152.971 24.7378 152.342 25.0393 151.67 25.0393Z" fill="white"/>
</svg>
