<svg width="186" height="186" viewBox="0 0 186 186" fill="none" xmlns="http://www.w3.org/2000/svg">
<g clip-path="url(#clip0_4468_766)">
<path d="M86.0088 63.8742C83.2197 67.7424 78.0569 66.3769 77.4458 60.9727C73.5557 61.933 70.133 64.2434 67.7875 67.4922C67.1111 68.515 67.1764 69.166 66.781 69.3256C66.3566 69.3748 65.9268 69.3484 65.5116 69.2476C58.9833 68.8668 54.2847 73.8811 55.3565 79.5537C53.618 79.9978 52.0829 81.0213 51.0042 82.4552C50.0275 83.6851 49.2894 85.0869 48.8281 86.5882C49.3141 86.5628 64.8316 85.7721 67.6986 85.5944C67.6605 84.0835 67.6424 82.5721 67.6442 81.0607C67.4538 78.491 68.5908 75.7562 71.204 75.7526C71.7923 75.7946 72.3635 75.9688 72.8753 76.262C73.387 76.5552 73.8261 76.9601 74.1598 77.4464C74.8904 78.5557 75.4241 79.7826 75.7375 81.0734L77.0196 84.9415C78.8476 84.7983 85.8818 84.1908 90.1017 83.7247C90.2181 76.887 88.8204 70.1082 86.0088 63.8742ZM74.6785 73.629C74.1339 73.0166 73.791 72.2513 73.6966 71.4373C73.6022 70.6232 73.7608 69.7997 74.1508 69.079C74.5502 68.4348 75.1128 67.9076 75.7816 67.5509C76.4504 67.1942 77.2015 67.0207 77.959 67.0479C78.0153 67.0752 78.0789 67.0834 78.1403 67.0714C79.0352 67.2432 79.8482 67.7061 80.4527 68.388C81.0571 69.07 81.4192 69.9326 81.4825 70.8417C81.485 71.6312 81.2518 72.4035 80.813 73.0599C80.3741 73.7162 79.7494 74.2267 79.0188 74.5259C78.2882 74.8252 77.4849 74.8998 76.7117 74.74C75.9386 74.5802 75.2306 74.1934 74.6785 73.629Z" fill="black"/>
<path d="M78.1418 67.0771C78.0803 67.0891 78.0167 67.0809 77.9604 67.0535C77.203 67.0264 76.4518 67.1999 75.783 67.5566C75.1142 67.9133 74.5516 68.4405 74.1522 69.0846C73.8577 69.6132 73.6894 70.2027 73.6607 70.807C73.6319 71.4114 73.7434 72.0143 73.9865 72.5683C74.2295 73.1224 74.5975 73.6128 75.0616 74.0009C75.5257 74.3891 76.0734 74.6646 76.6617 74.8058C77.25 74.9471 77.863 74.9502 78.4528 74.8151C79.0425 74.6799 79.593 74.41 80.0611 74.0267C80.5292 73.6433 80.9022 73.1568 81.1509 72.6052C81.3996 72.0536 81.5173 71.452 81.4948 70.8474C81.431 69.9368 81.0673 69.0729 80.4607 68.3908C79.8541 67.7087 79.0386 67.2468 78.1418 67.0771Z" fill="#FC9070"/>
<path d="M1.83821 184.376L9.1046 164.693C9.41106 163.864 8.08545 163.507 7.7808 164.33L0.514405 184.012C0.207936 184.842 1.53355 185.2 1.83821 184.376Z" fill="#CCEAFF"/>
<path d="M60.6613 98.6729C60.3437 98.2138 60.1278 97.6923 60.0278 97.1431C59.9279 96.5939 59.9462 96.0298 60.0816 95.4882C60.217 94.9467 60.4664 94.4403 60.8131 94.0028C61.1598 93.5654 61.5958 93.2069 62.0921 92.9514C62.6958 92.7848 63.3293 92.7563 63.9456 92.8681C64.5618 92.9798 65.145 93.229 65.6518 93.5969C66.4824 94.0231 67.3401 94.4366 68.1761 94.8773C67.8606 90.3708 67.8134 87.6396 67.73 85.5977C64.863 85.779 47.3254 86.6658 46.5583 86.7129C44.1501 86.8598 41.76 87.2008 39.3644 87.4764C33.9538 88.0465 28.642 89.327 23.5659 91.2848C13.9547 95.1094 8.16989 103.519 7.89062 110.199C7.97767 109.345 9.32142 109.345 9.25614 110.219C8.59424 119.214 14.6638 126.541 21.7089 132.219C26.1863 135.833 30.9483 139.135 35.7611 142.289L53.034 114.432C48.6818 112.325 44.2691 110.341 39.796 108.482C38.9909 108.148 39.3445 106.823 40.1587 107.16C47.9991 110.394 55.668 114.03 63.1348 118.052C64.3516 114.516 67.3202 107.296 67.3383 105.357C66.3718 102.721 62.3224 101.562 60.6613 98.6729Z" fill="#FF4848"/>
<path d="M153.032 104.682L128.302 74.5366C128.178 74.4056 128.109 74.232 128.109 74.0515C128.109 73.871 128.178 73.6974 128.302 73.5664C120.229 81.3952 88.2525 84.0701 77.051 84.9497L79.7911 93.2264C82.0869 91.451 84.3736 89.6575 86.8308 88.1088C89.8756 86.1919 93.7345 83.8688 96.7756 85.7295C97.3006 86.1236 97.7185 86.6429 97.9912 87.24C98.2639 87.8372 98.3828 88.4931 98.337 89.1479C98.1738 92.0731 95.9705 94.3218 93.9231 96.1461C90.4522 99.2436 90.2056 97.7783 97.9 96.556C100.62 96.1244 105.112 95.4679 106.024 99.0568C106.895 103.892 98.939 105.585 92.7317 108.209C90.5121 119.517 86.6096 141.043 81.6952 151.298C79.5191 155.855 76.8805 159.618 71.8828 159.319C66.7367 158.9 61.7003 157.604 56.9909 155.487C46.2482 150.716 36.0808 144.743 26.6831 137.682C19.3787 132.385 12.5384 127.164 9.25795 118.851C8.39947 116.669 7.92224 114.356 7.84711 112.012C7.80721 114.802 7.887 117.603 7.887 120.387C7.887 153.427 7.83804 160.663 7.93052 162.317C7.97223 163.098 8.20616 163.087 8.70667 163.14C11.5828 163.443 27.7621 163.713 116.633 163.08C116.814 163.078 116.987 163.006 117.116 162.877C117.244 162.749 117.318 162.576 117.32 162.395C117.403 150.705 117.748 121.377 117.752 118.401C130.819 116.33 143.428 112.839 153.864 104.789C153.884 104.771 153.902 104.751 153.918 104.729C153.791 104.832 153.63 104.885 153.466 104.876C153.302 104.867 153.148 104.798 153.032 104.682Z" fill="#FF4848"/>
<path d="M126.343 184.541C126.737 185.332 127.921 184.637 127.527 183.849L117.724 164.165C117.331 163.374 116.146 164.069 116.54 164.858L126.343 184.541Z" fill="#CCEAFF"/>
<path d="M63.3747 170.488C63.3042 170.375 63.2026 170.284 63.0818 170.227C62.9611 170.17 62.8264 170.149 62.694 170.166C62.5615 170.184 62.4369 170.239 62.3351 170.325C62.2332 170.412 62.1585 170.526 62.1198 170.653C60.8613 174.572 57.8038 183.466 57.6171 184.019C57.336 184.859 58.6598 185.218 58.9409 184.382C60.2556 180.481 62.9304 172.511 62.9304 172.511C64.6241 175.512 69.1232 183.551 69.718 184.547C69.7635 184.624 69.8239 184.692 69.8956 184.747C69.9674 184.801 70.0492 184.841 70.1364 184.864C70.2235 184.887 70.3143 184.892 70.4035 184.88C70.4928 184.868 70.5787 184.838 70.6565 184.792C70.7342 184.747 70.8023 184.687 70.8567 184.615C70.9111 184.543 70.9509 184.461 70.9737 184.374C70.9965 184.287 71.0019 184.196 70.9897 184.107C70.9774 184.018 70.9477 183.932 70.9022 183.854C68.4208 179.383 65.9116 174.928 63.3747 170.488Z" fill="#CCEAFF"/>
<path d="M171.979 62.5906C170.863 52.5071 166.762 42.9864 160.201 35.2487C153.818 27.0865 144.688 21.5199 134.509 19.5837C119.82 16.4101 103.795 20.2457 89.2509 24.9771C89.0115 25.055 85.0437 26.3462 84.7318 26.5149C80.3448 24.6342 75.8197 23.0936 71.1964 21.9068C70.3691 21.7097 69.5092 21.6928 68.6747 21.857C67.8403 22.0213 67.0509 22.363 66.36 22.8589C65.6664 23.5635 65.2155 24.4708 65.0727 25.4492C64.9298 26.4275 65.1025 27.4259 65.5657 28.2994C66.7346 30.2536 68.5212 31.7627 70.6433 32.5883C73.2347 33.8099 75.9245 34.8108 78.6841 35.5805C74.9211 37.155 71.2879 39.0233 67.818 41.1679C66.6222 41.8349 65.534 42.6786 64.5901 43.6705C61.6669 46.8713 63.1648 51.5392 67.167 51.3742C71.2791 51.1784 75.3139 50.185 79.0467 48.449C78.0258 51.9763 76.7274 58.7515 77.703 62.3313C78.6968 65.9782 82.5611 67.2277 84.9966 64.9482C88.7032 61.8761 86.9134 54.6113 92.7435 47.6819C94.4663 52.2302 94.5987 56.6424 98.124 58.3108C99.0133 58.8166 100.057 58.9806 101.058 58.7719C102.06 58.5633 102.951 57.9963 103.564 57.1774C105.026 55.1825 104.378 52.5747 103.927 50.3369C103.501 48.2103 103.078 46.0824 102.658 43.9534C108.327 43.5945 114.008 44.4375 119.328 46.427C122.278 47.5128 124.96 49.2197 127.193 51.4322C129.124 53.4762 130.557 55.9371 131.384 58.6244C132.21 61.3116 132.407 64.153 131.959 66.9285C131.433 69.458 130.154 71.769 128.288 73.5568C128.163 73.687 128.092 73.8609 128.092 74.0419C128.092 74.2229 128.163 74.3968 128.288 74.527C128.288 74.527 152.008 103.439 153.018 104.673C153.149 104.798 153.323 104.867 153.503 104.867C153.684 104.867 153.858 104.798 153.988 104.673C160.3 99.7516 165.262 93.3102 168.408 85.9507C171.554 78.5913 172.783 70.5541 171.979 62.5906ZM88.9045 43.6469L85.4318 44.9907C84.6067 45.3099 84.2531 43.9824 85.0691 43.6669L88.5418 42.3231C89.3669 42.0039 89.7187 43.3314 88.9045 43.6469ZM89.1856 35.3049L85.1108 35.7873C84.2331 35.8906 84.244 34.5178 85.1108 34.4145L89.1856 33.9303C90.0633 33.8215 90.0524 35.1997 89.1856 35.3031V35.3049ZM93.4798 46.9293C93.3487 47.0454 93.1783 47.1071 93.0033 47.1018C92.8283 47.0964 92.662 47.0246 92.5382 46.9008C92.4144 46.777 92.3425 46.6106 92.3372 46.4356C92.3319 46.2606 92.3936 46.0902 92.5096 45.9591C94.994 43.3822 98.26 42.8762 101.836 42.6259C102.717 42.5661 102.708 43.9226 101.836 43.9987C98.4232 44.2925 95.9352 44.5591 93.4798 46.9275V46.9293ZM164.867 69.7793V62.5906C164.867 62.4088 164.939 62.2345 165.068 62.1059C165.196 61.9774 165.371 61.9051 165.553 61.9051C165.734 61.9051 165.909 61.9774 166.037 62.1059C166.166 62.2345 166.238 62.4088 166.238 62.5906C166.28 64.9862 166.285 67.3819 166.238 69.7757C166.235 69.866 166.215 69.955 166.178 70.0373C166.14 70.1197 166.087 70.1938 166.021 70.2554C165.955 70.317 165.877 70.3648 165.792 70.3961C165.708 70.4274 165.617 70.4415 165.527 70.4376C165.354 70.4304 165.19 70.3583 165.068 70.2357C164.945 70.113 164.874 69.9488 164.867 69.7757V69.7793Z" fill="#FC9070"/>
<path d="M181.578 78.3805C181.541 78.5524 181.571 78.732 181.662 78.8824C181.753 79.0329 181.899 79.1426 182.068 79.1891C182.238 79.2355 182.419 79.2152 182.574 79.1323C182.729 79.0493 182.847 78.9101 182.902 78.7432C185.505 69.2795 184.922 59.2222 181.243 50.1227C180.916 49.3121 179.591 49.6657 179.919 50.4854C182.672 57.3526 183.66 64.8001 182.793 72.1476C182.526 74.2498 182.121 76.332 181.578 78.3805Z" fill="black"/>
<path d="M166.246 69.7768C166.288 67.383 166.288 64.988 166.246 62.5917C166.246 62.4099 166.174 62.2356 166.045 62.107C165.917 61.9785 165.742 61.9062 165.56 61.9062C165.379 61.9062 165.204 61.9785 165.076 62.107C164.947 62.2356 164.875 62.4099 164.875 62.5917V69.7768C164.882 69.959 164.961 70.1309 165.095 70.255C165.228 70.379 165.405 70.4451 165.588 70.4387C165.761 70.4337 165.926 70.3622 166.049 70.239C166.171 70.1159 166.242 69.9504 166.246 69.7768Z" fill="#FF4848"/>
<path d="M9.25529 118.854C12.5303 127.158 19.3561 132.378 26.6805 137.686C29.611 139.809 32.5923 141.86 35.6243 143.841C35.4697 143.746 35.3576 143.596 35.3116 143.421C35.2656 143.245 35.2893 143.059 35.3777 142.901L35.7585 142.286C30.9457 139.133 26.1836 135.83 21.7063 132.216C14.672 126.538 8.58795 119.244 9.25348 110.217C9.31876 109.343 7.98408 109.343 7.88797 110.197C7.83927 110.8 7.82474 111.405 7.84445 112.01C7.91719 114.356 8.39449 116.671 9.25529 118.854Z" fill="#FF4848"/>
<path d="M39.7913 108.47C44.2644 110.322 48.677 112.306 53.0292 114.42L53.4246 113.782C53.5194 113.628 53.6697 113.517 53.8443 113.472C54.0189 113.426 54.2043 113.45 54.3621 113.537C49.6944 111.261 44.9595 109.131 40.1576 107.148C39.3397 106.811 38.9843 108.138 39.7913 108.47Z" fill="#FF4848"/>
<path d="M88.5433 42.3265L85.0706 43.6703C84.2564 43.9858 84.61 45.3133 85.4333 44.9941L88.906 43.6503C89.7221 43.3348 89.3703 42.0073 88.5433 42.3265Z" fill="#FF4848"/>
<path d="M85.1151 35.7826L89.1899 35.3002C90.0567 35.1969 90.0676 33.8241 89.1899 33.9274L85.1151 34.4098C84.2483 34.5132 84.2374 35.886 85.1151 35.7826Z" fill="#FF4848"/>
<path d="M92.5165 45.9562C92.4004 46.0873 92.3388 46.2577 92.3441 46.4327C92.3494 46.6077 92.4213 46.774 92.5451 46.8978C92.6688 47.0216 92.8352 47.0935 93.0102 47.0988C93.1852 47.1041 93.3556 47.0425 93.4866 46.9264C95.9058 44.5943 98.2632 44.3059 101.843 43.9958C102.715 43.9197 102.724 42.5632 101.843 42.623C98.2596 42.866 94.9954 43.3792 92.5165 45.9562Z" fill="#FF4848"/>
<path d="M106.02 99.0593C105.113 95.4722 100.614 96.1269 97.8959 96.5585C90.236 97.7772 90.4228 99.2679 93.9191 96.1487C95.9664 94.3243 98.1697 92.0756 98.3329 89.1504C98.3787 88.4956 98.2598 87.8397 97.9871 87.2426C97.7144 86.6455 97.2965 86.1261 96.7716 85.732C95.7819 85.1381 94.614 84.9138 93.4748 85.0991C89.3039 85.7302 83.1527 90.6266 79.787 93.229L75.7649 81.0786C75.4514 79.7879 74.9177 78.5609 74.1872 77.4516C73.8534 76.9653 73.4144 76.5605 72.9026 76.2672C72.3909 75.974 71.8196 75.7999 71.2313 75.7578C68.6127 75.7578 67.4811 78.5071 67.6715 81.0659C67.6588 84.9304 67.8438 90.1805 68.172 94.8702C67.3361 94.4295 66.4783 94.016 65.6478 93.5898C65.141 93.2219 64.5578 92.9727 63.9415 92.861C63.3253 92.7492 62.6918 92.7777 62.088 92.9442C61.5918 93.1998 61.1557 93.5583 60.809 93.9957C60.4623 94.4332 60.213 94.9396 60.0775 95.4811C59.9421 96.0227 59.9238 96.5868 60.0237 97.136C60.1237 97.6852 60.3397 98.2067 60.6572 98.6658C62.2784 101.484 66.3749 102.732 67.3379 105.35C67.3197 107.274 64.3421 114.528 63.1344 118.045C60.2329 116.489 57.2788 115.058 54.3628 113.542C54.2047 113.456 54.0197 113.433 53.8455 113.478C53.6713 113.524 53.521 113.634 53.4253 113.787L35.3763 142.897C35.2892 143.055 35.2663 143.241 35.3122 143.416C35.3581 143.59 35.4693 143.741 35.6229 143.836C42.4196 148.287 49.5641 152.183 56.9868 155.486C61.6961 157.603 66.7326 158.899 71.8787 159.318C76.8692 159.617 79.4951 155.872 81.6911 151.297C84.0918 145.891 85.9317 140.253 87.1822 134.471C89.2332 126.142 90.9523 117.267 92.7276 108.208C99.0021 105.562 106.887 103.878 106.02 99.0593ZM83.189 105.626C82.4636 106.139 81.7872 104.953 82.4963 104.44C83.2348 103.902 83.8372 103.198 84.2553 102.385C84.6633 101.6 85.8529 102.298 85.4395 103.078C84.8974 104.091 84.1269 104.963 83.189 105.626ZM75.5726 101.961C75.8434 100.909 76.133 99.8621 76.4413 98.82C76.4912 98.6467 76.6073 98.5001 76.7646 98.4119C76.9218 98.3238 77.1074 98.3011 77.2813 98.3487C77.4551 98.3964 77.6032 98.5107 77.6934 98.6668C77.7836 98.8229 77.8087 99.0082 77.7632 99.1826C77.4924 100.234 77.2029 101.281 76.8946 102.324C76.8447 102.497 76.7285 102.643 76.5713 102.732C76.4141 102.82 76.2285 102.843 76.0546 102.795C75.8808 102.747 75.7327 102.633 75.6425 102.477C75.5523 102.321 75.5272 102.135 75.5726 101.961ZM74.4519 153.741C72.8362 154.233 71.2132 154.697 69.5938 155.174C69.4219 155.211 69.2423 155.181 69.0919 155.09C68.9415 154.999 68.8317 154.854 68.7852 154.684C68.7388 154.514 68.7591 154.333 68.842 154.178C68.925 154.023 69.0642 153.906 69.2311 153.85C70.8468 153.359 72.4699 152.896 74.0892 152.418C74.2611 152.38 74.4408 152.41 74.5912 152.502C74.7416 152.593 74.8513 152.738 74.8978 152.908C74.9443 153.077 74.9239 153.258 74.841 153.413C74.7581 153.569 74.6188 153.686 74.4519 153.741Z" fill="#FC9070"/>
<path d="M75.569 101.957C75.5236 102.131 75.5487 102.317 75.6389 102.473C75.7291 102.629 75.8771 102.743 76.051 102.791C76.2248 102.838 76.4105 102.816 76.5677 102.728C76.7249 102.639 76.8411 102.493 76.891 102.32C77.1993 101.279 77.4888 100.232 77.7596 99.1786C77.8051 99.0042 77.78 98.8189 77.6898 98.6628C77.5996 98.5067 77.4515 98.3924 77.2777 98.3447C77.1038 98.297 76.9182 98.3198 76.761 98.4079C76.6037 98.4961 76.4876 98.6427 76.4376 98.8159C76.1294 99.8581 75.8398 100.905 75.569 101.957Z" fill="#FF4848"/>
<path d="M83.1794 105.616C84.1172 104.953 84.8878 104.081 85.4298 103.068C85.8433 102.289 84.6537 101.59 84.2457 102.376C83.8275 103.188 83.2251 103.892 82.4866 104.43C81.7776 104.944 82.4594 106.13 83.1794 105.616Z" fill="#FF4848"/>
<path d="M69.583 155.171C71.2023 154.694 72.8254 154.229 74.4411 153.738C74.608 153.682 74.7472 153.565 74.8302 153.41C74.9131 153.255 74.9334 153.074 74.887 152.904C74.8405 152.735 74.7308 152.589 74.5804 152.498C74.4299 152.407 74.2503 152.377 74.0784 152.414C72.459 152.893 70.836 153.355 69.2203 153.847C69.0534 153.902 68.9142 154.02 68.8312 154.175C68.7483 154.33 68.728 154.511 68.7744 154.68C68.8209 154.85 68.9306 154.995 69.081 155.087C69.2314 155.178 69.4111 155.208 69.583 155.171Z" fill="#FF4848"/>
<path d="M81.5982 70.8361C81.5695 69.9538 81.2519 69.1054 80.6942 68.4211C80.1365 67.7369 79.3695 67.2547 78.5112 67.0488C77.6528 66.8428 76.7506 66.9243 75.9431 67.2809C75.1356 67.6375 74.4676 68.2494 74.0416 69.0226C73.7385 69.5665 73.5654 70.1732 73.5358 70.7952C73.5062 71.4172 73.621 72.0377 73.8712 72.6079C74.1213 73.1781 74.5001 73.6828 74.9777 74.0822C75.4554 74.4817 76.0191 74.7652 76.6246 74.9105C77.2301 75.0558 77.861 75.059 78.4679 74.9198C79.0748 74.7807 79.6413 74.5029 80.123 74.1083C80.6047 73.7137 80.9885 73.2129 81.2445 72.6452C81.5004 72.0776 81.6214 71.4583 81.5982 70.8361ZM75.1442 70.5187V70.4988C75.3118 69.9134 75.6709 69.4012 76.1641 69.0441C76.6572 68.6871 77.2559 68.5058 77.8643 68.5293C78.507 68.651 79.0814 69.0075 79.4756 69.5295C79.8698 70.0515 80.0556 70.7015 79.9969 71.3529C79.8651 71.971 79.5129 72.52 79.006 72.8974C78.4991 73.2748 77.8722 73.4549 77.2423 73.404C76.9151 73.3523 76.6013 73.2367 76.3188 73.0637C76.0362 72.8908 75.7905 72.6638 75.5957 72.3959C75.4009 72.128 75.2607 71.8243 75.1832 71.5022C75.1058 71.1801 75.0925 70.8459 75.1442 70.5187Z" fill="black"/>
<path d="M1.93234 184.407L9.20054 164.723C9.56322 163.755 8.01094 163.338 7.65732 164.299L0.389111 183.975C0.0318665 184.949 1.57872 185.366 1.93234 184.407Z" fill="black"/>
<path d="M116.443 164.91L126.248 184.592C126.707 185.515 128.087 184.705 127.63 183.785L117.827 164.101C117.368 163.18 115.986 163.989 116.443 164.91Z" fill="black"/>
<path d="M69.6104 184.596C69.6634 184.687 69.7337 184.767 69.8174 184.83C69.9011 184.894 69.9964 184.94 70.098 184.967C70.1997 184.993 70.3056 185 70.4097 184.986C70.5138 184.971 70.614 184.937 70.7048 184.884C70.7955 184.831 70.8749 184.76 70.9385 184.677C71.002 184.593 71.0485 184.498 71.0752 184.396C71.1018 184.294 71.1083 184.189 71.094 184.084C71.0798 183.98 71.0452 183.88 70.9922 183.789C65.8711 174.506 64.2046 171.545 63.7004 170.696C63.2162 169.882 62.3512 169.753 61.9904 170.662C61.6295 171.57 60.701 174.448 57.4913 183.98C57.1612 184.959 58.7063 185.378 59.0345 184.406L62.9497 172.783C64.5999 175.712 69.0174 183.612 69.6104 184.596Z" fill="black"/>
<path d="M168.534 48.6854C164.539 39.1944 157.873 31.0674 149.348 25.2914C129.529 13.4693 107.538 18.6015 85.648 26.0477C85.3286 26.127 85.0181 26.2388 84.7214 26.3813C84.5147 26.2979 82.8717 25.7194 80.5723 24.7837C77.5513 23.5167 74.4259 22.5149 71.2313 21.7896C70.385 21.5826 69.5036 21.5633 68.6489 21.7331C67.7943 21.9029 66.9873 22.2577 66.2843 22.7725C65.5721 23.4955 65.1093 24.4271 64.9635 25.4315C64.8177 26.4358 64.9964 27.4605 65.4737 28.3562C66.6595 30.3235 68.4607 31.8449 70.5984 32.685C73.0965 33.8653 75.6884 34.8358 78.3472 35.5866C74.6866 37.144 71.1494 38.9766 67.7659 41.0688C66.5633 41.7396 65.4695 42.5889 64.5217 43.5877C61.5132 46.881 63.0909 51.6523 67.1783 51.4873C71.2231 51.3048 75.195 50.3449 78.8767 48.6601C77.702 52.6267 77.179 56.7578 77.3281 60.892C73.4074 62.0563 68.9664 64.6115 67.2509 68.2493C67.1294 68.5105 67.0079 69.1017 66.7504 69.225C66.4928 69.3483 65.8092 69.147 65.5263 69.1307C58.8601 68.7444 54.2613 73.8621 55.2315 79.4676C53.5206 79.9366 52.012 80.9564 50.9391 82.3692C49.9671 83.592 49.2293 84.984 48.763 86.4749C45.6127 86.5975 42.4714 86.8918 39.3531 87.3563C33.9205 87.9036 28.587 89.1847 23.4984 91.1646C13.7603 95.1234 8.04437 103.471 7.7651 110.177C7.70707 110.386 8.02261 124.672 7.7651 162.378C7.7651 163.273 8.7788 163.245 8.96377 163.262C12.6904 163.564 30.7085 163.784 116.62 163.178C116.831 163.176 117.033 163.091 117.182 162.941C117.332 162.792 117.417 162.59 117.419 162.378C117.419 150.689 117.845 121.426 117.851 118.481C130.946 116.399 143.699 112.847 154.069 104.746C162.319 98.3009 168.21 89.3111 170.826 79.1735C173.442 69.0359 172.636 58.3181 168.534 48.6854ZM56.2398 80.9655C56.3459 80.9651 56.4508 80.9436 56.5486 80.9023C56.6464 80.861 56.735 80.8008 56.8093 80.7251C56.8837 80.6494 56.9423 80.5597 56.9818 80.4612C57.0213 80.3627 57.0409 80.2574 57.0395 80.1513C56.7105 79.1017 56.6279 77.9905 56.798 76.9039C56.9682 75.8172 57.3865 74.7844 58.0205 73.8857C58.8971 72.786 60.0335 71.9216 61.3273 71.3704C62.6211 70.8193 64.0317 70.5986 65.432 70.7284C66.01 70.8302 66.6002 70.8424 67.1819 70.7647C68.3099 70.4654 68.484 69.1652 69.0353 68.3019C71.1708 65.4559 74.1984 63.4077 77.6345 62.4843C78.6736 65.9099 82.2714 67.4224 84.9698 65.1483C87.4849 71.0359 88.7301 77.3877 88.6239 83.7891C83.9706 84.2788 79.9086 84.6034 77.1195 84.8192L75.8683 81.0417C75.5499 79.744 75.0127 78.5101 74.2797 77.393C73.9365 76.8902 73.484 76.4716 72.9561 76.1686C72.4282 75.8655 71.8385 75.6858 71.2313 75.6429C68.5366 75.6429 67.3669 78.452 67.5573 81.0635C67.5573 82.536 67.5773 84.0086 67.6099 85.4793C64.781 85.6606 53.3564 86.2392 50.4767 86.386C51.3435 83.9251 53.6919 80.9456 56.2398 80.9655ZM98.07 58.4076C98.9845 58.9259 100.057 59.0927 101.085 58.8767C102.114 58.6607 103.028 58.0766 103.657 57.2342C105.135 55.2031 104.49 52.5754 104.036 50.3067C103.619 48.2248 103.206 46.1423 102.796 44.0592C108.409 43.7205 114.031 44.5644 119.298 46.5364C122.331 47.5272 125.057 49.2824 127.214 51.6329C129.371 53.9834 130.887 56.8499 131.615 59.9563C133.78 69.1652 128.351 73.2074 128.109 73.6064C128.138 73.5609 128.172 73.5184 128.209 73.4795C122.384 79.1285 104.161 82.0826 90.2668 83.615C90.3423 76.8151 88.9318 70.0807 86.1341 63.8825C88.4262 60.6508 87.5848 54.135 92.7077 47.9002C94.3797 52.3958 94.5338 56.7337 98.07 58.4076ZM93.9354 46.667C94.8311 45.8524 95.8928 45.2417 97.0472 44.8771C98.3999 44.4961 99.7887 44.2572 101.191 44.1644L102.226 49.3782C102.849 51.2547 103.057 53.2439 102.836 55.2086C102.757 55.6358 102.576 56.0375 102.307 56.3785C102.038 56.7196 101.689 56.9897 101.292 57.1653C100.895 57.3408 100.461 57.4166 100.027 57.386C99.5941 57.3553 99.1749 57.2192 98.8063 56.9894C97.9973 56.4757 97.307 55.7957 96.7811 54.9947C96.2552 54.1936 95.9058 53.2898 95.7561 52.3433C95.2592 50.4176 94.6513 48.5224 93.9354 46.667ZM87.8985 100.783C92.302 99.0699 96.9334 98.0129 101.644 97.646C102.194 97.4759 102.788 97.5195 103.308 97.768C103.827 98.0164 104.234 98.4516 104.447 98.9866C104.66 99.5217 104.663 100.117 104.456 100.655C104.249 101.192 103.847 101.632 103.331 101.886C102.417 102.576 101.417 103.145 100.357 103.578C90.3829 107.787 91.587 106.273 91.1083 108.687C88.6964 120.969 85.3924 138.972 80.8624 149.523C79.6365 152.537 77.0996 156.949 73.8209 157.718C71.4399 158.271 66.1809 157.089 63.4844 156.258C54.1815 153.447 45.2141 148.255 37.0519 142.985L54.2994 115.166C57.2625 116.624 60.1972 118.135 63.1036 119.7C63.2099 119.76 63.3283 119.795 63.45 119.802C63.5718 119.81 63.6936 119.79 63.8066 119.744C63.9195 119.698 64.0206 119.627 64.1024 119.536C64.1841 119.446 64.2444 119.338 64.2787 119.221C65.9361 114.18 67.6861 110.895 68.8122 105.801C69.1876 103.834 66.1646 101.587 64.509 100.451C62.9585 99.3888 60.5194 97.2652 61.7653 95.1053C61.8849 94.8896 62.0478 94.7009 62.2437 94.5511C62.4397 94.4013 62.6645 94.2936 62.9041 94.2348C63.5416 94.2216 64.1668 94.4122 64.6885 94.7789C65.9579 95.4281 67.2962 96.0356 68.5184 96.7646C68.6403 96.8342 68.7782 96.8706 68.9184 96.8705C69.0587 96.8703 69.1965 96.8335 69.3182 96.7637C69.4398 96.6938 69.5411 96.5935 69.6121 96.4724C69.683 96.3514 69.7211 96.214 69.7226 96.0737C69.3943 91.7322 68.9972 83.0474 69.1894 79.8593C69.1795 79.3531 69.3046 78.8534 69.552 78.4116C69.7993 77.9698 70.1599 77.6019 70.5966 77.3458C71.5777 76.9505 72.6077 77.7466 73.1173 78.5246C73.8427 79.814 73.3675 78.5717 78.6555 94.5667C78.8006 95.0001 79.3972 95.3791 79.8324 95.0436C83.0784 92.5501 87.913 88.6257 92.1492 86.9428C93.9826 86.2845 96.6737 86.2174 96.8314 88.7563C97.098 92.9926 90.2632 96.9496 87.1169 99.4559C86.504 99.9364 87.1713 101.066 87.8985 100.783ZM9.36091 111.251C9.36091 104.599 13.8782 98.7957 19.2205 95.2486C23.6659 92.4968 28.6139 90.6561 33.7769 89.8335C44.38 87.7915 48.4511 88.2703 67.6589 87.0697C67.7363 89.6086 67.8626 92.1415 68.0379 94.6682C67.2599 94.2657 66.4675 93.883 65.6986 93.4877C65.1781 93.1125 64.5802 92.8588 63.9488 92.7452C63.3174 92.6316 62.6685 92.661 62.05 92.8312C61.5364 93.0914 61.0846 93.4584 60.7246 93.9077C60.3647 94.357 60.1051 94.8781 59.9632 95.4361C59.8213 95.994 59.8005 96.5758 59.902 97.1425C60.0036 97.7091 60.2252 98.2475 60.5521 98.7214C62.2259 101.634 67.6915 103.609 67.1602 105.885C66.2843 109.693 64.4401 113.898 63.0637 117.872C55.6256 113.872 47.9885 110.254 40.1819 107.033C39.9773 106.977 39.7591 107.005 39.5748 107.11C39.3905 107.214 39.2548 107.387 39.1972 107.591C39.1453 107.796 39.1745 108.012 39.2786 108.196C39.3826 108.379 39.5536 108.515 39.7557 108.576C44.1805 110.408 48.5478 112.37 52.8577 114.464L35.7154 142.113C30.9425 138.983 26.2203 135.708 21.7792 132.122C7.59283 120.668 9.5477 111.733 9.36091 111.251ZM116.844 117.041C116.676 117.088 116.527 117.189 116.421 117.328C116.315 117.467 116.257 117.637 116.257 117.812C116.257 129.502 115.831 158.681 115.827 161.582H9.37905V119.428C12.7937 127.521 19.4526 132.568 26.6302 137.769C38.0112 146.021 57.7594 158.781 71.8878 159.424C76.8384 159.787 79.6601 155.81 81.7982 151.345C84.203 145.93 86.0472 140.283 87.3019 134.492C89.3619 126.129 91.0593 117.339 92.8365 108.28C99.3231 105.547 107.016 103.893 106.14 99.0152C105.938 98.3156 105.547 97.6851 105.011 97.1925C104.474 96.7 103.813 96.3644 103.099 96.2224C101.361 95.9304 99.5819 96.0033 97.8742 96.4364C90.9614 97.5372 91.2751 98.6851 94.0098 96.217C96.0716 94.3581 98.2949 92.0967 98.4563 89.1444C98.5024 88.4694 98.3785 87.7937 98.0959 87.1791C97.8133 86.5644 97.3811 86.0305 96.8387 85.6262C93.7559 83.7383 89.8661 86.0614 86.7778 88.0055C84.3623 89.5288 82.1119 91.2897 79.8542 93.0343L77.6527 86.386C89.498 85.4521 119.691 82.8244 128.697 75.1878L152.366 104.04C141.978 111.744 129.517 115.068 116.844 117.041ZM129.83 74.0616C131.381 72.4317 132.522 70.4575 133.161 68.3009C133.801 66.1443 133.919 63.8669 133.508 61.6555C132.079 50.323 123.135 44.6776 111.981 42.9512C106.839 42.0662 101.572 42.2086 96.4851 43.3701C92.5971 44.5489 89.5941 48.7326 88.2104 52.3614C85.4341 59.7967 86.5022 61.0008 84.3496 63.5524C83.9716 64.0076 83.4635 64.3363 82.8933 64.4945C82.3232 64.6526 81.7183 64.6327 81.1598 64.4374C78.5848 63.3239 78.7389 59.8783 78.9021 57.5752C79.1559 54.1096 79.8306 50.6877 80.9114 47.3852C80.9493 47.2324 80.9419 47.0719 80.8901 46.9233C80.8383 46.7747 80.7444 46.6443 80.6198 46.5482C80.4952 46.452 80.3453 46.3942 80.1884 46.3818C80.0315 46.3695 79.8744 46.403 79.7363 46.4784C76.3483 48.2084 72.6804 49.3241 68.9029 49.7735C67.7628 50.0665 66.5564 49.9563 65.4882 49.4616C65.1755 49.1195 64.9354 48.7175 64.7824 48.2799C64.6295 47.8423 64.5669 47.3783 64.5984 46.9158C64.63 46.4534 64.7549 46.0021 64.9659 45.5894C65.1768 45.1766 65.4692 44.8109 65.8255 44.5144C66.6754 43.6932 67.6238 42.9805 68.649 42.3926C72.5581 39.952 76.6931 37.8933 80.9966 36.2449C81.1609 36.1933 81.3044 36.0907 81.4062 35.9519C81.5081 35.8131 81.563 35.6454 81.563 35.4733C81.563 35.3011 81.5081 35.1334 81.4062 34.9947C81.3044 34.8559 81.1609 34.7532 80.9966 34.7016C78.7824 34.0923 76.6045 33.356 74.4393 32.5907C72.3251 31.8968 70.3323 30.8768 68.533 29.5676C67.7244 29.068 67.1124 28.3054 66.7997 27.4078C66.487 26.5103 66.4926 25.5325 66.8156 24.6386C67.0811 24.2123 67.4509 23.8608 67.8901 23.6174C68.3292 23.374 68.8233 23.2468 69.3254 23.2476C69.786 23.2068 70.2501 23.2269 70.7054 23.3075C76.92 24.6059 81.7945 27.1811 84.4657 27.9736C84.9946 27.987 85.5178 27.862 85.9835 27.6109C95.9729 23.9298 106.359 21.4313 116.93 20.1665C126.783 18.9752 136.771 20.6765 145.674 25.0629C155.412 29.9866 162.994 39.7196 167.152 49.4779C171.026 58.6657 171.799 68.8654 169.357 78.5324C166.914 88.1994 161.388 96.8071 153.615 103.052L129.83 74.0616Z" fill="black"/>
<path d="M182.055 79.3052C182.253 79.3538 182.462 79.3245 182.639 79.2232C182.816 79.122 182.948 78.9566 183.007 78.7612C185.61 69.2767 185.027 59.2 181.347 50.079C181.286 49.8774 181.15 49.707 180.967 49.603C180.783 49.4991 180.567 49.4695 180.363 49.5205C180.261 49.5482 180.166 49.5956 180.083 49.6602C180 49.7247 179.93 49.805 179.878 49.8965C179.826 49.988 179.793 50.0888 179.78 50.1933C179.767 50.2977 179.774 50.4037 179.802 50.5052C183.357 59.3567 183.94 69.1238 181.462 78.335C181.436 78.4377 181.432 78.5443 181.448 78.6488C181.464 78.7534 181.501 78.8536 181.556 78.9438C181.611 79.0341 181.683 79.1125 181.769 79.1745C181.855 79.2365 181.952 79.2809 182.055 79.3052Z" fill="black"/>
<path d="M165.589 70.5449C165.791 70.5372 165.984 70.4531 166.127 70.3094C166.27 70.1657 166.353 69.9732 166.36 69.7706V62.5855C166.352 62.373 166.26 62.1724 166.104 62.0276C165.948 61.8828 165.741 61.8056 165.529 61.813C165.326 61.8185 165.133 61.9016 164.989 62.0453C164.845 62.189 164.762 62.3824 164.756 62.5855C164.717 64.9805 164.717 67.3756 164.756 69.7706C164.759 69.8764 164.783 69.9806 164.827 70.0771C164.87 70.1736 164.933 70.2604 165.01 70.3325C165.088 70.4046 165.179 70.4606 165.278 70.497C165.377 70.5335 165.483 70.5498 165.589 70.5449Z" fill="black"/>
<path d="M88.5127 42.2061L85.04 43.5499C84.0897 43.9126 84.4959 45.4668 85.4661 45.095L88.9388 43.7494C89.8891 43.3813 89.4756 41.8326 88.5127 42.2061Z" fill="black"/>
<path d="M89.1888 33.8125L85.114 34.2949C84.9032 34.2995 84.7023 34.3852 84.553 34.5341C84.4037 34.6831 84.3176 34.8838 84.3125 35.0946C84.3123 35.2 84.3328 35.3043 84.373 35.4017C84.4132 35.499 84.4723 35.5875 84.5467 35.662C84.6212 35.7364 84.7097 35.7955 84.807 35.8357C84.9044 35.8759 85.0087 35.8964 85.114 35.8962L89.1888 35.4084C89.3995 35.4033 89.6002 35.3175 89.7494 35.1686C89.8985 35.0198 89.9848 34.8193 89.9903 34.6086C89.9889 34.397 89.9038 34.1945 89.7537 34.0453C89.6035 33.8962 89.4004 33.8125 89.1888 33.8125Z" fill="black"/>
<path d="M77.2732 98.2409C77.0753 98.1933 76.8667 98.2231 76.6901 98.3242C76.5134 98.4253 76.3821 98.5902 76.323 98.785C76.0328 99.8332 75.7245 100.874 75.4543 101.926C75.4027 102.129 75.4328 102.345 75.5382 102.526C75.6436 102.707 75.8159 102.84 76.0181 102.896C76.2203 102.952 76.4363 102.926 76.6197 102.824C76.8032 102.723 76.9395 102.553 76.9994 102.352C77.3065 101.309 77.5954 100.262 77.8662 99.2111C77.8923 99.1084 77.8976 99.0016 77.8818 98.8968C77.866 98.792 77.8294 98.6915 77.7742 98.6011C77.7189 98.5106 77.6461 98.4322 77.5601 98.3704C77.4741 98.3085 77.3765 98.2645 77.2732 98.2409Z" fill="black"/>
<path d="M84.1431 102.31C83.7369 103.107 83.1493 103.797 82.4276 104.325C81.5989 104.92 82.3968 106.311 83.2346 105.707C84.1906 105.035 84.9757 104.149 85.5268 103.119C86.0055 102.209 84.6237 101.398 84.1431 102.31Z" fill="black"/>
<path d="M74.0497 152.288L69.1897 153.722C68.9947 153.787 68.8319 153.924 68.7351 154.106C68.6383 154.287 68.6148 154.498 68.6695 154.696C68.7242 154.895 68.8529 155.064 69.0291 155.17C69.2052 155.276 69.4152 155.31 69.6159 155.266C71.2479 154.83 72.8546 154.31 74.474 153.833C74.6729 153.771 74.84 153.635 74.9401 153.452C75.0401 153.27 75.0652 153.056 75.0101 152.855C74.955 152.654 74.8239 152.483 74.6447 152.377C74.4654 152.271 74.2521 152.239 74.0497 152.288Z" fill="black"/>
<rect x="47" y="20" width="10" height="32" fill="#FFD748"/>
<rect x="31" y="31" width="8" height="21" fill="#FFD748"/>
<rect x="18" y="36" width="8" height="16" fill="#FFD748"/>
<path d="M17.5347 35.0078C17.3792 35.0111 17.231 35.0744 17.1211 35.1846C17.0112 35.2947 16.9482 35.4431 16.9453 35.5987V51.6095C16.9471 51.7654 17.0098 51.9144 17.1199 52.0248C17.23 52.1351 17.3789 52.1981 17.5347 52.2003H25.4041C25.5602 52.1981 25.7092 52.1352 25.8195 52.0249C25.9298 51.9145 25.9928 51.7655 25.995 51.6095V35.5987C25.9928 35.4426 25.9298 35.2936 25.8195 35.1833C25.7092 35.073 25.5602 35.01 25.4041 35.0078H17.5347ZM24.8147 51.0187H18.1256V36.1838H24.8147V51.0187Z" fill="black"/>
<path d="M30.7379 30.2333C30.5822 30.2362 30.4338 30.2994 30.3238 30.4097C30.2139 30.5199 30.151 30.6685 30.1484 30.8241V51.6127C30.1503 51.7686 30.2129 51.9176 30.323 52.028C30.4331 52.1384 30.582 52.2014 30.7379 52.2036H38.8892C39.0453 52.2014 39.1943 52.1384 39.3046 52.0281C39.4149 51.9178 39.4779 51.7688 39.4801 51.6127V30.8213C39.4775 30.6654 39.4145 30.5166 39.3042 30.4063C39.1939 30.2961 39.0451 30.233 38.8892 30.2305L30.7379 30.2333ZM38.2984 51.0261H31.3287V31.4107H38.2984V51.0261Z" fill="black"/>
<path d="M46.7627 19.5625C46.607 19.5658 46.4586 19.6291 46.3485 19.7392C46.2384 19.8493 46.1751 19.9977 46.1719 20.1533V51.6253C46.1741 51.7813 46.237 51.9303 46.3474 52.0406C46.4577 52.151 46.6067 52.2139 46.7627 52.2161H56.8807C57.0367 52.2139 57.1858 52.151 57.2961 52.0406C57.4064 51.9303 57.4694 51.7813 57.4716 51.6253V20.1533C57.469 19.9974 57.406 19.8486 57.2957 19.7384C57.1854 19.6281 57.0366 19.5651 56.8807 19.5625H46.7627ZM56.2899 51.0359H47.3521V20.7428H56.2899V51.0359Z" fill="black"/>
<path d="M59.4659 5.08032C54.8219 7.17514 50.0066 8.86745 45.0731 10.1386C44.9359 10.1912 44.8231 10.293 44.7569 10.4243C44.6907 10.5555 44.6758 10.7067 44.7151 10.8484C44.7544 10.99 44.8451 11.1119 44.9695 11.1902C45.0938 11.2686 45.243 11.2978 45.3877 11.2721C48.4293 10.473 51.4265 9.52368 54.3793 8.42418C38.4281 17.4672 21.7032 25.0715 4.40274 31.1468C3.6943 31.3962 3.99751 32.5368 4.71588 32.2803C18.6001 27.401 32.1229 21.5484 45.1836 14.7662C49.8069 12.3575 52.6393 10.7195 54.8426 9.52368C52.7881 11.5172 50.7024 13.4768 48.4793 15.2734C47.8885 15.7509 48.7287 16.5826 49.3153 16.108C53.2401 12.9356 56.8744 9.14821 60.0397 6.10331C60.2806 5.88228 60.3954 4.68217 59.4659 5.08032Z" fill="black"/>
<path d="M91.5777 85.5621L80.317 74.683C86.7626 62.384 102.172 54.0521 109.072 51.4236C112.718 55.6075 115.816 63.4989 116.91 66.9216C108.127 68.7843 96.3624 80.1247 91.5777 85.5621Z" fill="#B4DD7F" stroke="black" stroke-linejoin="round"/>
<path d="M94.5269 68.1319C95.9396 69.1146 97.5735 68.3525 98.9278 67.6396C99.6019 68.2458 100.24 68.8913 100.838 69.5727C100.007 70.2353 99.0435 70.7115 98.0126 70.9689C97.1235 71.1963 97.5886 72.5459 98.4744 72.3157C99.653 72.0047 100.753 71.4498 101.704 70.6868C101.75 70.7697 101.813 70.8424 101.888 70.9008C101.963 70.9591 102.049 71.0019 102.141 71.0267C102.233 71.0514 102.329 71.0576 102.423 71.0449C102.517 71.0321 102.608 71.0008 102.69 70.9525C102.772 70.9043 102.843 70.8403 102.9 70.7641C102.957 70.6879 102.998 70.6011 103.021 70.5089C103.044 70.4166 103.048 70.3207 103.034 70.2267C103.019 70.1327 102.986 70.0426 102.937 69.9616C102.876 69.8691 102.8 69.7866 102.737 69.6958C103.605 68.6599 104.078 67.2846 102.929 66.2078C102.395 65.7868 101.746 65.5379 101.068 65.4939C100.389 65.45 99.7138 65.6131 99.1302 65.9616C98.4829 65.375 97.7754 64.7294 97.1253 64.0466C97.6877 63.6236 98.2976 63.2676 98.9426 62.9859C99.7854 62.6285 99.3313 61.2812 98.4808 61.6391C97.6613 61.9878 96.8868 62.434 96.1743 62.9683C95.9845 62.7281 95.8032 62.4814 95.6306 62.2285C95.5234 62.076 95.3606 61.9714 95.1773 61.9373C94.9939 61.9032 94.8045 61.9422 94.6495 62.046C94.4946 62.1498 94.3864 62.3101 94.3481 62.4926C94.3099 62.6752 94.3446 62.8654 94.4448 63.0227C94.6485 63.328 94.8715 63.6245 95.1109 63.9138C94.3588 64.5238 93.8428 65.3768 93.6518 66.3261C93.6222 66.678 93.6879 67.0313 93.8418 67.349C93.9958 67.6667 94.2324 67.9371 94.5269 68.1319ZM102.124 68.1061C102.048 68.2753 101.952 68.435 101.839 68.5821C101.348 68.035 100.831 67.511 100.292 67.0117C101.416 66.6095 102.474 67.2946 102.124 68.1061ZM95.1175 66.2329C95.329 65.7421 95.6413 65.3012 96.0342 64.9388C96.6087 65.5346 97.2194 66.0975 97.8082 66.6282C96.0754 67.6455 94.8249 67.0638 95.1175 66.2329Z" fill="black"/>
<g clip-path="url(#clip1_4468_766)">
<path fill-rule="evenodd" clip-rule="evenodd" d="M142.47 161.657C142.191 161.657 141.948 161.464 141.884 161.186C140.577 155.207 138.662 146.571 137.684 141.779C137.084 138.807 136.984 138.129 136.962 137.871C136.834 136.386 133.855 136.2 133.677 136.186H126.584C125.805 136.186 125.805 135 126.584 135H133.691C133.862 135 137.927 135.171 138.148 137.771C138.17 138.014 138.305 138.857 138.848 141.543C139.82 146.321 141.741 154.957 143.048 160.936C143.134 161.307 142.841 161.657 142.47 161.657Z" fill="#000002"/>
<path fill-rule="evenodd" clip-rule="evenodd" d="M167.455 161.659H142.476C141.69 161.659 141.69 160.474 142.476 160.474H167.076L175.269 142.259H138.269C137.483 142.259 137.483 141.066 138.269 141.066H176.19C176.619 141.066 176.905 141.516 176.733 141.909L167.998 161.309C167.905 161.524 167.69 161.659 167.455 161.659Z" fill="#000002"/>
<path fill-rule="evenodd" clip-rule="evenodd" d="M143.17 173.8C140.406 173.8 138.148 171.543 138.148 168.779C138.148 166.007 140.406 163.75 143.17 163.75C145.941 163.75 148.198 166.007 148.198 168.779C148.198 171.543 145.941 173.8 143.17 173.8ZM143.17 164.943C141.063 164.943 139.341 166.664 139.341 168.779C139.341 170.886 141.063 172.607 143.17 172.607C145.284 172.607 147.006 170.886 147.006 168.779C147.006 166.664 145.284 164.943 143.17 164.943Z" fill="#000002"/>
<path fill-rule="evenodd" clip-rule="evenodd" d="M166.037 173.965C163.273 173.965 161.016 171.715 161.016 168.943C161.016 166.172 163.273 163.922 166.037 163.922C168.808 163.922 171.066 166.172 171.066 168.943C171.066 171.715 168.808 173.965 166.037 173.965ZM166.037 165.115C163.93 165.115 162.208 166.829 162.208 168.943C162.208 171.058 163.93 172.779 166.037 172.779C168.151 172.779 169.873 171.058 169.873 168.943C169.873 166.829 168.151 165.115 166.037 165.115Z" fill="#000002"/>
<path fill-rule="evenodd" clip-rule="evenodd" d="M161.611 169.373H147.597C146.811 169.373 146.811 168.18 147.597 168.18H161.611C162.39 168.18 162.39 169.373 161.611 169.373Z" fill="#000002"/>
<path fill-rule="evenodd" clip-rule="evenodd" d="M145.929 158.077C145.6 158.077 145.336 157.806 145.336 157.477V144.785C145.336 143.999 146.522 143.999 146.522 144.785V157.477C146.522 157.806 146.257 158.077 145.929 158.077Z" fill="#000002"/>
<path fill-rule="evenodd" clip-rule="evenodd" d="M154.991 158.077C154.662 158.077 154.391 157.806 154.391 157.477V155.406C154.391 154.62 155.583 154.62 155.583 155.406V157.477C155.583 157.806 155.319 158.077 154.991 158.077ZM154.991 147.449C154.662 147.449 154.391 147.185 154.391 146.856V144.785C154.391 143.999 155.583 143.999 155.583 144.785V146.856C155.583 147.185 155.319 147.449 154.991 147.449Z" fill="#000002"/>
<path fill-rule="evenodd" clip-rule="evenodd" d="M164.046 158.077C163.717 158.077 163.453 157.806 163.453 157.477V144.785C163.453 143.999 164.639 143.999 164.639 144.785V157.477C164.639 157.806 164.375 158.077 164.046 158.077Z" fill="#000002"/>
<path fill-rule="evenodd" clip-rule="evenodd" d="M154.996 156.001C152.311 156.001 150.125 153.816 150.125 151.13C150.125 148.444 152.311 146.266 154.996 146.266C157.682 146.266 159.861 148.444 159.861 151.13C159.861 153.816 157.682 156.001 154.996 156.001ZM154.996 147.451C152.961 147.451 151.311 149.101 151.311 151.13C151.311 153.166 152.961 154.816 154.996 154.816C157.025 154.816 158.675 153.166 158.675 151.13C158.675 149.101 157.025 147.451 154.996 147.451Z" fill="#000002"/>
<path fill-rule="evenodd" clip-rule="evenodd" d="M153.86 153.221C153.653 153.221 153.453 153.106 153.346 152.921L152.432 151.335C152.039 150.656 153.067 150.056 153.46 150.735L153.989 151.656L156.396 149.249C156.946 148.699 157.789 149.542 157.239 150.092L154.282 153.049C154.167 153.156 154.017 153.221 153.86 153.221Z" fill="#000002"/>
<path fill-rule="evenodd" clip-rule="evenodd" d="M152.433 151.335C152.04 150.656 153.069 150.056 153.462 150.735L153.99 151.656L156.398 149.249C156.948 148.699 157.79 149.542 157.24 150.092L154.283 153.049C154.169 153.156 154.019 153.221 153.862 153.221C153.655 153.221 153.455 153.106 153.348 152.921L152.433 151.335ZM151.305 151.128C151.305 153.163 152.955 154.813 154.99 154.813C157.019 154.813 158.669 153.163 158.669 151.128C158.669 149.099 157.019 147.449 154.99 147.449C152.955 147.449 151.305 149.099 151.305 151.128Z" fill="#03C13D" stroke="#03C13D" stroke-width="0.0295317"/>
<path fill-rule="evenodd" clip-rule="evenodd" d="M147.008 168.777C147.008 166.663 145.287 164.941 143.172 164.941C141.065 164.941 139.344 166.663 139.344 168.777C139.344 170.884 141.065 172.606 143.172 172.606C145.287 172.606 147.008 170.884 147.008 168.777Z" fill="#333333"/>
<path fill-rule="evenodd" clip-rule="evenodd" d="M166.032 165.113C163.925 165.113 162.203 166.828 162.203 168.942C162.203 171.056 163.925 172.778 166.032 172.778C168.146 172.778 169.867 171.056 169.867 168.942C169.867 166.828 168.146 165.113 166.032 165.113Z" fill="#333333"/>
<path fill-rule="evenodd" clip-rule="evenodd" d="M142.942 160.472H167.071L175.264 142.258H138.992C139.971 147.015 141.706 154.815 142.942 160.472ZM164.042 158.079C163.714 158.079 163.449 157.808 163.449 157.479V144.786C163.449 144.001 164.635 144.001 164.635 144.786V157.479C164.635 157.808 164.371 158.079 164.042 158.079ZM159.849 151.129C159.849 153.615 157.985 155.672 155.578 155.965V157.479C155.578 157.808 155.314 158.079 154.985 158.079C154.656 158.079 154.385 157.808 154.385 157.479V155.965C151.978 155.672 150.114 153.615 150.114 151.129C150.114 148.651 151.978 146.594 154.385 146.301V144.786C154.385 144.001 155.578 144.001 155.578 144.786V146.301C157.985 146.594 159.849 148.651 159.849 151.129ZM146.514 157.479C146.514 157.808 146.249 158.079 145.921 158.079C145.592 158.079 145.328 157.808 145.328 157.479V144.786C145.328 144.001 146.514 144.001 146.514 144.786V157.479Z" fill="#FFD727"/>
</g>
</g>
<defs>
<clipPath id="clip0_4468_766">
<rect width="185" height="186" fill="white" transform="translate(0.5)"/>
</clipPath>
<clipPath id="clip1_4468_766">
<rect width="50.7928" height="50.7928" fill="white" transform="translate(128 127)"/>
</clipPath>
</defs>
</svg>
