<svg width="91" height="90" viewBox="0 0 91 90" fill="none" xmlns="http://www.w3.org/2000/svg">
<rect x="0.65625" width="90" height="90" rx="45" fill="#1A55DA"/>
<path d="M40.9436 53.3324C39.5402 53.3324 38.3357 52.9773 37.33 52.267C36.33 51.5511 35.5601 50.5199 35.0203 49.1733C34.4862 47.821 34.2192 46.1932 34.2192 44.2898C34.2249 42.3864 34.4948 40.767 35.0288 39.4318C35.5686 38.0909 36.3385 37.0682 37.3385 36.3636C38.3442 35.6591 39.5459 35.3068 40.9436 35.3068C42.3414 35.3068 43.5431 35.6591 44.5487 36.3636C45.5544 37.0682 46.3243 38.0909 46.8584 39.4318C47.3982 40.7727 47.6681 42.392 47.6681 44.2898C47.6681 46.1989 47.3982 47.8295 46.8584 49.1818C46.3243 50.5284 45.5544 51.5568 44.5487 52.267C43.5487 52.9773 42.347 53.3324 40.9436 53.3324ZM40.9436 50.6648C42.0345 50.6648 42.8953 50.1278 43.526 49.054C44.1624 47.9744 44.4806 46.3864 44.4806 44.2898C44.4806 42.9034 44.3357 41.7386 44.0459 40.7955C43.7561 39.8523 43.347 39.142 42.8186 38.6648C42.2902 38.1818 41.6652 37.9403 40.9436 37.9403C39.8584 37.9403 39.0004 38.4801 38.3698 39.5597C37.7391 40.6335 37.4209 42.2102 37.4152 44.2898C37.4095 45.6818 37.5487 46.8523 37.8328 47.8011C38.1226 48.75 38.5317 49.4659 39.0601 49.9489C39.5885 50.4261 40.2163 50.6648 40.9436 50.6648ZM56.5992 35.5455V53H53.4372V38.6222H53.335L49.2526 41.2301V38.3324L53.5906 35.5455H56.5992Z" fill="white"/>
</svg>
