<svg width="91" height="90" viewBox="0 0 91 90" fill="none" xmlns="http://www.w3.org/2000/svg">
<rect x="0.976562" width="90" height="90" rx="45" fill="#F76557"/>
<path d="M39.5577 53.3324C38.1543 53.3324 36.9497 52.9773 35.944 52.267C34.944 51.5511 34.1742 50.5199 33.6344 49.1733C33.1003 47.821 32.8333 46.1932 32.8333 44.2898C32.8389 42.3864 33.1088 40.767 33.6429 39.4318C34.1827 38.0909 34.9526 37.0682 35.9526 36.3636C36.9583 35.6591 38.16 35.3068 39.5577 35.3068C40.9554 35.3068 42.1571 35.6591 43.1628 36.3636C44.1685 37.0682 44.9384 38.0909 45.4725 39.4318C46.0122 40.7727 46.2821 42.392 46.2821 44.2898C46.2821 46.1989 46.0122 47.8295 45.4725 49.1818C44.9384 50.5284 44.1685 51.5568 43.1628 52.267C42.1628 52.9773 40.9611 53.3324 39.5577 53.3324ZM39.5577 50.6648C40.6486 50.6648 41.5094 50.1278 42.1401 49.054C42.7764 47.9744 43.0946 46.3864 43.0946 44.2898C43.0946 42.9034 42.9497 41.7386 42.66 40.7955C42.3702 39.8523 41.9611 39.142 41.4327 38.6648C40.9043 38.1818 40.2793 37.9403 39.5577 37.9403C38.4725 37.9403 37.6145 38.4801 36.9838 39.5597C36.3531 40.6335 36.035 42.2102 36.0293 44.2898C36.0236 45.6818 36.1628 46.8523 36.4469 47.8011C36.7367 48.75 37.1458 49.4659 37.6742 49.9489C38.2026 50.4261 38.8304 50.6648 39.5577 50.6648ZM48.1138 53V50.7159L54.1735 44.7756C54.753 44.1903 55.236 43.6705 55.6223 43.2159C56.0087 42.7614 56.2985 42.321 56.4916 41.8949C56.6848 41.4687 56.7814 41.0142 56.7814 40.5312C56.7814 39.9801 56.6564 39.5085 56.4064 39.1165C56.1564 38.7188 55.8127 38.4119 55.3752 38.196C54.9377 37.9801 54.4405 37.8722 53.8837 37.8722C53.3098 37.8722 52.807 37.9915 52.3752 38.2301C51.9433 38.4631 51.6081 38.7955 51.3695 39.2273C51.1365 39.6591 51.02 40.1733 51.02 40.7699H48.0115C48.0115 39.6619 48.2644 38.6989 48.77 37.8807C49.2757 37.0625 49.9717 36.429 50.8581 35.9801C51.7502 35.5312 52.7729 35.3068 53.9263 35.3068C55.0967 35.3068 56.1252 35.5256 57.0115 35.9631C57.8979 36.4006 58.5854 37 59.074 37.7614C59.5683 38.5227 59.8155 39.392 59.8155 40.3693C59.8155 41.0227 59.6905 41.6648 59.4405 42.2955C59.1905 42.9261 58.7502 43.625 58.1195 44.392C57.4945 45.1591 56.6166 46.0881 55.486 47.179L52.4774 50.2386V50.358H60.0797V53H48.1138Z" fill="white"/>
</svg>
