<svg width="91" height="90" viewBox="0 0 91 90" fill="none" xmlns="http://www.w3.org/2000/svg">
<rect x="0.304688" width="90" height="90" rx="45" fill="#FFD748"/>
<path d="M38.5369 53.3324C37.1335 53.3324 35.9289 52.9773 34.9233 52.267C33.9233 51.5511 33.1534 50.5199 32.6136 49.1733C32.0795 47.821 31.8125 46.1932 31.8125 44.2898C31.8182 42.3864 32.088 40.767 32.6221 39.4318C33.1619 38.0909 33.9318 37.0682 34.9318 36.3636C35.9375 35.6591 37.1392 35.3068 38.5369 35.3068C39.9346 35.3068 41.1363 35.6591 42.142 36.3636C43.1477 37.0682 43.9176 38.0909 44.4517 39.4318C44.9914 40.7727 45.2613 42.392 45.2613 44.2898C45.2613 46.1989 44.9914 47.8295 44.4517 49.1818C43.9176 50.5284 43.1477 51.5568 42.142 52.267C41.142 52.9773 39.9403 53.3324 38.5369 53.3324ZM38.5369 50.6648C39.6278 50.6648 40.4886 50.1278 41.1193 49.054C41.7557 47.9744 42.0738 46.3864 42.0738 44.2898C42.0738 42.9034 41.9289 41.7386 41.6392 40.7955C41.3494 39.8523 40.9403 39.142 40.4119 38.6648C39.8835 38.1818 39.2585 37.9403 38.5369 37.9403C37.4517 37.9403 36.5937 38.4801 35.963 39.5597C35.3324 40.6335 35.0142 42.2102 35.0085 44.2898C35.0028 45.6818 35.142 46.8523 35.4261 47.8011C35.7159 48.75 36.125 49.4659 36.6534 49.9489C37.1818 50.4261 37.8096 50.6648 38.5369 50.6648ZM53.3572 53.2386C52.1299 53.2386 51.039 53.0284 50.0845 52.608C49.1356 52.1875 48.3856 51.6023 47.8345 50.8523C47.2834 50.1023 46.9907 49.2358 46.9566 48.2528H50.1612C50.1896 48.7244 50.3459 49.1364 50.6299 49.4886C50.914 49.8352 51.2919 50.1051 51.7635 50.2983C52.2351 50.4915 52.7635 50.5881 53.3487 50.5881C53.9737 50.5881 54.5277 50.4801 55.0106 50.2642C55.4936 50.0426 55.8714 49.7358 56.1441 49.3438C56.4169 48.9517 56.5504 48.5 56.5447 47.9886C56.5504 47.4602 56.414 46.9943 56.1356 46.5909C55.8572 46.1875 55.4538 45.8722 54.9254 45.6449C54.4027 45.4176 53.772 45.304 53.0334 45.304H51.4907V42.8665H53.0334C53.6413 42.8665 54.1726 42.7614 54.6271 42.5511C55.0873 42.3409 55.4481 42.0455 55.7095 41.6648C55.9709 41.2784 56.0987 40.8324 56.093 40.3267C56.0987 39.8324 55.9879 39.4034 55.7606 39.0398C55.539 38.6705 55.2237 38.3835 54.8146 38.179C54.4112 37.9744 53.9368 37.8722 53.3913 37.8722C52.8572 37.8722 52.3629 37.9687 51.9084 38.1619C51.4538 38.3551 51.0873 38.6307 50.8089 38.9886C50.5305 39.3409 50.3828 39.7614 50.3657 40.25H47.3231C47.3459 39.2727 47.6271 38.4148 48.1669 37.6761C48.7123 36.9318 49.4396 36.3523 50.3487 35.9375C51.2578 35.517 52.2777 35.3068 53.4084 35.3068C54.5731 35.3068 55.5845 35.5256 56.4424 35.9631C57.3061 36.3949 57.9737 36.9773 58.4453 37.7102C58.9169 38.4432 59.1527 39.2528 59.1527 40.1392C59.1584 41.1222 58.8686 41.946 58.2834 42.6108C57.7038 43.2756 56.9424 43.7102 55.9993 43.9148V44.0511C57.2265 44.2216 58.1669 44.6761 58.8203 45.4148C59.4794 46.1477 59.8061 47.0597 59.8004 48.1506C59.8004 49.1278 59.522 50.0028 58.9652 50.7756C58.414 51.5426 57.6527 52.1449 56.6811 52.5824C55.7152 53.0199 54.6072 53.2386 53.3572 53.2386Z" fill="#F76557"/>
</svg>
