<svg width="186" height="186" viewBox="0 0 186 186" fill="none" xmlns="http://www.w3.org/2000/svg">
<path d="M163.257 75.3574C163.257 16.8642 163.427 18.8169 162.965 16.5363C162.415 14.4382 161.189 12.5797 159.477 11.2481C157.765 9.91661 155.662 9.18625 153.493 9.16999H91.2476C89.8998 9.12306 88.557 9.35507 87.3031 9.85149C86.0493 10.3479 84.9115 11.098 83.9612 12.0548C83.0109 13.0115 82.2685 14.1543 81.7805 15.4115C81.2926 16.6686 81.0696 18.013 81.1256 19.3604V77.0449C81.0997 78.4218 81.3555 79.7896 81.8774 81.0641C82.3992 82.3386 83.1761 83.493 84.1604 84.4563C85.1446 85.4197 86.3154 86.1716 87.6008 86.6661C88.8862 87.1605 90.2591 87.3869 91.6352 87.3315C157.691 86.4382 153.514 87.432 155.137 87.1493C157.331 86.7338 159.322 85.5944 160.792 83.9133C162.262 82.2323 163.126 80.1068 163.245 77.877C163.297 77.0405 163.257 76.1938 163.257 75.3574Z" fill="#FFF0B3"/>
<path d="M153.087 89.8234H93.2892C90.6101 89.6022 87.9154 89.9779 85.399 90.9236C82.8827 91.8693 80.6075 93.3614 78.7373 95.2924C76.8875 97.474 75.2932 99.8599 73.9852 102.404C73.9444 102.562 74.0377 102.169 74.4763 102.131H74.7838H94.4185C95.947 100.421 97.585 98.8115 99.3221 97.3135C104.809 92.5382 110.19 92.6679 113.457 95.2661C114.281 96.0874 115.031 96.9798 115.698 97.9329C115.935 98.0669 115.818 97.9664 117.447 98.6615C118.826 99.1347 120.127 99.8126 121.304 100.672C121.816 101.119 122.287 101.609 122.712 102.138H155.491C155.584 102.141 155.674 102.166 155.755 102.212C155.835 102.258 155.903 102.324 155.952 102.402C156.001 102.481 156.03 102.571 156.036 102.663C156.042 102.756 156.025 102.848 155.987 102.933C156.744 101.639 157.492 100.339 158.263 99.052C158.833 98.134 159.146 97.0798 159.17 95.9994C159.194 94.919 158.928 93.8519 158.399 92.9094C157.871 91.9669 157.099 91.1834 156.165 90.6406C155.23 90.0978 154.167 89.8156 153.087 89.8234Z" fill="#FFF0B3"/>
<path d="M155.502 102.129H122.723C122.999 102.473 123.243 102.842 123.452 103.231C124.932 105.585 122.883 108.58 119.53 108.031C120.081 108.685 120.556 109.399 120.948 110.16C121.744 111.47 122.085 113.007 121.917 114.531C121.83 115.183 121.537 115.79 121.081 116.263C120.625 116.737 120.029 117.052 119.382 117.163C117.883 117.102 116.456 116.506 115.358 115.483C114.411 114.785 113.547 113.98 112.785 113.084C109.759 118.926 105.882 124.286 101.281 128.989C101.281 128.989 128.555 128.989 128.902 128.989C132.148 128.989 135.349 128.221 138.242 126.748C141.136 125.275 143.639 123.138 145.549 120.512C146.965 118.529 154.689 105.065 155.983 102.954C156.029 102.869 156.052 102.775 156.051 102.679C156.049 102.583 156.023 102.489 155.975 102.406C155.926 102.323 155.857 102.254 155.775 102.205C155.692 102.157 155.598 102.131 155.502 102.129Z" fill="#FFC431"/>
<path d="M74.4804 102.127C74.3788 102.136 74.2807 102.168 74.1939 102.221C74.107 102.275 74.034 102.348 73.9806 102.435C73.8757 102.58 74.119 102.178 71.4844 106.672C71.9215 107.063 74.5708 109.526 74.6801 109.69C75.0458 109.923 77.6295 112.715 79.47 114.324C80.3293 115.086 81.4332 115.514 82.5812 115.531C86.9062 114.962 86.7853 110.617 94.4241 102.124C68.0555 102.117 75.9406 102.005 74.4804 102.127Z" fill="#FFC431"/>
<path d="M122.841 41.3482C121.511 38.9233 118.276 33.5054 118.076 33.1702C118.027 33.0884 117.957 33.0208 117.874 32.9739C117.79 32.927 117.696 32.9023 117.601 32.9023C117.505 32.9023 117.411 32.927 117.328 32.9739C117.245 33.0208 117.175 33.0884 117.126 33.1702C115.525 35.8888 113.937 38.6148 112.362 41.3482C112.314 41.4325 112.289 41.528 112.289 41.6252C112.289 41.7223 112.315 41.8177 112.364 41.9018C112.412 41.9858 112.482 42.0557 112.566 42.1043C112.651 42.1529 112.746 42.1786 112.843 42.1788H122.37C122.465 42.1729 122.557 42.1435 122.637 42.0933C122.718 42.043 122.784 41.9735 122.831 41.891C122.878 41.8085 122.903 41.7157 122.905 41.6209C122.907 41.5261 122.885 41.4324 122.841 41.3482Z" fill="#2755A0"/>
<path d="M135.183 41.348C133.853 38.9232 130.618 33.5037 130.42 33.17C130.37 33.0883 130.3 33.0208 130.217 32.9739C130.133 32.927 130.039 32.9023 129.944 32.9023C129.848 32.9023 129.754 32.927 129.671 32.9739C129.587 33.0208 129.518 33.0883 129.468 33.17C127.869 35.8893 126.281 38.6153 124.704 41.348C124.657 41.4319 124.632 41.5265 124.633 41.6228C124.633 41.719 124.659 41.8135 124.706 41.897C124.754 41.9804 124.823 42.05 124.906 42.0989C124.989 42.1477 125.083 42.1742 125.179 42.1757H134.702C134.798 42.1716 134.89 42.1436 134.972 42.0943C135.054 42.0449 135.121 41.9759 135.169 41.8934C135.217 41.811 135.244 41.7178 135.246 41.6225C135.248 41.5272 135.227 41.4328 135.183 41.348Z" fill="#2755A0"/>
<path d="M122.032 48.3359H114.659C114.514 48.3382 114.375 48.397 114.272 48.4999C114.17 48.6027 114.111 48.7415 114.109 48.8868V56.2589C114.111 56.4041 114.17 56.5429 114.272 56.6458C114.375 56.7487 114.514 56.8075 114.659 56.8097C122.528 56.8651 122.236 56.8899 122.446 56.6115C122.647 56.3988 122.639 56.7573 122.583 48.8882C122.582 48.7425 122.523 48.6031 122.42 48.4999C122.317 48.3967 122.178 48.3378 122.032 48.3359Z" fill="#FF4848"/>
<path d="M138.847 56.5186C137.517 54.0938 134.282 48.6758 134.082 48.3421C134.033 48.2603 133.963 48.1927 133.88 48.1458C133.796 48.0989 133.702 48.0742 133.607 48.0742C133.511 48.0742 133.417 48.0989 133.334 48.1458C133.251 48.1927 133.181 48.2603 133.132 48.3421C131.718 50.7188 128.561 56.182 128.368 56.5186C128.321 56.6025 128.296 56.6973 128.297 56.7936C128.297 56.8898 128.323 56.9844 128.371 57.0679C128.418 57.1515 128.487 57.2212 128.57 57.2702C128.653 57.3193 128.747 57.346 128.843 57.3478H138.372C138.467 57.3421 138.558 57.313 138.639 57.263C138.72 57.213 138.786 57.1438 138.834 57.0615C138.881 56.9792 138.907 56.8865 138.909 56.7918C138.911 56.697 138.89 56.6031 138.847 56.5186Z" fill="#2755A0"/>
<path d="M110.586 48.0695L103.108 55.5466C103.014 55.6519 102.965 55.7888 102.969 55.9294C102.973 56.07 103.031 56.2037 103.131 56.3032C103.23 56.4027 103.364 56.4604 103.504 56.4647C103.645 56.469 103.782 56.4194 103.887 56.3262C106.422 53.8751 108.914 51.3823 111.364 48.8477C111.46 48.743 111.511 48.6055 111.508 48.4639C111.505 48.3222 111.447 48.1873 111.347 48.0871C111.246 47.9869 111.111 47.9292 110.97 47.9259C110.828 47.9226 110.691 47.9741 110.586 48.0695Z" fill="black"/>
<path d="M110.571 19.4406L103.092 26.9191C102.992 27.0231 102.936 27.1623 102.938 27.3068C102.939 27.4513 102.997 27.5895 103.099 27.6916C103.201 27.7937 103.34 27.8515 103.484 27.8526C103.629 27.8536 103.768 27.7979 103.872 27.6973C106.406 25.2481 108.899 22.7553 111.349 20.2188C111.444 20.114 111.496 19.9766 111.492 19.835C111.489 19.6933 111.431 19.5584 111.331 19.4582C111.231 19.358 111.096 19.3003 110.954 19.297C110.813 19.2937 110.675 19.3452 110.571 19.4406Z" fill="black"/>
<path d="M110.586 33.8117C108.051 36.2618 105.559 38.7541 103.108 41.2887C103.014 41.3941 102.965 41.531 102.969 41.6716C102.973 41.8122 103.031 41.9459 103.131 42.0454C103.23 42.1449 103.364 42.2026 103.504 42.2069C103.645 42.2112 103.782 42.1616 103.887 42.0684C106.422 39.6173 108.914 37.1245 111.364 34.5899C111.46 34.4851 111.511 34.3477 111.508 34.2061C111.505 34.0644 111.447 33.9295 111.347 33.8293C111.246 33.7291 111.111 33.6714 110.97 33.6681C110.828 33.6648 110.691 33.7163 110.586 33.8117Z" fill="black"/>
<path d="M88.9453 19.9366V27.8362C88.9526 27.9772 89.0137 28.11 89.1161 28.2073C89.2184 28.3045 89.3542 28.3587 89.4954 28.3587C89.6366 28.3587 89.7724 28.3045 89.8748 28.2073C89.9771 28.11 90.0383 27.9772 90.0455 27.8362V19.9366C90.0383 19.7956 89.9771 19.6627 89.8748 19.5655C89.7724 19.4683 89.6366 19.4141 89.4954 19.4141C89.3542 19.4141 89.2184 19.4683 89.1161 19.5655C89.0137 19.6627 88.9526 19.7956 88.9453 19.9366Z" fill="#FF4848"/>
<path d="M88.9453 34.4795V42.3792C88.9526 42.5202 89.0137 42.653 89.1161 42.7502C89.2184 42.8475 89.3542 42.9017 89.4954 42.9017C89.6366 42.9017 89.7724 42.8475 89.8748 42.7502C89.9771 42.653 90.0383 42.5202 90.0455 42.3792V34.4795C90.0383 34.3385 89.9771 34.2057 89.8748 34.1085C89.7724 34.0112 89.6366 33.957 89.4954 33.957C89.3542 33.957 89.2184 34.0112 89.1161 34.1085C89.0137 34.2057 88.9526 34.3385 88.9453 34.4795Z" fill="#FF4848"/>
<path d="M88.9453 48.8506V56.7517C88.9526 56.8927 89.0137 57.0256 89.1161 57.1228C89.2184 57.22 89.3542 57.2743 89.4954 57.2743C89.6366 57.2743 89.7724 57.22 89.8748 57.1228C89.9771 57.0256 90.0383 56.8927 90.0455 56.7517V48.8506C90.0383 48.7096 89.9771 48.5768 89.8748 48.4796C89.7724 48.3823 89.6366 48.3281 89.4954 48.3281C89.3542 48.3281 89.2184 48.3823 89.1161 48.4796C89.0137 48.5768 88.9526 48.7096 88.9453 48.8506Z" fill="#FF4848"/>
<path d="M88.9453 63.1748V71.0745C88.9526 71.2155 89.0137 71.3483 89.1161 71.4456C89.2184 71.5428 89.3542 71.597 89.4954 71.597C89.6366 71.597 89.7724 71.5428 89.8748 71.4456C89.9771 71.3483 90.0383 71.2155 90.0455 71.0745V63.1748C90.0383 63.0338 89.9771 62.901 89.8748 62.8038C89.7724 62.7066 89.6366 62.6523 89.4954 62.6523C89.3542 62.6523 89.2184 62.7066 89.1161 62.8038C89.0137 62.901 88.9526 63.0338 88.9453 63.1748Z" fill="#FF4848"/>
<path d="M114.801 139.518C113.26 139.69 79.9736 143.193 76.0391 143.587C82.6622 153.642 89.6146 164.154 95.0195 172.459H114.801C114.947 172.458 115.085 172.399 115.188 172.296C115.291 172.194 115.349 172.055 115.351 171.91C115.543 148.543 115.479 142.24 115.396 140.512C115.371 140.004 115.313 139.422 114.801 139.518Z" fill="#2755A0"/>
<path d="M56.4482 157.875C56.1743 158.862 55.8391 159.835 55.5739 160.814C55.1351 162.624 54.4486 164.364 53.5338 165.986C52.3006 167.967 50.5815 169.6 48.5396 170.73C46.4977 171.86 44.2008 172.449 41.8672 172.441C42.112 172.466 39.6813 172.453 61.1318 172.453C59.9456 168.166 58.2887 162.984 56.4482 157.875Z" fill="#2755A0"/>
<path d="M129.588 138.979C124.026 145.337 120.387 153.145 119.096 161.493C118.542 165.234 118.582 169.27 120.99 172.393C121.059 172.46 121.143 172.508 121.236 172.533C121.329 172.558 121.426 172.558 121.519 172.533C121.611 172.509 121.696 172.461 121.765 172.394C121.833 172.327 121.883 172.243 121.91 172.151C122.201 171.067 130.507 139.534 130.507 139.509C130.642 139.01 129.962 138.549 129.588 138.979Z" fill="black"/>
<path d="M103.804 184.063C98.9803 180.054 92.535 178.992 86.4336 179.066C79.3886 179.158 72.4217 180.556 65.8866 183.189C65.7623 183.228 65.6559 183.31 65.5861 183.42C65.5163 183.53 65.4875 183.661 65.505 183.79C65.5224 183.92 65.5848 184.039 65.6813 184.126C65.7778 184.214 65.9021 184.265 66.0324 184.27C67.2725 184.303 103.391 184.998 103.413 184.998C103.52 184.995 103.624 184.961 103.712 184.901C103.8 184.84 103.869 184.755 103.91 184.657C103.951 184.558 103.963 184.449 103.944 184.344C103.925 184.239 103.877 184.141 103.804 184.063Z" fill="black"/>
<path d="M74.649 109.665C70.7145 105.831 62.8032 98.2794 57.2978 98.4441C55.5893 98.4093 53.9002 98.8105 52.3898 99.6098C46.0669 102.938 37.8758 111.053 32.7828 122.488C30.6203 127.317 28.9822 132.364 27.8967 137.543C26.9111 143.139 26.4965 148.82 26.6595 154.499C26.618 155.014 26.618 155.532 26.6595 156.047C26.7147 152.722 27.1443 149.414 27.9404 146.186C29.9543 137.814 32.3966 133.112 36.3501 128.116C40.3036 123.121 46.3015 119.508 52.6419 120.439C56.8562 121.057 59.7721 123.693 62.726 126.662C66.1636 121.28 69.3505 114.925 73.9146 109.711C74.014 109.614 74.1465 109.558 74.2854 109.555C74.4243 109.551 74.5594 109.601 74.6636 109.692L74.649 109.665Z" fill="#FF4848"/>
<path d="M120.834 108.066C121.389 108.046 121.928 107.882 122.4 107.589C122.871 107.297 123.258 106.886 123.522 106.398C123.785 105.91 123.917 105.362 123.904 104.807C123.891 104.253 123.733 103.711 123.446 103.237C122.893 102.262 122.172 101.392 121.315 100.669C119.602 99.5052 117.73 98.5952 115.757 97.9673C114.737 96.8219 113.904 94.8823 111.021 93.9511C109.129 93.3316 107.09 93.3235 105.192 93.9278C103.034 94.6523 101.045 95.8052 99.343 97.3173C95.7278 100.476 92.5122 104.066 89.7676 108.005C86.9129 112.085 85.9249 115.101 82.5965 115.539C81.4487 115.521 80.3452 115.093 79.4854 114.332C77.9349 112.978 74.9257 109.845 74.6954 109.698C74.5912 109.606 74.4561 109.557 74.3172 109.56C74.1783 109.564 74.0459 109.62 73.9464 109.717C69.3722 114.943 66.2318 121.229 62.7578 126.667C64.8927 128.868 66.8988 131.191 68.766 133.623C77.9013 137.825 89.0404 137.703 97.5229 132.02C103.977 127.695 109.042 119.909 112.793 113.098C113.555 113.994 114.419 114.799 115.367 115.496C116.464 116.519 117.891 117.115 119.39 117.176C120.038 117.066 120.634 116.75 121.09 116.277C121.546 115.803 121.839 115.196 121.926 114.545C122.093 113.021 121.753 111.484 120.957 110.173C119.384 107.148 118.784 108.295 120.834 108.066Z" fill="#FC9070"/>
<path d="M107.401 97.5383C109.203 97.2563 111.048 97.5425 112.68 98.3573C113.34 98.6167 113.627 97.5529 112.971 97.2964C111.154 96.4073 109.1 96.1205 107.109 96.4775C106.412 96.5955 106.708 97.6549 107.401 97.5383Z" fill="#FF4848"/>
<path d="M111.599 105.12C112.965 105.436 114.276 105.954 115.489 106.658C115.615 106.726 115.763 106.743 115.901 106.705C116.039 106.667 116.156 106.576 116.229 106.453C116.301 106.329 116.323 106.182 116.289 106.043C116.254 105.904 116.167 105.784 116.046 105.708C114.762 104.932 113.358 104.375 111.892 104.058C111.201 103.905 110.905 104.967 111.599 105.12Z" fill="#FF4848"/>
<path d="M96.9799 175.442C96.3155 174.457 76.2873 143.933 76.0439 143.587C72.1219 137.741 67.7795 132.189 63.0513 126.974C59.3878 123.233 55.9443 120.249 50.6852 120.285C44.9452 120.326 39.8624 123.7 36.3635 128.114C32.5922 132.767 29.9042 138.202 28.4945 144.024C26.6598 150.855 25.325 160.212 28.9142 166.284C29.8714 167.868 31.1694 169.218 32.7138 170.237C34.2583 171.256 36.0103 171.918 37.8426 172.175C43.5404 173.034 47.2389 171.874 50.1271 169.697C53.2193 167.366 54.5396 164.661 55.5655 160.808C55.8278 159.829 56.1629 158.855 56.4398 157.869C59.5364 166.451 60.9324 171.733 62.0385 175.854C62.0704 175.97 62.1395 176.073 62.2354 176.146C62.3312 176.219 62.4484 176.259 62.5689 176.259H96.5049C96.5996 176.257 96.6922 176.23 96.7738 176.182C96.8553 176.133 96.9231 176.065 96.9707 175.983C97.0184 175.901 97.0442 175.808 97.0458 175.714C97.0474 175.619 97.0248 175.525 96.9799 175.442Z" fill="#2755A0"/>
<path d="M79.546 133.35H84.7439C84.8849 133.343 85.0177 133.282 85.1149 133.179C85.2122 133.077 85.2664 132.941 85.2664 132.8C85.2664 132.659 85.2122 132.523 85.1149 132.421C85.0177 132.318 84.8849 132.257 84.7439 132.25H79.546C79.405 132.257 79.2721 132.318 79.1749 132.421C79.0777 132.523 79.0234 132.659 79.0234 132.8C79.0234 132.941 79.0777 133.077 79.1749 133.179C79.2721 133.282 79.405 133.343 79.546 133.35Z" fill="#FF4848"/>
<path d="M63.8723 86.1321C63.2744 85.4673 62.513 84.9705 61.6638 84.6909C60.8145 84.4112 59.9069 84.3585 59.031 84.5379C58.1551 84.7173 57.3413 85.1226 56.6704 85.7136C55.9994 86.3045 55.4947 87.0607 55.2062 87.907C55.0258 88.5113 54.9727 89.1466 55.0502 89.7725C55.1277 90.3984 55.3342 91.0015 55.6565 91.5436C55.9788 92.0857 56.4101 92.5551 56.923 92.9222C57.4359 93.2892 58.0194 93.546 58.6365 93.6761C59.6311 93.8465 60.6536 93.7365 61.5891 93.3584C62.5247 92.9803 63.3365 92.3491 63.9335 91.5355C64.5475 90.7657 64.8768 89.8075 64.8656 88.8229C64.8545 87.8383 64.5036 86.8877 63.8723 86.1321Z" fill="#FC9070"/>
<path d="M69.0345 76.1434C68.8334 73.4141 65.5546 72.4887 63.0919 73.774C60.748 75.2585 58.8773 77.382 57.7001 79.8944C57.1172 80.9479 56.46 81.9563 55.8684 83.0041C55.8211 83.0879 55.7965 83.1826 55.7969 83.2788C55.7973 83.3751 55.8226 83.4696 55.8706 83.553C55.9185 83.6365 55.9872 83.7061 56.0701 83.7549C56.153 83.8038 56.2472 83.8303 56.3434 83.8318C57.9464 83.7458 59.5494 83.6147 61.1377 83.4136C62.3882 83.2753 63.6113 82.9532 64.7677 82.4576C66.0098 81.9255 67.0725 81.0472 67.8291 79.9276C68.5857 78.808 69.0041 77.4944 69.0345 76.1434Z" fill="black"/>
<path d="M34.6183 100.358C34.9098 101.003 35.8599 100.444 35.5685 99.8033C34.2438 96.8903 24.0884 74.4999 23.9427 74.2391C24.0214 74.0526 28.8973 63.3375 35.5685 48.6851C35.8599 48.0454 34.9112 47.4843 34.6183 48.1299C33.2689 51.0691 23.2927 72.862 22.9022 73.8748C22.8461 74.0482 22.8301 74.232 22.8554 74.4125C22.8806 74.5929 22.9464 74.7653 23.0479 74.9167C23.1339 75.1134 34.4755 100.044 34.6183 100.358Z" fill="black"/>
<path d="M95.1735 52.7658L100.782 48.4247C100.885 48.321 100.943 48.1809 100.943 48.0349C100.943 47.8889 100.885 47.7488 100.782 47.6451C100.678 47.5445 100.538 47.4883 100.393 47.4883C100.248 47.4883 100.109 47.5445 100.004 47.6451C100.004 47.6451 94.0995 52.1888 93.9072 52.3636C93.47 52.8285 93.9217 53.1768 94.2584 53.4376L100.011 57.8851C100.117 57.9844 100.256 58.0397 100.401 58.0397C100.545 58.0397 100.684 57.9844 100.79 57.8851C100.893 57.7818 100.951 57.6419 100.951 57.496C100.951 57.3501 100.893 57.2102 100.79 57.1069C98.9108 55.6594 97.0387 54.2124 95.1735 52.7658Z" fill="black"/>
<path d="M95.1735 38.4251L100.782 34.084C100.885 33.9807 100.943 33.8408 100.943 33.6949C100.943 33.549 100.885 33.4091 100.782 33.3058C100.678 33.2049 100.538 33.1484 100.393 33.1484C100.248 33.1484 100.109 33.2049 100.004 33.3058C98.1768 34.7194 94.0995 37.8495 93.9072 38.0229C93.47 38.4878 93.9217 38.8375 94.2584 39.0983L100.011 43.5443C100.116 43.6443 100.256 43.7001 100.401 43.7001C100.545 43.7001 100.685 43.6443 100.79 43.5443C100.893 43.4411 100.951 43.3011 100.951 43.1553C100.951 43.0094 100.893 42.8694 100.79 42.7662L95.1735 38.4251Z" fill="black"/>
<path d="M95.1735 23.7487L100.782 19.4077C100.885 19.3044 100.943 19.1645 100.943 19.0186C100.943 18.8727 100.885 18.7328 100.782 18.6295C100.678 18.5289 100.538 18.4727 100.393 18.4727C100.248 18.4727 100.109 18.5289 100.004 18.6295C98.1768 20.043 94.0995 23.1731 93.9072 23.348C93.47 23.8114 93.9217 24.1611 94.2584 24.422L100.011 28.8695C100.117 28.9693 100.257 29.0249 100.402 29.0249C100.547 29.0249 100.687 28.9693 100.793 28.8695C100.844 28.8184 100.884 28.7578 100.912 28.691C100.94 28.6242 100.954 28.5527 100.954 28.4804C100.954 28.4081 100.94 28.3365 100.912 28.2697C100.884 28.203 100.844 28.1423 100.793 28.0913L95.1735 23.7487Z" fill="black"/>
<path d="M151.302 52.0904L145.556 47.6429C145.451 47.5436 145.312 47.4883 145.167 47.4883C145.023 47.4883 144.883 47.5436 144.778 47.6429C144.675 47.7464 144.617 47.8866 144.617 48.0327C144.617 48.1788 144.675 48.319 144.778 48.4225L150.389 52.7621L144.778 57.1047C144.675 57.208 144.617 57.3479 144.617 57.4938C144.617 57.6397 144.675 57.7796 144.778 57.8829C144.883 57.9835 145.022 58.0397 145.167 58.0397C145.312 58.0397 145.452 57.9835 145.556 57.8829C145.556 57.8829 151.461 53.3392 151.653 53.1643C152.085 52.7053 151.639 52.357 151.302 52.0904Z" fill="black"/>
<path d="M146.094 38.8245C146.531 38.3596 146.079 38.0099 145.743 37.7505L139.997 33.303C139.892 33.2037 139.752 33.1484 139.608 33.1484C139.463 33.1484 139.324 33.2037 139.219 33.303C139.116 33.4063 139.058 33.5462 139.058 33.6921C139.058 33.838 139.116 33.9779 139.219 34.0812L144.828 38.4223L139.216 42.7678C139.113 42.8713 139.055 43.0114 139.055 43.1576C139.055 43.3037 139.113 43.4439 139.216 43.5474C139.32 43.6477 139.46 43.7037 139.605 43.7037C139.75 43.7037 139.889 43.6477 139.994 43.5474C141.824 42.128 145.902 38.9994 146.094 38.8245Z" fill="black"/>
<path d="M133.013 23.7471L127.403 28.0882C127.3 28.1919 127.243 28.332 127.243 28.478C127.243 28.624 127.3 28.7641 127.403 28.8678C127.508 28.9681 127.647 29.0241 127.792 29.0241C127.937 29.0241 128.077 28.9681 128.181 28.8678C130.009 27.4528 134.086 24.3241 134.278 24.1493C134.715 23.6844 134.264 23.3347 133.927 23.0738L128.181 18.6278C128.076 18.5282 127.937 18.4727 127.792 18.4727C127.647 18.4727 127.508 18.5282 127.403 18.6278C127.3 18.7311 127.242 18.871 127.242 19.0169C127.242 19.1628 127.3 19.3027 127.403 19.406L133.013 23.7471Z" fill="black"/>
<path d="M120.292 19.1008C119.363 18.7601 118.35 18.7246 117.399 18.9993C116.448 19.2741 115.61 19.8448 115.006 20.6286C114.402 21.4124 114.064 22.3684 114.04 23.3576C114.017 24.3469 114.31 25.3178 114.876 26.1294C115.442 26.9409 116.252 27.5507 117.189 27.8702C118.125 28.1897 119.139 28.2022 120.083 27.906C121.027 27.6097 121.852 27.02 122.438 26.2227C123.025 25.4254 123.341 24.462 123.342 23.4725C123.344 22.5189 123.052 21.5879 122.506 20.8059C121.961 20.0238 121.188 19.4285 120.292 19.1008Z" fill="#CCEAFF"/>
<path d="M81.1551 3.41861C78.1354 5.1751 75.717 7.80323 74.2172 10.9583C73.9083 11.5922 74.8584 12.1518 75.1673 11.5135C76.6217 8.55514 78.892 6.0745 81.7103 4.36435C81.829 4.28723 81.9135 4.16734 81.9462 4.02957C81.9789 3.8918 81.9573 3.74674 81.8859 3.62449C81.8144 3.50224 81.6986 3.41219 81.5626 3.37304C81.4265 3.33389 81.2806 3.34864 81.1551 3.41423V3.41861Z" fill="black"/>
<path d="M80.248 0.0677806C76.1727 1.9722 72.922 5.28399 71.0937 9.39406C70.8023 10.0367 71.7582 10.5977 72.0438 9.95072C73.7852 6.00721 76.8973 2.82882 80.8032 1.00478C81.4459 0.711879 80.8863 -0.238238 80.248 0.0677806Z" fill="black"/>
<path d="M21.6851 130.898C19.804 137.264 19.1507 143.929 19.7601 150.539C19.8213 151.238 20.9259 151.246 20.8603 150.539C20.3706 144.028 21.0116 137.482 22.7547 131.19C22.7913 131.05 22.7711 130.901 22.6986 130.775C22.6261 130.65 22.5071 130.558 22.3674 130.52C22.2277 130.481 22.0786 130.5 21.9522 130.57C21.8259 130.641 21.7325 130.759 21.6924 130.898H21.6851Z" fill="black"/>
<path d="M18.1596 130.646C15.4113 137.574 15.1446 143.333 15.7989 150.545C15.8615 151.244 16.9647 151.252 16.8991 150.545C16.102 141.746 17.0302 136.487 19.2219 130.939C19.4828 130.279 18.419 129.994 18.1596 130.646Z" fill="black"/>
<path d="M170.495 112.294H157.054C156.913 112.301 156.78 112.362 156.683 112.464C156.585 112.567 156.531 112.703 156.531 112.844C156.531 112.985 156.585 113.121 156.683 113.223C156.78 113.326 156.913 113.387 157.054 113.394H170.495C170.57 113.398 170.645 113.386 170.715 113.36C170.785 113.335 170.849 113.295 170.903 113.243C170.957 113.192 171 113.13 171.03 113.061C171.059 112.992 171.074 112.919 171.074 112.844C171.074 112.769 171.059 112.695 171.03 112.626C171 112.558 170.957 112.496 170.903 112.444C170.849 112.393 170.785 112.353 170.715 112.327C170.645 112.301 170.57 112.29 170.495 112.294Z" fill="black"/>
<path d="M165.085 102.998L156.621 109.624C156.063 110.062 156.847 110.835 157.4 110.404L165.863 103.777C166.421 103.339 165.637 102.566 165.085 102.998Z" fill="black"/>
<path d="M157.446 115.953C156.895 115.516 156.11 116.296 156.668 116.731L164.222 122.639C164.775 123.076 165.559 122.298 165.001 121.861C162.48 119.894 159.962 117.925 157.446 115.953Z" fill="black"/>
<path d="M81.1335 19.3604V77.0449C81.12 78.4184 81.3844 79.7804 81.9106 81.0492C82.4369 82.318 83.2141 83.4673 84.1958 84.4281C85.1774 85.3889 86.3431 86.1414 87.6229 86.6403C88.9027 87.1393 90.2701 87.3743 91.643 87.3315C147.293 87.4203 153.523 87.432 155.146 87.1493C157.339 86.7318 159.329 85.5918 160.799 83.9111C162.268 82.2305 163.132 80.1061 163.253 77.877C163.28 77.4165 163.525 70.5383 163.27 20.3746C163.3 19.0887 163.202 17.803 162.979 16.5363C162.429 14.4382 161.203 12.5797 159.491 11.2481C157.779 9.91661 155.676 9.18625 153.507 9.16999H91.2554C89.9077 9.12306 88.5648 9.35507 87.3109 9.85149C86.0571 10.3479 84.9194 11.098 83.969 12.0548C83.0187 13.0115 82.2763 14.1543 81.7883 15.4115C81.3004 16.6686 81.0774 18.013 81.1335 19.3604ZM90.8969 10.2717H153.508C155.7 10.2906 157.804 11.1319 159.405 12.6289C161.006 14.126 161.986 16.1695 162.151 18.3549C162.196 19.0835 162.193 77.5666 162.109 78.3797C161.847 80.5465 160.799 82.5422 159.165 83.9888C157.531 85.4354 155.423 86.2327 153.24 86.2298H91.5658C90.3881 86.2772 89.2127 86.0922 88.1066 85.6852C87.0005 85.2783 85.9854 84.6574 85.1193 83.858C84.2532 83.0587 83.5531 82.0965 83.059 81.0265C82.5649 79.9565 82.2864 78.7996 82.2395 77.6219C82.2307 77.3553 82.2395 77.0871 82.2395 76.8204V19.2846C82.1979 18.1192 82.3909 16.9572 82.8071 15.8678C83.2233 14.7784 83.8542 13.7838 84.6623 12.9429C85.4704 12.1021 86.4392 11.4322 87.5112 10.9731C88.5832 10.514 89.7365 10.2749 90.9027 10.2702L90.8969 10.2717Z" fill="black"/>
<path d="M112.575 42.1035C112.758 42.2084 112.051 42.4445 122.366 42.1749C122.461 42.1705 122.553 42.1422 122.634 42.0926C122.716 42.0431 122.783 41.9739 122.831 41.8915C122.878 41.809 122.904 41.7159 122.906 41.6208C122.908 41.5257 122.886 41.4316 122.842 41.3472C121.51 38.9224 118.274 33.5058 118.077 33.1692C118.001 33.0435 117.878 32.9532 117.735 32.9183C117.592 32.8833 117.441 32.9065 117.315 32.9827C117.13 33.0934 117.493 32.5455 112.36 41.3472C112.325 41.4108 112.302 41.481 112.293 41.5535C112.284 41.6261 112.29 41.6996 112.31 41.7699C112.33 41.8402 112.364 41.9059 112.409 41.9632C112.454 42.0204 112.511 42.0681 112.575 42.1035ZM117.602 34.5405L121.408 41.0747H113.796L117.602 34.5405Z" fill="black"/>
<path d="M124.918 42.1041C125.101 42.2091 124.396 42.4451 134.71 42.1755C134.805 42.1712 134.898 42.143 134.979 42.0935C135.06 42.0439 135.128 41.9747 135.175 41.8922C135.223 41.8096 135.248 41.7165 135.25 41.6213C135.252 41.5261 135.23 41.4321 135.185 41.3478C133.854 38.923 130.617 33.5065 130.422 33.1699C130.384 33.1074 130.334 33.053 130.275 33.0099C130.216 32.9667 130.15 32.9355 130.079 32.9182C130.008 32.9009 129.934 32.8977 129.862 32.9089C129.79 32.9201 129.721 32.9454 129.658 32.9833C129.453 33.1072 129.784 32.6642 124.704 41.3478C124.668 41.4115 124.645 41.4817 124.637 41.5542C124.628 41.6267 124.634 41.7002 124.654 41.7704C124.674 41.8407 124.707 41.9063 124.753 41.9636C124.798 42.0208 124.854 42.0686 124.918 42.1041ZM129.947 34.5411L133.753 41.0753H126.14L129.947 34.5411Z" fill="black"/>
<path d="M122.048 48.3281H114.674C114.529 48.3304 114.39 48.3892 114.288 48.492C114.185 48.5949 114.127 48.7337 114.125 48.879V56.2511C114.127 56.3963 114.185 56.5351 114.288 56.638C114.39 56.7408 114.529 56.7997 114.674 56.8019C122.954 56.8602 122.173 56.8617 122.436 56.6372C122.67 56.3866 122.654 56.8675 122.599 48.879C122.597 48.7335 122.538 48.5944 122.435 48.4915C122.332 48.3887 122.193 48.33 122.048 48.3281ZM121.497 55.7002H115.231V49.4342H121.497V55.7002Z" fill="black"/>
<path d="M133.133 48.3343L128.369 56.5122C128.333 56.5757 128.31 56.6457 128.301 56.7181C128.292 56.7906 128.298 56.864 128.317 56.9343C128.337 57.0046 128.37 57.0703 128.415 57.1277C128.461 57.185 128.517 57.2329 128.58 57.2685C128.774 57.3778 128.158 57.3399 138.373 57.3399C138.468 57.3349 138.56 57.3062 138.64 57.2565C138.721 57.2068 138.788 57.1376 138.835 57.0553C138.883 56.973 138.909 56.8802 138.911 56.7854C138.913 56.6905 138.891 56.5966 138.848 56.5122C138.848 56.5122 134.279 48.6694 134.083 48.3343C134.033 48.2525 133.964 48.1849 133.88 48.138C133.797 48.0911 133.703 48.0664 133.608 48.0664C133.512 48.0664 133.418 48.0911 133.335 48.138C133.252 48.1849 133.182 48.2525 133.133 48.3343ZM129.801 56.2383L133.608 49.7055L137.415 56.2383H129.801Z" fill="black"/>
<path d="M110.59 48.0655L103.112 55.5425C103.017 55.6473 102.966 55.7847 102.969 55.9263C102.972 56.068 103.03 56.2029 103.13 56.3031C103.23 56.4033 103.365 56.461 103.507 56.4643C103.648 56.4676 103.786 56.4161 103.891 56.3207C106.426 53.8726 108.919 51.3802 111.369 48.8437C111.47 48.7397 111.525 48.6004 111.524 48.4559C111.522 48.3114 111.464 48.1732 111.362 48.0711C111.26 47.969 111.121 47.9112 110.977 47.9102C110.832 47.9091 110.693 47.9649 110.59 48.0655Z" fill="black"/>
<path d="M103.891 27.6932C106.426 25.2451 108.919 22.7523 111.369 20.2147C111.47 20.1108 111.525 19.9715 111.524 19.827C111.522 19.6825 111.464 19.5443 111.362 19.4422C111.26 19.3401 111.121 19.2823 110.977 19.2813C110.832 19.2802 110.693 19.336 110.59 19.4366L103.112 26.9151C103.017 27.0198 102.966 27.1573 102.969 27.2989C102.972 27.4405 103.03 27.5755 103.13 27.6756C103.23 27.7758 103.365 27.8335 103.507 27.8368C103.648 27.8401 103.786 27.7887 103.891 27.6932Z" fill="black"/>
<path d="M103.887 42.0643C106.421 39.6133 108.914 37.1204 111.365 34.5858C111.466 34.4819 111.521 34.3426 111.52 34.1981C111.518 34.0536 111.46 33.9154 111.358 33.8133C111.256 33.7112 111.117 33.6534 110.973 33.6524C110.828 33.6513 110.689 33.7071 110.586 33.8077C108.053 36.2587 105.56 38.7511 103.108 41.2847C103.008 41.3885 102.952 41.5276 102.953 41.6721C102.954 41.8167 103.012 41.955 103.114 42.0573C103.216 42.1595 103.354 42.2176 103.499 42.2189C103.643 42.2203 103.783 42.1647 103.887 42.0643Z" fill="black"/>
<path d="M89.5293 28.3666C89.6686 28.3619 89.8009 28.3046 89.8996 28.2062C89.9984 28.1077 90.0561 27.9755 90.0611 27.8362V19.9366C90.0539 19.7956 89.9928 19.6627 89.8904 19.5655C89.788 19.4683 89.6522 19.4141 89.511 19.4141C89.3699 19.4141 89.2341 19.4683 89.1317 19.5655C89.0293 19.6627 88.9682 19.7956 88.9609 19.9366V27.8362C88.9634 27.9084 88.98 27.9793 89.0099 28.0451C89.0398 28.1108 89.0824 28.17 89.1351 28.2192C89.1879 28.2685 89.2499 28.3069 89.3175 28.3322C89.3852 28.3575 89.4571 28.3692 89.5293 28.3666Z" fill="black"/>
<path d="M89.5293 42.9062C89.6688 42.9015 89.8014 42.8439 89.9001 42.7452C89.9989 42.6464 90.0564 42.5139 90.0611 42.3743V34.4717C90.0539 34.3307 89.9928 34.1979 89.8904 34.1007C89.788 34.0034 89.6522 33.9492 89.511 33.9492C89.3699 33.9492 89.2341 34.0034 89.1317 34.1007C89.0293 34.1979 88.9682 34.3307 88.9609 34.4717V42.3714C88.963 42.4438 88.9794 42.5152 89.0091 42.5813C89.0388 42.6475 89.0813 42.7071 89.1341 42.7568C89.1869 42.8065 89.2489 42.8452 89.3168 42.8709C89.3846 42.8965 89.4568 42.9085 89.5293 42.9062Z" fill="black"/>
<path d="M89.5322 57.2822C89.671 57.2767 89.8026 57.2191 89.9007 57.1207C89.9988 57.0224 90.0561 56.8906 90.0611 56.7517V48.8506C90.0539 48.7096 89.9928 48.5768 89.8904 48.4796C89.788 48.3823 89.6522 48.3281 89.511 48.3281C89.3699 48.3281 89.2341 48.3823 89.1317 48.4796C89.0293 48.5768 88.9682 48.7096 88.9609 48.8506V56.7517C88.9636 56.8241 88.9804 56.8952 89.0106 56.961C89.0407 57.0269 89.0835 57.0861 89.1366 57.1354C89.1896 57.1846 89.2519 57.223 89.3198 57.2481C89.3876 57.2733 89.4598 57.2849 89.5322 57.2822Z" fill="black"/>
<path d="M89.5293 71.6064C89.6687 71.6013 89.8011 71.5437 89.8997 71.445C89.9984 71.3463 90.0561 71.214 90.0611 71.0745V63.1748C90.0539 63.0338 89.9928 62.901 89.8904 62.8038C89.788 62.7066 89.6522 62.6523 89.511 62.6523C89.3699 62.6523 89.2341 62.7066 89.1317 62.8038C89.0293 62.901 88.9682 63.0338 88.9609 63.1748V71.0745C88.9659 71.2204 89.0285 71.3583 89.1351 71.458C89.2416 71.5577 89.3834 71.6111 89.5293 71.6064Z" fill="black"/>
<path d="M114.818 139.51C113.276 139.682 79.9901 143.185 76.0555 143.578C73.5928 140.049 71.4084 137.021 68.7592 133.614C74.1008 136.072 80.0177 137.006 85.8569 136.314C91.6563 135.608 97.07 133.039 101.285 128.993C101.285 128.993 128.558 128.993 128.905 128.993C132.148 128.971 135.341 128.194 138.231 126.722C141.12 125.251 143.627 123.126 145.552 120.516C146.899 118.568 145.307 120.537 158.283 99.0426C158.847 98.1236 159.156 97.0706 159.177 95.9924C159.198 94.9141 158.93 93.8499 158.402 92.9097C157.874 91.9694 157.104 91.1874 156.172 90.6444C155.241 90.1014 154.181 89.8172 153.102 89.8212H93.3048C91.0123 89.7348 88.7195 89.9877 86.501 90.5717C81.0509 92.2111 77.6774 95.6429 75.0005 100.694L73.9994 102.401L73.9906 102.436C73.8755 102.598 73.877 102.611 71.4944 106.674C68.6372 103.917 65.4307 101.548 61.9568 99.6255C60.4884 98.8447 58.8513 98.4348 57.1882 98.4315C55.5251 98.4282 53.8864 98.8316 52.4149 99.6065C43.026 104.513 32.0355 117.733 27.9203 137.537C26.9329 143.132 26.5178 148.814 26.6817 154.493C26.3357 158.556 27.1146 162.636 28.9331 166.286C29.8882 167.872 31.1857 169.223 32.7305 170.242C34.2753 171.261 36.0284 171.922 37.8615 172.177C40.1931 172.557 39.7763 172.453 61.1481 172.453C61.4658 173.586 61.7499 174.725 62.053 175.86C62.0856 175.977 62.1552 176.079 62.2511 176.152C62.3471 176.225 62.4643 176.265 62.5849 176.266H96.518C96.6142 176.264 96.7084 176.237 96.7912 176.188C96.8741 176.139 96.9428 176.069 96.9907 175.986C97.0385 175.902 97.0639 175.808 97.0643 175.711C97.0647 175.615 97.0402 175.52 96.993 175.436C96.3285 174.451 95.6815 173.45 95.0374 172.453H114.818C114.963 172.452 115.102 172.393 115.204 172.29C115.307 172.188 115.365 172.049 115.367 171.904V140.064C115.375 139.989 115.366 139.914 115.342 139.844C115.317 139.773 115.277 139.709 115.224 139.656C115.172 139.603 115.108 139.562 115.038 139.537C114.967 139.512 114.892 139.503 114.818 139.51ZM98.2492 130.138C90.112 136.311 78.1306 137.478 67.1898 131.639C66.024 130.205 64.8057 128.812 63.5306 127.478C67.1737 121.794 70.0241 115.983 74.3695 110.912C75.7014 112.223 77.0013 113.594 78.4002 114.846C79.0693 115.556 79.9142 116.075 80.8492 116.353C81.7842 116.63 82.7758 116.655 83.7235 116.424C85.8049 115.556 87.5016 113.964 88.5003 111.942C91.0141 107.785 94.0288 103.953 97.4768 100.53C99.0866 98.8564 100.894 97.384 102.858 96.1456C106.267 94.0326 111.105 93.849 113.662 97.0127C113.954 97.3799 114.194 97.7894 114.487 98.161C114.996 98.9989 115.525 99.0353 116.39 99.3923C117.165 99.7056 117.928 100.052 118.691 100.392C119.346 100.674 119.968 101.026 120.546 101.443C121.662 102.426 123.529 104.239 122.557 105.877C121.537 107.586 119.176 106.982 117.748 106.295C117.228 106.046 116.558 106.741 117.081 107.159C118.298 108.124 119.295 109.336 120.007 110.716C120.672 112.013 121.372 113.85 120.511 115.212C120.347 115.506 120.099 115.745 119.799 115.898C119.499 116.051 119.16 116.112 118.825 116.073C118.046 115.885 117.315 115.538 116.677 115.053C115.337 114.192 114.154 113.108 113.18 111.847C113.13 111.766 113.06 111.699 112.977 111.653C112.894 111.606 112.8 111.582 112.705 111.582C112.61 111.582 112.516 111.606 112.433 111.653C112.35 111.699 112.28 111.766 112.23 111.847C108.322 118.415 104.439 125.442 98.2492 130.138ZM148.601 113.395C148.478 113.565 148.416 113.686 146.32 117.264C144.617 120.493 142.059 123.191 138.925 125.065C135.792 126.939 132.204 127.916 128.554 127.89H102.411C106.469 123.403 109.954 118.43 112.788 113.086C113.551 113.981 114.415 114.786 115.361 115.485C116.459 116.506 117.886 117.102 119.385 117.165C120.033 117.054 120.629 116.739 121.085 116.265C121.541 115.792 121.834 115.185 121.92 114.533C122.088 113.009 121.747 111.472 120.951 110.161C120.56 109.401 120.084 108.687 119.533 108.032C122.885 108.582 124.94 105.593 123.455 103.232C123.455 103.232 153.765 103.239 154.548 103.232L148.58 113.406L148.601 113.395ZM77.1222 99.251C78.6025 96.7153 80.7213 94.6117 83.2676 93.1498C85.8138 91.6879 88.6987 90.9186 91.6348 90.9185C91.9117 90.9185 152.624 90.8748 153.762 90.9506C154.958 91.1084 156.056 91.6943 156.853 92.5996C157.65 93.5049 158.092 94.6684 158.098 95.8746C158.098 97.7034 156.859 99.2889 155.971 100.803L155.196 102.126H122.732C122.307 101.597 121.836 101.106 121.324 100.66C120.147 99.8002 118.846 99.1223 117.467 98.6491C116.931 98.4233 115.718 97.9351 115.718 97.9351C115.062 96.9697 114.308 96.0738 113.47 95.2611C112.296 94.392 110.932 93.8166 109.49 93.5831C108.049 93.3496 106.572 93.4648 105.184 93.919C103.026 94.6444 101.037 95.7972 99.3348 97.3085C97.5897 98.7973 95.9517 100.407 94.4327 102.126C94.4327 102.126 76.2246 102.085 75.4522 102.093L77.1222 99.251ZM74.7907 103.228H93.4971C91.3878 105.653 89.4812 108.248 87.7964 110.986C87.2066 111.995 86.5236 112.947 85.7563 113.829C84.9416 114.763 83.8142 115.368 82.5854 115.53C81.436 115.52 80.3298 115.091 79.4742 114.323C77.8713 112.956 75.0093 109.883 74.575 109.615C74.614 109.635 74.6507 109.66 74.6843 109.689C74.5867 109.543 72.4678 107.567 72.3192 107.43C73.1134 106.088 74.2107 104.214 74.7892 103.235L74.7907 103.228ZM57.5108 99.5205C58.7365 99.5303 59.9424 99.8299 61.03 100.395C62.444 101.068 63.7916 101.872 65.0549 102.798C68.0626 105.012 70.8969 107.453 73.5331 110.099C69.0725 115.276 65.9161 121.526 62.6957 126.606C59.7958 123.674 56.74 121.007 52.6699 120.442L52.224 120.124C49.4901 118.116 47.6311 115.135 47.0304 111.796C46.2566 106.571 52.0171 99.5409 57.5094 99.5205H57.5108ZM32.0093 127.339C35.2852 117.815 41.1835 109.409 49.0254 103.089C47.059 105.247 45.9327 108.04 45.8515 110.958C46.0073 112.753 46.5154 114.5 47.3468 116.099C48.1782 117.697 49.3166 119.116 50.6968 120.274C44.7586 120.357 39.5854 123.944 36.3766 128.101C32.1819 133.374 29.2991 139.567 27.9655 146.171C28.3038 139.719 29.6684 133.362 32.0078 127.339H32.0093ZM47.2723 171.347C49.8732 170.256 52.0684 168.38 53.5515 165.98C54.4661 164.358 55.1526 162.618 55.5917 160.809C55.854 159.829 56.1891 158.856 56.466 157.871C58.0723 162.313 59.5303 166.808 60.8377 171.347H47.2723ZM95.495 175.158C95.495 175.158 63.3281 175.139 62.9988 175.145C61.291 168.611 59.2536 162.169 56.8944 155.841C56.7225 155.379 55.9501 155.258 55.8321 155.841C55.5902 157.051 55.1895 158.245 54.8485 159.43C54.4321 161.231 53.8304 162.983 53.0532 164.66C51.9322 166.772 50.2354 168.523 48.1596 169.709C46.0837 170.896 43.714 171.469 41.3254 171.363C33.1416 171.346 28.3371 167.069 27.8314 157.957C27.7369 150.842 29.169 143.79 32.0312 137.276C34.1256 132.471 37.293 128.209 41.2904 124.818C45.1287 121.774 50.8702 120.241 55.6237 122.475C57.2222 123.277 58.695 124.308 59.9954 125.535C71.305 136.217 83.5093 157.056 95.4935 175.161L95.495 175.158ZM114.251 171.347H94.3161C85.9895 158.448 82.6306 153.093 76.7856 144.615C79.0443 144.39 114.267 140.67 114.267 140.67C114.267 175.709 114.273 169.896 114.25 171.35L114.251 171.347Z" fill="black"/>
<path d="M121.923 172.148C122.214 171.061 130.521 139.531 130.521 139.506C130.655 139.002 129.976 138.541 129.601 138.971C124.042 145.331 120.403 153.138 119.109 161.485C118.561 165.226 118.595 169.263 121.003 172.385C121.071 172.452 121.156 172.501 121.248 172.526C121.341 172.55 121.438 172.551 121.53 172.527C121.623 172.503 121.708 172.455 121.777 172.389C121.845 172.323 121.896 172.24 121.923 172.148ZM120.164 161.783C121.273 154.448 124.251 147.522 128.813 141.673C128.813 141.673 121.184 170.615 121.168 170.672C119.869 167.898 119.517 164.776 120.164 161.783Z" fill="black"/>
<path d="M65.9023 183.19C65.778 183.23 65.6715 183.311 65.6017 183.422C65.5319 183.532 65.5032 183.663 65.5206 183.792C65.538 183.921 65.6004 184.04 65.6969 184.128C65.7934 184.216 65.9177 184.266 66.048 184.271L103.429 185C103.536 184.997 103.641 184.963 103.73 184.902C103.818 184.841 103.888 184.756 103.929 184.657C103.97 184.557 103.981 184.448 103.962 184.342C103.942 184.236 103.892 184.138 103.818 184.06C94.5514 176.365 77.0428 178.711 65.9023 183.19ZM68.9624 183.228C78.5802 179.916 93.2982 178.163 101.731 183.871L68.9624 183.228Z" fill="black"/>
<path d="M112.986 97.295C111.169 96.4082 109.116 96.1215 107.125 96.476C106.427 96.5911 106.723 97.652 107.417 97.5369C109.218 97.2536 111.063 97.54 112.693 98.3558C113.355 98.6138 113.642 97.5514 112.986 97.295Z" fill="black"/>
<path d="M116.252 106.427C116.319 106.304 116.336 106.16 116.301 106.025C116.265 105.89 116.18 105.773 116.061 105.699C114.772 104.934 113.37 104.377 111.907 104.049C111.216 103.903 110.92 104.96 111.615 105.111C112.981 105.428 114.293 105.946 115.506 106.649C115.57 106.683 115.639 106.705 115.711 106.713C115.783 106.721 115.856 106.714 115.925 106.693C115.995 106.673 116.059 106.639 116.115 106.593C116.172 106.547 116.218 106.491 116.252 106.427Z" fill="black"/>
<path d="M84.7439 132.25H79.546C79.405 132.257 79.2721 132.318 79.1749 132.421C79.0777 132.523 79.0234 132.659 79.0234 132.8C79.0234 132.941 79.0777 133.077 79.1749 133.179C79.2721 133.282 79.405 133.343 79.546 133.35H84.7439C84.8849 133.343 85.0177 133.282 85.1149 133.179C85.2122 133.077 85.2664 132.941 85.2664 132.8C85.2664 132.659 85.2122 132.523 85.1149 132.421C85.0177 132.318 84.8849 132.257 84.7439 132.25Z" fill="black"/>
<path d="M58.3383 93.5994C59.3716 93.8494 60.4559 93.7868 61.4535 93.4194C62.4511 93.052 63.3171 92.3965 63.9414 91.536C64.5554 90.7662 64.8847 89.808 64.8735 88.8234C64.8624 87.8388 64.5115 86.8883 63.8802 86.1326C63.4324 85.6291 62.8892 85.2193 62.2821 84.9269C61.6749 84.6346 61.0159 84.4654 60.343 84.4292C59.6701 84.3931 58.9968 84.4906 58.3618 84.7161C57.7268 84.9417 57.1428 85.2909 56.6436 85.7435C56.0087 86.2742 55.531 86.9684 55.2621 87.7509C54.9931 88.5334 54.9432 89.3746 55.1177 90.1835C55.2922 90.9923 55.6845 91.7381 56.2521 92.3401C56.8197 92.9422 57.5412 93.3777 58.3383 93.5994ZM56.1671 88.6172C56.3137 87.9572 56.6255 87.3452 57.0732 86.8386C57.5209 86.332 58.0898 85.9473 58.7268 85.7205C59.3637 85.4938 60.0478 85.4325 60.7149 85.5423C61.382 85.652 62.0103 85.9294 62.541 86.3483C63.1506 86.8141 63.5692 87.4865 63.7181 88.2391C63.867 88.9918 63.736 89.7729 63.3498 90.4358C62.9291 91.2107 62.2792 91.8366 61.489 92.2279C60.6989 92.6192 59.8071 92.7567 58.9358 92.6216C58.4908 92.5411 58.066 92.3735 57.6859 92.1286C57.3057 91.8836 56.9776 91.566 56.7204 91.194C56.4632 90.822 56.2819 90.4029 56.187 89.9607C56.092 89.5185 56.0853 89.062 56.1671 88.6172Z" fill="black"/>
<path d="M56.3556 83.831C57.9585 83.7451 59.5615 83.6387 61.1498 83.4128C62.4003 83.2745 63.6234 82.9524 64.7798 82.4569C66.0185 81.9191 67.0782 81.0393 67.8346 79.9207C68.5911 78.8021 69.013 77.4911 69.0509 76.1412C68.8513 73.406 65.5886 72.4763 63.1084 73.7718C60.7642 75.2559 58.8934 77.3796 57.7166 79.8921C57.1337 80.9443 56.4765 81.9541 55.8849 83.0019C55.8374 83.0854 55.8125 83.1799 55.8125 83.276C55.8125 83.372 55.8374 83.4665 55.8849 83.5501C55.9323 83.6336 56.0006 83.7034 56.0831 83.7527C56.1656 83.8019 56.2595 83.8289 56.3556 83.831ZM64.7142 74.359C65.1511 74.2574 65.6046 74.2504 66.0444 74.3384C66.4843 74.4263 66.9002 74.6073 67.2644 74.8691C68.4389 75.6968 67.993 77.4921 67.2644 78.754C66.6205 79.7915 65.7339 80.6567 64.6811 81.2751C63.6283 81.8935 62.4409 82.2466 61.2212 82.3039C59.9385 82.4758 58.65 82.6012 57.3581 82.6798C59.2248 79.5409 61.2358 75.1678 64.7142 74.3532V74.359Z" fill="black"/>
<path d="M35.587 99.8033C35.4281 99.4492 24.1069 74.4999 23.9612 74.2391C24.1987 73.6751 24.1258 73.8121 24.0428 73.9841C24.4887 73.0252 26.7182 68.1857 35.587 48.6851C35.8784 48.0454 34.9297 47.4843 34.6368 48.1299C33.2933 51.0822 23.285 72.8591 22.9207 73.8821C22.8625 74.0551 22.8454 74.2394 22.8707 74.4202C22.896 74.601 22.963 74.7735 23.0664 74.924C23.4905 75.8581 34.5785 100.219 34.6412 100.366C34.9297 101.003 35.8784 100.444 35.587 99.8033Z" fill="black"/>
<path d="M94.2682 53.4376L100.021 57.8851C100.127 57.9844 100.266 58.0397 100.41 58.0397C100.555 58.0397 100.694 57.9844 100.8 57.8851C100.903 57.7818 100.96 57.6419 100.96 57.496C100.96 57.3501 100.903 57.2102 100.8 57.1069C100.67 57.0064 96.9291 54.1123 95.1907 52.7644L100.8 48.4247C100.903 48.3212 100.961 48.1811 100.961 48.0349C100.961 47.8888 100.903 47.7486 100.8 47.6451C100.695 47.5445 100.556 47.4883 100.41 47.4883C100.265 47.4883 100.126 47.5445 100.021 47.6451C100.021 47.6451 94.1167 52.1888 93.9243 52.3636C93.4872 52.8285 93.9316 53.1782 94.2682 53.4376Z" fill="black"/>
<path d="M94.2708 39.0905L100.024 43.5365C100.129 43.6365 100.268 43.6922 100.413 43.6922C100.558 43.6922 100.697 43.6365 100.802 43.5365C100.905 43.4333 100.963 43.2933 100.963 43.1474C100.963 43.0016 100.905 42.8616 100.802 42.7584L95.1859 38.4173L100.795 34.0762C100.898 33.9729 100.956 33.833 100.956 33.6871C100.956 33.5412 100.898 33.4013 100.795 33.298C100.69 33.1971 100.551 33.1406 100.406 33.1406C100.261 33.1406 100.121 33.1971 100.017 33.298C98.1893 34.7115 94.1119 37.8417 93.9196 38.0151C93.4897 38.4799 93.9342 38.8238 94.2708 39.0905Z" fill="black"/>
<path d="M94.2708 24.422L100.024 28.868C100.129 28.9679 100.268 29.0237 100.413 29.0237C100.558 29.0237 100.697 28.9679 100.802 28.868C100.905 28.7647 100.963 28.6248 100.963 28.4789C100.963 28.333 100.905 28.1931 100.802 28.0898L95.1859 23.7487L100.795 19.4077C100.898 19.3044 100.956 19.1645 100.956 19.0186C100.956 18.8727 100.898 18.7328 100.795 18.6295C100.69 18.5289 100.551 18.4727 100.406 18.4727C100.261 18.4727 100.121 18.5289 100.017 18.6295C98.1893 20.043 94.1119 23.1731 93.9196 23.348C93.4897 23.8114 93.9342 24.1611 94.2708 24.422Z" fill="black"/>
<path d="M144.844 38.4179L139.232 42.7634C139.129 42.8669 139.071 43.0071 139.071 43.1532C139.071 43.2993 139.129 43.4395 139.232 43.543C139.337 43.6433 139.477 43.6993 139.622 43.6993C139.767 43.6993 139.906 43.6433 140.011 43.543C141.838 42.128 145.915 38.9994 146.108 38.8245C146.545 38.3596 146.093 38.0099 145.756 37.7505L140.011 33.3031C139.905 33.2038 139.766 33.1484 139.622 33.1484C139.477 33.1484 139.338 33.2038 139.232 33.3031C139.181 33.354 139.14 33.4146 139.112 33.4814C139.085 33.5482 139.07 33.6198 139.07 33.6921C139.07 33.7645 139.085 33.8361 139.112 33.9029C139.14 33.9697 139.181 34.0303 139.232 34.0812L144.844 38.4179Z" fill="black"/>
<path d="M133.013 23.7465L127.403 28.0876C127.3 28.1909 127.242 28.3308 127.242 28.4767C127.242 28.6226 127.3 28.7625 127.403 28.8658C127.507 28.9671 127.647 29.0237 127.792 29.0237C127.937 29.0237 128.077 28.9671 128.181 28.8658C130.009 27.4523 134.086 24.3236 134.278 24.1487C134.715 23.6839 134.264 23.3341 133.929 23.0733L128.181 18.6273C128.076 18.528 127.937 18.4727 127.792 18.4727C127.648 18.4727 127.508 18.528 127.403 18.6273C127.3 18.7305 127.242 18.8705 127.242 19.0163C127.242 19.1622 127.3 19.3022 127.403 19.4054L133.013 23.7465Z" fill="black"/>
<path d="M117.109 27.8312C117.973 28.1473 118.911 28.2002 119.805 27.9831C120.699 27.7661 121.508 27.2889 122.131 26.6119C122.754 25.9349 123.162 25.0884 123.304 24.1795C123.446 23.2705 123.316 22.3399 122.929 21.5052C122.542 20.6704 121.916 19.9691 121.131 19.4899C120.346 19.0106 119.436 18.7749 118.517 18.8125C117.598 18.8501 116.71 19.1594 115.967 19.7012C115.223 20.243 114.657 20.9931 114.34 21.8566C114.129 22.4307 114.034 23.0406 114.059 23.6517C114.084 24.2627 114.229 24.8628 114.486 25.4177C114.743 25.9725 115.107 26.4713 115.557 26.8854C116.007 27.2995 116.534 27.6209 117.109 27.8312ZM117.508 20.1166C118.045 19.9246 118.62 19.8645 119.185 19.9414C119.751 20.0183 120.289 20.23 120.755 20.5586C121.221 20.8872 121.602 21.323 121.864 21.8294C122.126 22.3358 122.263 22.8979 122.263 23.4683C122.258 24.2004 122.03 24.9135 121.609 25.5124C121.187 26.1113 120.594 26.5675 119.906 26.8199C119.02 27.1344 118.044 27.0846 117.194 26.6812C116.344 26.2779 115.688 25.554 115.371 24.6681C115.053 23.7822 115.1 22.8066 115.501 21.9551C115.901 21.1036 116.623 20.4456 117.508 20.1254V20.1166Z" fill="black"/>
<path d="M74.2328 10.9587C73.9239 11.5941 74.874 12.1522 75.183 11.5154C76.6242 8.54805 78.8975 6.06405 81.7259 4.36624C81.8493 4.28829 81.9367 4.16456 81.969 4.02221C82.0012 3.87986 81.9756 3.73053 81.8979 3.60702C81.8243 3.48754 81.7076 3.40101 81.5718 3.36545C81.4361 3.32989 81.2919 3.34804 81.1693 3.41612C78.1514 5.17582 75.7341 7.80438 74.2328 10.9587Z" fill="black"/>
<path d="M72.0588 9.95311C73.8151 6.02029 76.9221 2.84665 80.8167 1.00717C81.4593 0.715727 80.8998 -0.241674 80.2615 0.0570584C76.1892 1.96934 72.9402 5.282 71.1072 9.39062C70.823 10.0391 71.7717 10.6001 72.0588 9.95311Z" fill="black"/>
<path d="M22.343 130.531C22.2073 130.498 22.0643 130.519 21.9431 130.588C21.8219 130.657 21.7314 130.769 21.6901 130.902C19.8439 137.275 19.1908 143.933 19.7637 150.543C19.8249 151.242 20.9294 151.25 20.8639 150.543C20.3134 144.032 20.9554 137.476 22.7583 131.195C22.7755 131.124 22.7784 131.051 22.7667 130.979C22.7551 130.907 22.7291 130.838 22.6904 130.776C22.6518 130.714 22.6011 130.66 22.5414 130.618C22.4817 130.576 22.4143 130.546 22.343 130.531Z" fill="black"/>
<path d="M18.1742 130.639C15.4055 137.556 15.1709 143.493 15.8121 150.537C15.8747 151.237 16.9779 151.242 16.9123 150.537C16.2565 143.317 16.599 137.651 19.2351 130.932C19.4945 130.271 18.4307 129.986 18.1742 130.639Z" fill="black"/>
<path d="M156.547 112.863C156.552 113.002 156.609 113.134 156.708 113.233C156.806 113.331 156.939 113.388 157.078 113.393H170.519C170.66 113.386 170.793 113.325 170.89 113.222C170.988 113.12 171.042 112.984 171.042 112.843C171.042 112.702 170.988 112.566 170.89 112.464C170.793 112.361 170.66 112.3 170.519 112.293H157.078C157.005 112.295 156.934 112.312 156.868 112.342C156.802 112.372 156.743 112.414 156.694 112.467C156.644 112.52 156.606 112.582 156.581 112.65C156.556 112.718 156.544 112.79 156.547 112.863Z" fill="black"/>
<path d="M157.415 110.404L165.879 103.777C166.437 103.339 165.653 102.566 165.101 102.998L156.637 109.624C156.079 110.062 156.862 110.835 157.415 110.404Z" fill="black"/>
<path d="M157.462 115.945C156.911 115.508 156.126 116.288 156.684 116.723L164.238 122.633C164.79 123.07 165.574 122.29 165.016 121.853L157.462 115.945Z" fill="black"/>
</svg>
