<svg width="39" height="38" viewBox="0 0 39 38" fill="none" xmlns="http://www.w3.org/2000/svg">
<path d="M35.648 0H3.26641C1.71523 0 0.460938 1.22461 0.460938 2.73867V35.2539C0.460938 36.768 1.71523 38 3.26641 38H35.648C37.1992 38 38.4609 36.768 38.4609 35.2613V2.73867C38.4609 1.22461 37.1992 0 35.648 0ZM11.7348 32.3816H6.09414V14.2426H11.7348V32.3816ZM8.91445 11.7711C7.10352 11.7711 5.64141 10.309 5.64141 8.50547C5.64141 6.70195 7.10352 5.23984 8.91445 5.23984C10.718 5.23984 12.1801 6.70195 12.1801 8.50547C12.1801 10.3016 10.718 11.7711 8.91445 11.7711ZM32.8426 32.3816H27.2094V23.5645C27.2094 21.4641 27.1723 18.7551 24.2777 18.7551C21.3461 18.7551 20.9008 21.0484 20.9008 23.416V32.3816H15.275V14.2426H20.6781V16.7215H20.7523C21.502 15.2965 23.3426 13.7898 26.0813 13.7898C31.7887 13.7898 32.8426 17.5453 32.8426 22.4289V32.3816Z" fill="white"/>
</svg>
