<svg width="39" height="38" viewBox="0 0 39 38" fill="none" xmlns="http://www.w3.org/2000/svg">
<path d="M19.7656 0.0703125C9.2723 0.0703125 0.765625 8.57699 0.765625 19.0703C0.765625 27.9806 6.90035 35.4574 15.176 37.511V24.8767H11.2582V19.0703H15.176V16.5684C15.176 10.1016 18.1027 7.10411 24.4518 7.10411C25.6556 7.10411 27.7327 7.34047 28.5824 7.57607V12.8391C28.134 12.792 27.355 12.7684 26.3875 12.7684C23.2723 12.7684 22.0684 13.9487 22.0684 17.0168V19.0703H28.2746L27.2083 24.8767H22.0684V37.9312C31.4765 36.795 38.7664 28.7846 38.7664 19.0703C38.7656 8.57699 30.2589 0.0703125 19.7656 0.0703125Z" fill="white"/>
</svg>
