<svg width="39" height="38" viewBox="0 0 39 38" fill="none" xmlns="http://www.w3.org/2000/svg">
<g clip-path="url(#clip0_4426_332)">
<path d="M19.0625 3.42148C24.1391 3.42148 24.7402 3.44375 26.7367 3.53281C28.5922 3.61445 29.5941 3.92617 30.2621 4.18594C31.1453 4.52734 31.7836 4.94297 32.4441 5.60352C33.1121 6.27148 33.5203 6.90234 33.8617 7.78555C34.1215 8.45352 34.4332 9.46289 34.5148 11.3109C34.6039 13.3148 34.6262 13.916 34.6262 18.9852C34.6262 24.0617 34.6039 24.6629 34.5148 26.6594C34.4332 28.5148 34.1215 29.5168 33.8617 30.1848C33.5203 31.068 33.1047 31.7063 32.4441 32.3668C31.7762 33.0348 31.1453 33.443 30.2621 33.7844C29.5941 34.0441 28.5848 34.3559 26.7367 34.4375C24.7328 34.5266 24.1316 34.5488 19.0625 34.5488C13.9859 34.5488 13.3848 34.5266 11.3883 34.4375C9.53281 34.3559 8.53086 34.0441 7.86289 33.7844C6.97969 33.443 6.34141 33.0273 5.68086 32.3668C5.01289 31.6988 4.60469 31.068 4.26328 30.1848C4.00352 29.5168 3.6918 28.5074 3.61016 26.6594C3.52109 24.6555 3.49883 24.0543 3.49883 18.9852C3.49883 13.9086 3.52109 13.3074 3.61016 11.3109C3.6918 9.45547 4.00352 8.45352 4.26328 7.78555C4.60469 6.90234 5.02031 6.26406 5.68086 5.60352C6.34883 4.93555 6.97969 4.52734 7.86289 4.18594C8.53086 3.92617 9.54023 3.61445 11.3883 3.53281C13.3848 3.44375 13.9859 3.42148 19.0625 3.42148ZM19.0625 0C13.9043 0 13.2586 0.0222656 11.2324 0.111328C9.21367 0.200391 7.82578 0.526953 6.62344 0.994531C5.36914 1.48438 4.30781 2.13008 3.25391 3.19141C2.19258 4.24531 1.54688 5.30664 1.05703 6.55352C0.589453 7.76328 0.262891 9.14375 0.173828 11.1625C0.0847656 13.1961 0.0625 13.8418 0.0625 19C0.0625 24.1582 0.0847656 24.8039 0.173828 26.8301C0.262891 28.8488 0.589453 30.2367 1.05703 31.4391C1.54688 32.6934 2.19258 33.7547 3.25391 34.8086C4.30781 35.8625 5.36914 36.5156 6.61602 36.998C7.82578 37.4656 9.20625 37.7922 11.225 37.8812C13.2512 37.9703 13.8969 37.9926 19.0551 37.9926C24.2133 37.9926 24.859 37.9703 26.8852 37.8812C28.9039 37.7922 30.2918 37.4656 31.4941 36.998C32.741 36.5156 33.8023 35.8625 34.8563 34.8086C35.9102 33.7547 36.5633 32.6934 37.0457 31.4465C37.5133 30.2367 37.8398 28.8563 37.9289 26.8375C38.018 24.8113 38.0402 24.1656 38.0402 19.0074C38.0402 13.8492 38.018 13.2035 37.9289 11.1773C37.8398 9.15859 37.5133 7.7707 37.0457 6.56836C36.5781 5.30664 35.9324 4.24531 34.8711 3.19141C33.8172 2.1375 32.7559 1.48438 31.509 1.00195C30.2992 0.534375 28.9188 0.207813 26.9 0.11875C24.8664 0.0222656 24.2207 0 19.0625 0Z" fill="white"/>
<path d="M19.0645 9.24219C13.6762 9.24219 9.30469 13.6137 9.30469 19.002C9.30469 24.3902 13.6762 28.7617 19.0645 28.7617C24.4527 28.7617 28.8242 24.3902 28.8242 19.002C28.8242 13.6137 24.4527 9.24219 19.0645 9.24219ZM19.0645 25.3328C15.5687 25.3328 12.7336 22.4977 12.7336 19.002C12.7336 15.5062 15.5687 12.6711 19.0645 12.6711C22.5602 12.6711 25.3953 15.5062 25.3953 19.002C25.3953 22.4977 22.5602 25.3328 19.0645 25.3328Z" fill="white"/>
<path d="M31.4867 8.85274C31.4867 10.1145 30.4625 11.1313 29.2082 11.1313C27.9465 11.1313 26.9297 10.107 26.9297 8.85274C26.9297 7.59102 27.9539 6.57422 29.2082 6.57422C30.4625 6.57422 31.4867 7.59844 31.4867 8.85274Z" fill="white"/>
</g>
<defs>
<clipPath id="clip0_4426_332">
<rect width="38" height="38" fill="white" transform="translate(0.0625)"/>
</clipPath>
</defs>
</svg>
