<svg width="186" height="186" viewBox="0 0 186 186" fill="none" xmlns="http://www.w3.org/2000/svg">
<path d="M126.524 25.3462C124.82 24.3747 124.23 25.3712 125.551 24.2963C130.409 20.3478 125.319 17.5223 120.916 20.1C121.064 19.6263 121.054 19.1172 120.886 18.65C120.718 18.1829 120.403 17.7832 119.987 17.5116C119.317 17.1834 118.579 17.0204 117.833 17.0362C117.087 17.052 116.356 17.2462 115.7 17.6026C111.991 19.0111 108.904 21.6935 106.992 25.1697C112.237 22.872 118.757 28.6333 115.925 33.6764C118.853 32.184 122.001 31.1682 125.25 30.6673C125.879 30.6159 126.48 30.3848 126.982 30.0015C127.484 29.6182 127.865 29.0987 128.08 28.505C128.171 27.8828 128.071 27.2477 127.793 26.6837C127.515 26.1197 127.073 25.6533 126.524 25.3462Z" fill="black"/>
<path d="M32.0291 92.4897C31.9871 92.6433 32.0078 92.8074 32.0867 92.9458C32.1656 93.0842 32.2962 93.1856 32.4498 93.2277C32.6031 93.2669 32.7657 93.2452 32.9033 93.1671C33.041 93.089 33.1429 92.9605 33.1878 92.8088L36.3609 85.2416L35.2681 84.7656L32.0291 92.4897Z" fill="black"/>
<path d="M64.5438 105.822C64.2051 106.513 65.239 107.123 65.5795 106.428L68.9914 99.4756L67.8933 98.9961L64.5438 105.822Z" fill="black"/>
<path d="M112.218 25.2016C111.296 24.7431 110.272 24.5298 109.243 24.5819C108.215 24.6341 107.217 24.9501 106.346 25.4994C105.475 26.0488 104.76 26.8131 104.27 27.7188C103.78 28.6244 103.531 29.641 103.548 30.6706C104.082 34.9845 109.532 37.5693 113.035 36.1967C113.915 35.8487 114.694 35.2858 115.301 34.5593C115.908 33.8329 116.323 32.966 116.509 32.0379C116.663 30.5824 116.324 29.1173 115.546 27.8776C114.768 26.638 113.596 25.6955 112.218 25.2016Z" fill="#F3AF82"/>
<path d="M95.9127 100.463C93.7397 97.2114 92.4331 94.7799 91.4045 93.418L88.3438 100.438C91.2048 100.463 92.294 100.463 95.9127 100.463Z" fill="#73B6D0"/>
<path d="M145.381 63.1823C142.199 55.9146 135.327 50.2958 127.76 47.3598C124.327 45.9839 120.631 45.3942 116.941 45.6342C112.536 45.793 108.171 46.5327 103.96 47.834C105.057 52.8521 105.047 58.0491 103.93 63.0628C104.19 63.408 104.36 63.8123 104.425 64.2393C104.518 65.4279 104.485 66.6228 104.329 67.8046C104.093 69.6713 104.282 71.5672 104.883 73.3503C106.29 76.4776 107.994 79.4623 109.973 82.2633C111.291 84.2114 112.909 85.9383 114.768 87.3794C117.322 89.3207 119.624 89.1496 121.185 86.3901C123.089 83.0334 122.592 82.1029 124.018 77.4628C124.928 75.1555 126.574 73.2129 128.701 71.9361C130.827 70.6593 133.316 70.1196 135.78 70.4007C138.244 70.6817 140.547 71.7679 142.332 73.4907C144.116 75.2135 145.282 77.4769 145.65 79.9299C145.829 81.5246 145.788 83.1364 145.527 84.7198C145.065 90.1493 143.728 95.4684 141.568 100.471H149.677C149.835 100.474 149.985 100.538 150.097 100.65C150.209 100.761 150.274 100.912 150.277 101.07C149.502 89.556 150.008 73.7478 145.381 63.1823ZM127.713 52.7272C124.554 53.6613 121.42 54.6765 118.314 55.7719C117.583 56.0304 117.271 54.87 117.994 54.615C121.096 53.5205 124.207 52.3939 127.394 51.5685C127.548 51.5262 127.712 51.5467 127.851 51.6254C127.989 51.7042 128.091 51.8347 128.133 51.9884C128.175 52.142 128.155 52.3062 128.076 52.4447C127.997 52.5833 127.867 52.6849 127.713 52.7272Z" fill="#73B6D0"/>
<path d="M64.1976 39.0779C64.0194 39.0561 63.8386 39.0813 63.6732 39.1511C63.5077 39.2208 63.3635 39.3326 63.2546 39.4754C62.4418 40.3168 62.3633 43.7876 64.5025 45.777C64.8171 44.2943 65.0486 42.7951 65.1959 41.2866C65.244 40.5111 64.9838 39.2116 64.1976 39.0779Z" fill="#F7DA31"/>
<path d="M73.9108 42.5913C73.9768 42.3667 74.0035 42.1421 73.8484 42.0226C73.6128 41.8793 73.3416 41.8051 73.0659 41.8087C72.007 41.8675 71.7236 44.2741 71.761 45.3454C72.7174 44.6427 73.4613 43.6897 73.9108 42.5913Z" fill="#F7DA31"/>
<path d="M86.8415 51.606C86.9048 51.4762 86.9357 51.3329 86.9313 51.1885C86.927 51.0441 86.8876 50.9029 86.8166 50.7771C86.567 50.3439 86.0518 50.7646 85.747 51.0124C84.4614 52.194 83.2442 53.4481 82.1016 54.7684C83.1019 54.5565 84.0552 54.1638 84.9145 53.6097C85.7511 53.1604 86.4252 52.4595 86.8415 51.606Z" fill="#F7DA31"/>
<path d="M80.59 47.4442C80.7447 47.1308 80.8258 46.7864 80.8271 46.437C80.8539 46.3033 80.7326 46.1821 80.6168 46.1108C80.5186 46.0722 80.4136 46.0547 80.3082 46.0593C80.2029 46.0639 80.0997 46.0906 80.0053 46.1375C78.2815 46.7632 77.6701 49.1822 77.7396 50.963C78.9271 50.0041 79.8985 48.8049 80.59 47.4442Z" fill="#F7DA31"/>
<path d="M83.7657 23.3054C75.553 19.7049 66.2738 19.384 57.832 22.4084C49.3902 25.4328 42.4259 31.5733 38.368 39.5699C37.7709 40.7482 37.5623 41.2794 35.2182 46.6558C35.7103 46.3022 36.264 46.0434 36.851 45.8928C37.3762 45.7634 37.9282 45.7948 38.4353 45.9829C38.9424 46.171 39.3813 46.5071 39.6951 46.9477C40.0088 47.3883 40.183 47.913 40.1949 48.4537C40.2069 48.9945 40.056 49.5264 39.762 49.9804C38.844 51.7416 37.7138 51.8503 35.9847 53.5295C34.596 55.1695 37.352 56.2747 38.4803 56.7917C39.8922 57.437 41.8512 58.8916 40.976 60.6938C40.7108 61.2295 40.2813 61.6663 39.7502 61.9405C39.2191 62.2148 38.6143 62.312 38.024 62.218C35.211 61.7919 32.5603 58.6848 32.0808 58.6135C32.1452 58.766 32.2247 58.9117 32.3179 59.0485C34.0363 62.1627 36.0613 63.587 36.4179 65.457C36.6639 66.7351 36.015 68.3894 34.473 68.2414C32.858 68.0863 31.5781 66.7155 29.5263 65.3126C29.373 65.2074 28.9737 64.8259 28.7919 64.9436C28.7705 64.9561 28.7705 64.9436 28.8543 65.0541C28.938 65.1646 29.644 66.1914 30.0896 66.9116C30.7706 68.0115 31.8722 69.6443 31.4676 71.0116C31.342 71.4151 31.1263 71.7846 30.8367 72.0923C30.547 72.4 30.1912 72.6376 29.796 72.7873C29.4009 72.9369 28.9768 72.9946 28.556 72.956C28.1353 72.9173 27.7288 72.7834 27.3676 72.5643C26.4665 71.9284 25.6246 71.2124 24.8523 70.4251C23.7667 72.9208 21.5491 78.0012 21.5242 78.0583C21.4461 78.1964 21.425 78.3595 21.4653 78.5129C21.5056 78.6663 21.6041 78.798 21.7399 78.88L84.9975 106.459C85.1356 106.537 85.2987 106.558 85.4522 106.518C85.6056 106.477 85.7373 106.379 85.8193 106.243L91.406 93.4279C90.9027 92.6133 90.2089 91.9333 89.3844 91.4464C88.56 90.9595 87.6295 90.6803 86.6732 90.6328C85.1276 90.6078 83.2095 90.7772 82.1043 89.4384C81.7277 88.9875 81.5181 88.4205 81.511 87.8331C81.5038 87.2456 81.6996 86.6736 82.0651 86.2137C83.7318 84.6824 85.748 84.6307 90.6662 83.7929C90.1643 83.6558 89.6491 83.5727 89.1296 83.5451C87.4782 83.4706 85.8331 83.292 84.2042 83.0104C83.1992 82.9391 82.2308 82.604 81.3966 82.0388C81.0403 81.7189 80.7755 81.3099 80.6294 80.8538C80.4833 80.3978 80.4612 79.911 80.5654 79.4436C80.6695 78.9762 80.8962 78.5449 81.2221 78.194C81.548 77.8431 81.9614 77.5852 82.4199 77.4468C85.0688 76.3773 86.6838 77.2365 90.586 77.1242C90.7036 77.1242 91.0388 77.1652 90.9568 76.9459C90.8926 76.7677 90.5343 76.7249 90.3703 76.666C89.5396 76.3648 88.7125 76.0528 87.8871 75.7391C86.707 75.2899 85.2364 74.9904 84.6891 73.714C84.4775 73.2281 84.4198 72.6889 84.5236 72.1692C84.6275 71.6494 84.8881 71.1739 85.2702 70.8066C86.2774 69.8511 88.0226 70.0775 89.2989 70.1149C92.0913 70.1742 94.8366 70.8467 97.3403 72.0847C98.3439 65.8616 98.4794 64.2305 99.8609 62.6761C100.248 62.3576 100.713 62.1476 101.208 62.0678C101.703 61.9879 102.21 62.041 102.677 62.2215C102.745 62.2411 102.795 62.2804 102.856 62.3053C103.269 62.4621 103.632 62.7306 103.902 63.0808C105.682 55.1443 104.646 46.8358 100.972 39.5792C97.2987 32.3225 91.2157 26.5693 83.7657 23.3054ZM87.2026 53.2443C85.5682 54.9803 83.3142 56.0003 80.9314 56.0822C70.8237 67.1586 62.4238 79.68 56.0087 93.2336C55.6754 93.9324 54.6415 93.3228 54.9712 92.6293C61.314 79.2364 69.5859 66.8456 79.5231 55.8523C78.9089 55.5891 78.3582 55.1974 77.9081 54.7036C77.4579 54.2098 77.1187 53.6253 76.9134 52.9894L76.8866 53.0054C76.4649 53.2967 75.9725 53.469 75.4612 53.5041C74.9499 53.5392 74.4386 53.4359 73.981 53.2051C72.2185 51.782 71.088 49.7215 70.8347 47.4704C70.0108 47.9542 69.0837 48.2348 68.1298 48.2891C67.176 48.3433 66.223 48.1696 65.3496 47.7824C62.5349 62.8149 56.6873 77.1164 48.1635 89.8146C47.7339 90.4545 46.6946 89.852 47.126 89.2085C55.6591 76.5083 61.4879 62.1882 64.2497 47.1389C61.4653 45.0158 60.8093 40.8534 62.2247 38.8676C62.4905 38.4866 62.8671 38.1967 63.3034 38.0372C63.7397 37.8777 64.2145 37.8565 64.6633 37.9762C66.1946 38.4059 66.5011 40.4452 66.3657 41.7893C66.1969 43.3978 65.9387 44.9957 65.592 46.5756C66.388 46.9914 67.2843 47.1768 68.1799 47.111C69.0756 47.0452 69.9351 46.7307 70.6618 46.203C70.5405 45.1555 70.5905 44.0953 70.8097 43.0638C70.8788 42.6159 71.0415 42.1875 71.2873 41.8067C71.533 41.4258 71.8562 41.101 72.2358 40.8534C72.6707 40.6419 73.1626 40.5775 73.6372 40.6702C74.1119 40.7628 74.5435 41.0073 74.8669 41.3668C76.0684 42.9283 73.4961 45.645 71.9167 46.8073C72.1382 48.6597 72.9164 50.4014 74.1486 51.8022C74.3627 52.0323 74.6268 52.2104 74.9204 52.3227C75.528 52.3331 76.1225 52.1454 76.6139 51.7879C76.0951 47.8662 78.2343 44.9088 80.3681 44.8678C81.7942 44.8411 82.2701 46.2618 81.8904 47.3956C81.0692 49.3806 79.7042 51.0934 77.9526 52.337C78.0832 52.9449 78.384 53.5032 78.8198 53.9467C79.2557 54.3902 79.8088 54.7005 80.4144 54.8415C81.7229 53.3923 83.0259 51.9038 84.4467 50.5633C84.9717 49.9626 85.6782 49.5495 86.4592 49.3867C88.2311 49.2869 88.6893 51.8646 87.2026 53.2443Z" fill="#F7DA31"/>
<path d="M158.784 152.614C152.205 147.192 139.603 136.457 134.216 129.816C122.667 136.997 112.028 143.813 105.219 155.664C113.089 165.122 123.147 172.517 134.521 177.209C134.624 177.237 134.732 177.237 134.834 177.21C134.937 177.183 135.031 177.129 135.106 177.054C140.956 171.321 156.699 155.561 158.784 153.463C158.896 153.35 158.959 153.197 158.959 153.038C158.959 152.88 158.896 152.727 158.784 152.614Z" fill="#C21818"/>
<path d="M38.4854 56.7889C37.3534 56.272 34.5975 55.1667 35.9897 53.5267C36.6247 52.9093 37.3219 52.3591 38.07 51.8849C42.318 48.8545 39.3179 43.7972 35.2179 46.653C34.4264 47.2038 33.6884 47.8848 33.0377 48.416C29.6263 50.8713 26.5435 53.7535 23.8644 56.9921C22.5875 58.6676 21.8511 60.6922 21.7534 62.7965C21.6556 64.9008 22.2011 66.985 23.3172 68.7716C23.9086 69.5371 24.5889 70.2295 25.344 70.8341C25.9663 71.4722 26.6486 72.0488 27.3815 72.5561C27.7427 72.7756 28.1492 72.9098 28.5701 72.9486C28.9909 72.9875 29.4151 72.9298 29.8103 72.7802C30.2056 72.6305 30.5615 72.3927 30.8511 72.0848C31.1407 71.7769 31.3563 71.4071 31.4815 71.0035C31.8915 69.6398 30.7845 68.0069 30.1035 66.9034C29.6579 66.1815 28.9609 65.1654 28.8682 65.046C28.7755 64.9265 28.7844 64.9479 28.8058 64.9354C28.9841 64.8178 29.3869 65.1993 29.5402 65.3045C31.6241 66.7305 32.8737 68.0782 34.487 68.2333C36.0289 68.3812 36.6778 66.727 36.4318 65.4488C36.0106 64.1727 35.3012 63.0108 34.3586 62.053C33.5122 60.9664 32.7545 59.8135 32.0929 58.6054C32.5742 58.6767 35.241 61.7874 38.0362 62.2098C38.6264 62.3038 39.2313 62.2066 39.7624 61.9324C40.2935 61.6582 40.723 61.2214 40.9882 60.6857C41.8563 58.887 39.8954 57.4324 38.4854 56.7889ZM28.7185 53.5802C28.803 53.5922 28.8838 53.6233 28.9545 53.6712C29.0252 53.7191 29.0841 53.7824 29.1267 53.8565C29.5919 54.6569 30.1 55.4306 30.5528 56.2327C30.6239 56.3695 30.6398 56.5284 30.5971 56.6765C30.5544 56.8247 30.4564 56.9507 30.3233 57.0286C30.1902 57.1065 30.0323 57.1302 29.8823 57.0949C29.7322 57.0595 29.6014 56.9679 29.5171 56.8388C29.0304 56.0527 28.5616 55.2541 28.091 54.4626C28.0378 54.3634 28.0134 54.2513 28.0204 54.139C28.0275 54.0267 28.0658 53.9185 28.1311 53.8268C28.1963 53.7351 28.2858 53.6634 28.3896 53.6198C28.4934 53.5763 28.6073 53.5625 28.7185 53.5802ZM24.5739 64.4755L23.2441 62.6377C22.7895 62.012 23.8306 61.413 24.2798 62.0333L25.6096 63.8694C26.0642 64.4951 25.0231 65.0941 24.5739 64.4737V64.4755Z" fill="#F3AF82"/>
<path d="M150.263 101.058C150.259 100.9 150.194 100.749 150.083 100.638C149.971 100.526 149.82 100.462 149.662 100.459H141.553C140.033 103.972 137.805 107.135 135.006 109.747C132.208 112.36 128.9 114.367 125.291 115.643C118.075 117.869 109.324 115.982 101.439 107.523C99.4087 105.322 97.5605 102.959 95.9132 100.459C95.9132 100.459 89.3603 100.444 88.3443 100.434L85.8183 106.229C85.7363 106.365 85.6046 106.463 85.4512 106.503C85.2977 106.544 85.1347 106.523 84.9965 106.445C84.9965 106.445 83.9412 105.986 83.5063 105.794C84.239 110.197 85.4278 114.512 87.0536 118.67C79.909 124.811 70.167 134.294 66.3897 142.913C62.3059 153.231 59.9568 164.153 59.4375 175.237C59.4389 175.396 59.5024 175.548 59.6144 175.66C59.7263 175.772 59.8779 175.836 60.0365 175.838H98.1058C98.2373 175.837 98.3649 175.794 98.4694 175.714C98.5739 175.634 98.6496 175.522 98.6852 175.396C99.4591 168.644 101.57 162.114 104.896 156.188C108.221 150.261 112.694 145.056 118.053 140.877C123.171 136.827 128.563 133.134 134.189 129.825C140.607 125.994 146.06 121.32 148.629 114.343C149.419 112.156 149.943 109.882 150.188 107.569C150.332 105.402 150.357 103.228 150.263 101.058ZM81.4099 132.431C80.236 133.714 79.1906 135.109 78.2886 136.596C78.2054 136.727 78.0745 136.821 77.9235 136.858C77.7725 136.895 77.6131 136.871 77.4787 136.793C77.3444 136.715 77.2456 136.588 77.2032 136.438C77.1607 136.289 77.1779 136.128 77.2511 135.991C78.1827 134.4 79.2934 132.921 80.5614 131.583C81.0873 131.016 81.934 131.866 81.4099 132.433V132.431ZM96.2341 112.798C96.0255 113.263 93.0682 114.759 88.2926 119.155C87.7578 119.65 86.9734 118.914 87.3817 118.39C89.8914 116.059 92.5788 113.927 95.4194 112.013C95.956 111.652 96.4498 112.316 96.2341 112.8V112.798Z" fill="#FF4848"/>
<path d="M99.8985 184.652C89.35 179.731 77.4394 178.551 66.1306 181.308C63.0309 182.087 60.0263 183.205 57.1712 184.641C57.0549 184.705 56.9631 184.806 56.9099 184.928C56.8567 185.049 56.8451 185.185 56.877 185.314C56.9089 185.443 56.9825 185.557 57.0863 185.64C57.1901 185.723 57.3183 185.769 57.451 185.771H99.5955C100.157 185.771 100.456 184.914 99.8985 184.652Z" fill="black"/>
<path d="M166.93 155.514C158.817 163.642 157.419 166.972 152.312 172.062C148.104 176.301 143.02 179.569 137.415 181.634C137.273 181.661 137.145 181.737 137.052 181.847C136.96 181.958 136.908 182.097 136.906 182.242C136.905 182.386 136.953 182.527 137.043 182.639C137.133 182.752 137.26 182.83 137.401 182.861C143.556 185.264 152.441 182.921 158.828 173.498C162.409 168.061 165.439 162.28 167.873 156.241C168.122 155.653 167.452 154.991 166.93 155.514Z" fill="black"/>
<path d="M37.0819 23.5438C37.6791 24.0233 38.5348 23.1873 37.9322 22.6953L30.7573 16.9357C30.1619 16.4579 29.3062 17.2922 29.9087 17.786L37.0819 23.5438Z" fill="black"/>
<path d="M145.638 79.9183C145.271 77.4653 144.104 75.2019 142.32 73.4791C140.536 71.7563 138.233 70.6701 135.768 70.3891C133.304 70.108 130.816 70.6477 128.689 71.9245C126.563 73.2013 124.917 75.1439 124.006 77.4512C122.618 81.9683 123.067 83.0414 121.174 86.3785C119.603 89.1487 117.288 89.2931 114.756 87.3678C112.897 85.9267 111.279 84.1999 109.961 82.2517C108.12 79.645 106.51 76.8828 105.148 73.9965C104.319 72.0415 104.029 69.8999 104.308 67.7948C104.465 66.613 104.497 65.4181 104.405 64.2295C104.346 63.7959 104.172 63.3861 103.901 63.0427C103.629 62.6994 103.271 62.4351 102.863 62.2776C102.799 62.2526 102.749 62.2134 102.684 62.1938C102.217 62.0132 101.71 61.9602 101.215 62.04C100.72 62.1199 100.255 62.3299 99.8679 62.6484C99.1861 63.4161 98.7269 64.3554 98.5399 65.3651C97.9784 67.6825 97.8055 69.2422 97.3473 72.057C94.8437 70.819 92.0984 70.1465 89.306 70.0872C88.0296 70.0498 86.2844 69.8234 85.2773 70.7789C84.8951 71.1462 84.6346 71.6217 84.5307 72.1414C84.4268 72.6612 84.4846 73.2003 84.6962 73.6863C85.2434 74.9626 86.7141 75.2621 87.8941 75.7113C88.7195 76.0251 89.5466 76.337 90.3773 76.6383C90.5413 76.6971 90.8996 76.7328 90.9638 76.9182C91.0458 77.1446 90.7107 77.0964 90.593 77.0964C86.7194 77.2087 85.0669 76.3531 82.4269 77.4191C81.9684 77.5575 81.555 77.8153 81.2291 78.1662C80.9032 78.5171 80.6766 78.9484 80.5724 79.4159C80.4683 79.8833 80.4904 80.37 80.6364 80.8261C80.7825 81.2822 81.0473 81.6912 81.4037 82.0111C82.2378 82.5762 83.2063 82.9114 84.2113 82.9826C85.8402 83.2639 87.4853 83.4425 89.1366 83.5174C89.6561 83.5458 90.1712 83.6288 90.6732 83.7652C85.8067 84.5941 83.7211 84.6672 82.0722 86.186C81.7066 86.6459 81.5109 87.2179 81.518 87.8053C81.5252 88.3928 81.7347 88.9598 82.1114 89.4107C83.2166 90.7494 85.1418 90.5783 86.6802 90.6051C92.2598 90.7013 92.684 98.1188 101.44 107.51C109.339 115.981 118.092 117.849 125.291 115.629C128.901 114.353 132.208 112.346 135.007 109.733C137.805 107.121 140.034 103.959 141.554 100.445C143.749 95.4541 145.087 90.1293 145.513 84.6939C145.773 83.1153 145.815 81.5084 145.638 79.9183ZM104.426 90.1238C104.799 90.3305 113.327 95.2185 113.327 95.2185C113.464 95.2986 113.564 95.43 113.604 95.5838C113.645 95.7376 113.622 95.9011 113.542 96.0385C113.462 96.1758 113.331 96.2757 113.177 96.3161C113.023 96.3566 112.86 96.3343 112.722 96.2542C112.35 96.0474 103.82 91.1612 103.82 91.1612C103.752 91.1214 103.692 91.0686 103.645 91.0058C103.597 90.9429 103.562 90.8713 103.542 90.795C103.522 90.7187 103.517 90.6392 103.528 90.561C103.538 90.4829 103.564 90.4076 103.604 90.3395C103.644 90.2713 103.697 90.2117 103.76 90.164C103.823 90.1163 103.894 90.0814 103.971 90.0614C104.047 90.0414 104.126 90.0366 104.204 90.0473C104.283 90.058 104.358 90.084 104.426 90.1238ZM117.448 110.961C119.211 111.444 121.076 111.417 122.824 110.88C123.564 110.645 123.878 111.806 123.143 112.037C121.192 112.667 119.097 112.696 117.129 112.119C117.053 112.098 116.982 112.063 116.919 112.014C116.857 111.966 116.805 111.906 116.766 111.837C116.687 111.698 116.667 111.534 116.709 111.38C116.751 111.227 116.853 111.096 116.992 111.018C117.13 110.939 117.294 110.918 117.448 110.961ZM96.948 77.0768C97.7092 77.2016 97.3848 78.3585 96.6289 78.2355L93.6252 77.7489C92.8641 77.6259 93.1885 76.4689 93.9443 76.5902L96.948 77.0768ZM93.9586 83.8846C95.0404 84.2056 96.1576 84.3924 97.2849 84.4408C98.0568 84.4729 98.0586 85.6744 97.2849 85.6405C96.0496 85.5948 94.8249 85.3941 93.6395 85.0433C93.5634 85.0224 93.4922 84.9866 93.4299 84.9382C93.3677 84.8897 93.3156 84.8294 93.2766 84.7608C93.2376 84.6922 93.2125 84.6166 93.2028 84.5383C93.193 84.46 93.1987 84.3805 93.2197 84.3044C93.2406 84.2283 93.2764 84.1571 93.3249 84.0949C93.3733 84.0326 93.4336 83.9805 93.5022 83.9415C93.5708 83.9025 93.6464 83.8774 93.7247 83.8677C93.803 83.8579 93.8825 83.8637 93.9586 83.8846Z" fill="#F3AF82"/>
<path d="M67.2127 11.2149L65.7296 1.65294C65.6102 0.891769 64.4532 1.2162 64.5709 1.97203L66.054 11.534C66.1717 12.2951 67.3304 11.9707 67.2127 11.2149Z" fill="black"/>
<path d="M94.8535 15.2902L99.8145 5.1846C100.153 4.49473 99.1175 3.88507 98.777 4.58029L93.8178 14.6841C93.4773 15.374 94.513 15.9837 94.8535 15.2902Z" fill="black"/>
<path d="M118.306 55.7679C121.407 54.6734 124.545 53.6573 127.705 52.7232C127.782 52.7023 127.853 52.6665 127.915 52.6181C127.977 52.5696 128.029 52.5093 128.068 52.4407C128.107 52.3721 128.132 52.2965 128.142 52.2182C128.152 52.1399 128.146 52.0604 128.125 51.9843C128.104 51.9083 128.069 51.8371 128.02 51.7748C127.972 51.7125 127.911 51.6604 127.843 51.6214C127.774 51.5824 127.699 51.5573 127.62 51.5476C127.542 51.5378 127.462 51.5436 127.386 51.5645C124.199 52.3899 121.088 53.5165 117.987 54.611C117.268 54.8659 117.575 56.0264 118.306 55.7679Z" fill="black"/>
<path d="M11.4837 44.2832C11.3303 44.241 11.1664 44.2615 11.0281 44.34C10.8897 44.4186 10.7881 44.5488 10.7457 44.7021C10.7064 44.8554 10.7281 45.018 10.8063 45.1556C10.8844 45.2932 11.0128 45.3952 11.1646 45.4401L20.4341 49.3297C20.5876 49.3719 20.7514 49.3514 20.8898 49.2729C21.0281 49.1943 21.1297 49.0641 21.1721 48.9108C21.2114 48.7575 21.1897 48.5949 21.1116 48.4573C21.0334 48.3197 20.905 48.2177 20.7532 48.1728L11.4837 44.2832Z" fill="black"/>
<path d="M173.353 90.4531H163.234C163.074 90.4531 162.921 90.5164 162.809 90.6291C162.696 90.7417 162.633 90.8945 162.633 91.0539C162.633 91.2132 162.696 91.366 162.809 91.4787C162.921 91.5913 163.074 91.6546 163.234 91.6546H173.353C173.513 91.6546 173.666 91.5913 173.778 91.4787C173.891 91.366 173.954 91.2132 173.954 91.0539C173.954 90.8945 173.891 90.7417 173.778 90.6291C173.666 90.5164 173.513 90.4531 173.353 90.4531Z" fill="black"/>
<path d="M153.093 66.8069H160.453C160.613 66.8069 160.765 66.7437 160.878 66.631C160.991 66.5183 161.054 66.3655 161.054 66.2062C161.054 66.0469 160.991 65.8941 160.878 65.7814C160.765 65.6688 160.613 65.6055 160.453 65.6055H153.093C152.934 65.6055 152.781 65.6688 152.668 65.7814C152.555 65.8941 152.492 66.0469 152.492 66.2062C152.492 66.3655 152.555 66.5183 152.668 66.631C152.781 66.7437 152.934 66.8069 153.093 66.8069Z" fill="black"/>
<path d="M174.248 54.8789H159.631C159.477 54.8873 159.333 54.9541 159.227 55.0657C159.121 55.1773 159.062 55.3251 159.062 55.4788C159.062 55.6324 159.121 55.7802 159.227 55.8918C159.333 56.0034 159.477 56.0702 159.631 56.0786H174.248C174.401 56.0702 174.546 56.0034 174.651 55.8918C174.757 55.7802 174.816 55.6324 174.816 55.4788C174.816 55.3251 174.757 55.1773 174.651 55.0657C174.546 54.9541 174.401 54.8873 174.248 54.8789Z" fill="black"/>
<path d="M113.351 95.208C113.351 95.208 104.823 90.3201 104.451 90.1133C104.313 90.0329 104.149 90.0105 103.995 90.0509C103.841 90.0914 103.709 90.1914 103.629 90.329C103.549 90.4666 103.526 90.6304 103.567 90.7845C103.607 90.9387 103.707 91.0704 103.845 91.1508C103.845 91.1508 112.374 96.0369 112.747 96.2437C112.883 96.3122 113.041 96.3262 113.188 96.2827C113.334 96.2392 113.458 96.1415 113.535 96.0096C113.612 95.8776 113.636 95.7212 113.602 95.5723C113.568 95.4234 113.478 95.2931 113.351 95.208Z" fill="black"/>
<path d="M122.832 110.871C121.084 111.407 119.219 111.435 117.456 110.951C117.38 110.93 117.3 110.925 117.222 110.934C117.144 110.944 117.068 110.969 116.999 111.008C116.861 111.087 116.759 111.218 116.717 111.371C116.675 111.525 116.695 111.689 116.774 111.828C116.852 111.966 116.983 112.068 117.137 112.11C119.102 112.685 121.195 112.657 123.144 112.028C123.886 111.796 123.572 110.636 122.832 110.871Z" fill="#FF4848"/>
<path d="M93.6358 77.7379L96.6395 78.2245C97.3953 78.3475 97.7197 77.1906 96.9586 77.0659L93.9549 76.5792C93.2044 76.458 92.8746 77.6149 93.6358 77.7379Z" fill="#FF4848"/>
<path d="M97.2899 84.4443C96.1622 84.3935 95.0451 84.2043 93.9636 83.8809C93.8875 83.86 93.808 83.8542 93.7297 83.864C93.6514 83.8737 93.5758 83.8988 93.5072 83.9378C93.4386 83.9768 93.3783 84.0289 93.3298 84.0912C93.2814 84.1535 93.2456 84.2247 93.2247 84.3007C93.2037 84.3768 93.198 84.4563 93.2077 84.5346C93.2175 84.6129 93.2426 84.6885 93.2816 84.7571C93.3205 84.8258 93.3726 84.886 93.4349 84.9345C93.4972 84.983 93.5684 85.0187 93.6445 85.0396C94.8297 85.3913 96.0545 85.592 97.2899 85.6368C98.0636 85.6778 98.0618 84.4763 97.2899 84.4443Z" fill="#FF4848"/>
<path d="M95.4238 112.015C92.6186 113.92 89.9528 116.022 87.4466 118.306C87.3457 118.421 87.2922 118.57 87.2972 118.723C87.3022 118.876 87.3651 119.021 87.4733 119.129C87.5816 119.238 87.7269 119.301 87.8799 119.306C88.0328 119.31 88.1819 119.257 88.2969 119.156C90.7223 116.935 93.3069 114.895 96.0299 113.051C96.6378 112.639 96.078 111.575 95.4238 112.015Z" fill="#F3AF82"/>
<path d="M80.5685 131.586C79.3005 132.925 78.1899 134.404 77.2582 135.995C77.1851 136.132 77.1679 136.292 77.2103 136.442C77.2528 136.591 77.3516 136.718 77.4859 136.797C77.6202 136.875 77.7796 136.898 77.9306 136.861C78.0816 136.824 78.2125 136.73 78.2957 136.599C79.1977 135.112 80.2432 133.718 81.417 132.435C81.9411 131.868 81.0944 131.018 80.5685 131.586Z" fill="#F3AF82"/>
<path d="M24.281 62.0308C23.8317 61.4105 22.7907 62.0095 23.2453 62.6352L24.5751 64.473C25.0243 65.0934 26.0653 64.4944 25.6108 63.8669L24.281 62.0308Z" fill="#FF4848"/>
<path d="M29.5255 56.8347C29.6099 56.9638 29.7406 57.0554 29.8907 57.0908C30.0408 57.1261 30.1987 57.1023 30.3317 57.0245C30.4648 56.9466 30.5628 56.8206 30.6056 56.6724C30.6483 56.5243 30.6324 56.3654 30.5612 56.2286C30.1031 55.4265 29.595 54.6528 29.1351 53.8524C29.0548 53.7148 28.923 53.6148 28.7689 53.5744C28.6148 53.5339 28.4509 53.5563 28.3134 53.6367C28.1758 53.7171 28.0758 53.8488 28.0353 54.0029C27.9949 54.1571 28.0173 54.3209 28.0977 54.4585C28.57 55.25 29.0389 56.0486 29.5255 56.8347Z" fill="#FF4848"/>
<path d="M105.202 34.3815C108.525 37.5581 113.823 37.8255 116.076 33.8467C118.97 32.3791 122.079 31.3803 125.287 30.8876C130.084 29.8715 128.568 25.2777 125.404 24.6894C130.688 20.7106 126.039 17.2773 121.201 19.6874C121.26 19.2305 121.188 18.7661 120.993 18.3486C120.798 17.931 120.489 17.5774 120.101 17.329C119.403 16.9758 118.629 16.7973 117.847 16.8091C117.064 16.8209 116.296 17.0226 115.609 17.3968C111.876 18.8166 108.764 21.5092 106.822 24.9996C105.944 25.3628 105.172 25.9425 104.578 26.6846C103.984 27.4268 103.588 28.3072 103.426 29.2439C103.264 30.1805 103.342 31.1429 103.653 32.0412C103.963 32.9396 104.496 33.7447 105.202 34.3815ZM119.252 21.4094C119.257 21.5696 119.307 21.7251 119.398 21.8571C119.489 21.9892 119.616 22.0923 119.763 22.1539C119.911 22.2155 120.074 22.233 120.231 22.2044C120.389 22.1757 120.535 22.1021 120.652 21.9923C123.001 19.83 127.839 20.0867 125.484 22.4416C124.199 23.675 122.698 24.6607 121.055 25.349C120.163 25.7305 120.771 27.1637 121.675 26.8624L121.773 26.8303C123.165 26.3704 125.071 25.7412 126.217 26.9106C126.409 27.0766 126.551 27.292 126.629 27.5335C126.706 27.7749 126.716 28.033 126.657 28.2796C125.741 29.8839 123.153 28.793 116.792 31.6666C117.222 27.7805 113.181 24.1974 109.127 24.4309C111.2 21.469 114.266 19.3489 117.769 18.4556C118.082 18.364 118.416 18.3694 118.726 18.4713C119.036 18.5731 119.308 18.7666 119.506 19.0261C119.721 19.6767 119.361 20.0404 119.252 21.4094ZM113.514 34.3244C110.086 36.9003 103.262 32.8841 105.35 28.5862C107.423 24.3169 113.773 25.7519 115.09 30.3314C115.23 31.0778 115.157 31.8488 114.878 32.5553C114.599 33.2618 114.127 33.8751 113.514 34.3244Z" fill="black"/>
<path d="M158.927 153.629C159.003 153.55 159.064 153.458 159.104 153.356C159.145 153.255 159.165 153.146 159.163 153.037C159.162 152.928 159.139 152.82 159.095 152.719C159.052 152.619 158.99 152.528 158.911 152.452C153.458 147.958 140.252 136.829 134.539 129.888C138.307 127.748 141.694 124.998 144.561 121.75C149.037 116.598 151.032 109.628 150.486 101.049C149.467 84.8768 150.474 67.1487 141.552 56.7294C136.548 50.9267 129.709 47.0109 122.171 45.6326C116.08 45.0561 109.936 45.7084 104.101 47.5507C102.478 40.4758 98.7155 34.0726 93.3243 29.2124C87.9331 24.3521 81.1755 21.2707 73.9708 20.3875C66.7662 19.5043 59.4643 20.8621 53.0588 24.2762C46.6533 27.6903 41.455 32.9949 38.1714 39.4683C37.5564 40.6805 37.2659 41.3936 35.0412 46.5061C34.2604 47.0409 33.5277 47.729 32.902 48.2441C29.4758 50.7114 26.3798 53.6073 23.6895 56.8613C22.697 58.2148 22.0229 59.775 21.7177 61.4254C21.4124 63.0758 21.4838 64.7739 21.9265 66.3929C22.3808 67.9949 23.3137 69.4198 24.6004 70.4768L21.3489 77.9389C21.2952 78.0343 21.2609 78.1394 21.248 78.2481C21.2351 78.3569 21.2438 78.4671 21.2736 78.5725C21.3034 78.6778 21.3538 78.7763 21.4218 78.8621C21.4898 78.9479 21.574 79.0195 21.6698 79.0726L34.993 84.8821L31.8307 92.4333C31.7695 92.6425 31.7938 92.8674 31.8985 93.0586C32.0031 93.2499 32.1794 93.3917 32.3886 93.4529C32.5978 93.5141 32.8228 93.4898 33.014 93.3851C33.2052 93.2805 33.3471 93.1042 33.4083 92.895L36.494 85.5364L67.6148 99.1038L64.3686 105.726C63.8998 106.678 65.3295 107.495 65.8054 106.528L69.1228 99.7544L83.3267 105.947C84.0563 110.273 85.2228 114.513 86.8081 118.604C79.4584 124.932 69.9678 134.239 66.2065 142.829C61.8052 152.878 59.7214 166.155 59.2347 175.244C59.2366 175.462 59.324 175.67 59.4781 175.824C59.6322 175.978 59.8406 176.065 60.0583 176.066H98.1295C98.3138 176.063 98.4918 175.999 98.6362 175.884C98.7805 175.769 98.8831 175.61 98.9281 175.432C99.8017 168.635 101.947 162.064 105.253 156.062C113.131 165.425 123.147 172.753 134.455 177.428C134.596 177.467 134.744 177.468 134.884 177.431C135.025 177.394 135.154 177.322 135.258 177.22C141.162 171.424 157.1 155.465 158.927 153.629ZM133.11 130.77C139.135 137.984 151.75 148.666 157.13 153.112C149.108 161.133 143.982 166.75 134.491 175.679C123.468 171.042 113.731 163.803 106.116 154.582C113.034 143.665 122.826 137.073 133.11 130.77ZM60.93 174.423C61.4739 165.197 63.2448 156.085 66.1958 147.327C67.8715 142.452 70.524 136.82 78.5047 128.692C83.9004 123.153 89.7198 118.044 95.9101 113.411C96.206 113.213 96.3219 113.135 96.4128 112.951C98.3334 111.493 100.283 110.073 102.26 108.692C109.18 115.645 117.59 118.26 125.359 115.866C132.161 113.498 137.768 108.565 140.983 102.12H148.896C149.418 108.314 147.753 114.495 144.19 119.59C138.768 126.911 131.7 128.597 118.362 138.842C112.635 143.041 107.824 148.363 104.223 154.484C100.622 160.604 98.3066 167.395 97.4182 174.441L60.93 174.423ZM86.6405 51.5099C86.2414 52.3258 85.5952 52.9951 84.7938 53.4226C84.1732 53.8238 83.5009 54.1387 82.7954 54.3585C83.779 53.2321 84.824 52.1609 85.9257 51.1498C86.7332 50.5027 86.817 51.148 86.6405 51.5099ZM77.9646 50.4831C78.0698 46.6327 80.6385 45.916 80.6082 46.4455C80.6082 47.7361 78.9343 49.6114 77.9646 50.4831ZM71.9946 44.8857C71.9989 44.0465 72.185 43.2182 72.5401 42.4578C72.9822 41.7216 73.8521 42.0353 73.7131 42.5166C73.3439 43.4356 72.7536 44.2494 71.9946 44.8857ZM63.3507 39.7304C63.4021 39.6192 63.4808 39.5228 63.5795 39.4503C63.6783 39.3778 63.7938 39.3316 63.9153 39.3159C64.0367 39.3002 64.1602 39.3156 64.2741 39.3607C64.388 39.4057 64.4886 39.479 64.5665 39.5735C65.2207 40.6199 65.0335 41.5896 64.3562 45.3242C63.6783 44.5814 63.2242 43.6621 63.0463 42.6724C62.8684 41.6826 62.9739 40.6627 63.3507 39.7304ZM65.5131 48.0944C66.3446 48.4215 67.237 48.5652 68.1292 48.5156C69.0214 48.4661 69.8924 48.2245 70.6826 47.8074C70.9926 50.0159 72.1418 52.02 73.8913 53.403C74.3473 53.6313 74.8527 53.7432 75.3625 53.7289C75.8722 53.7146 76.3705 53.5745 76.813 53.321C77.2485 54.4506 78.0867 55.3789 79.1661 55.9272C69.4746 66.6991 61.3711 78.7998 55.1008 91.8628L48.8617 89.1479C57.0733 76.6997 62.733 62.7457 65.5131 48.0944ZM81.0324 56.3033C83.4376 56.2008 85.707 55.161 87.3554 53.4066C88.9793 51.9003 88.4624 49.041 86.4141 49.1622C85.0504 49.4492 84.4372 50.0535 80.3354 54.5884C79.8236 54.4402 79.3589 54.162 78.9866 53.7809C78.6142 53.3998 78.3469 52.9288 78.2106 52.4137C79.9362 51.151 81.2827 49.4395 82.1038 47.4651C82.2462 47.1673 82.3116 46.8384 82.2939 46.5088C82.2762 46.1791 82.176 45.8591 82.0024 45.5783C81.8289 45.2974 81.5876 45.0646 81.3007 44.9012C81.0138 44.7379 80.6905 44.6492 80.3604 44.6433C79.8741 44.6769 79.4004 44.8129 78.9703 45.0424C78.5402 45.2719 78.1635 45.5896 77.8648 45.9749C77.2456 46.7744 76.7947 47.6911 76.5395 48.6697C76.2843 49.6483 76.23 50.6684 76.3798 51.6685C75.9715 51.9565 75.4837 52.1104 74.9841 52.1088C74.727 52.0088 74.4968 51.8501 74.312 51.6453C73.1323 50.3152 72.3812 48.6602 72.1568 46.8965C73.6663 45.8585 74.796 44.3564 75.3745 42.6182C75.6347 40.7696 73.5384 39.9692 72.1123 40.6573C71.7094 40.9215 71.3663 41.2673 71.1053 41.6723C70.8444 42.0773 70.6712 42.5325 70.5971 43.0086C70.382 44.0193 70.3255 45.0573 70.4295 46.0854C69.7654 46.5427 68.9924 46.8165 68.1886 46.8791C67.3847 46.9417 66.5786 46.7909 65.8517 46.4419C66.1832 44.9117 66.4302 43.3645 66.5915 41.8071C66.7217 40.5343 66.4739 38.2419 64.7287 37.7588C64.2364 37.6298 63.7164 37.6545 63.2385 37.8294C62.7606 38.0043 62.3475 38.3212 62.0548 38.7375C60.6091 40.7661 61.1635 44.9766 64.0157 47.2316C61.3163 61.9722 55.6441 76.0089 47.3447 88.4866C45.1271 87.5133 25.5113 78.9086 23.1494 77.9068L25.875 71.6516C26.295 72.2001 26.855 72.6255 27.4961 72.883C28.1372 73.1405 28.8358 73.2207 29.5186 73.1151C29.9085 73.0221 30.2759 72.8524 30.5994 72.6158C30.923 72.3792 31.1961 72.0805 31.4029 71.7372C32.369 70.1328 31.328 68.4589 30.4099 66.9776C30.111 66.4914 29.8008 66.0124 29.4794 65.5408C31.5526 66.9669 32.7986 68.3056 34.4707 68.4661C36.0876 68.6212 36.9521 66.9562 36.6562 65.4196C36.3264 63.7118 34.8736 62.6958 32.804 59.4264C34.2512 60.861 36.0431 61.899 38.0074 62.4408C40.8364 62.8633 43.8668 58.979 38.38 56.4994C36.8986 55.8291 35.1089 54.9271 36.1499 53.6918C36.7774 53.0835 37.4655 52.5411 38.2035 52.0732C41.947 49.3993 40.2838 45.2297 37.2338 45.6005C37.2338 45.6005 38.355 43.0318 38.7436 42.1351C42.0306 34.4948 48.0288 28.3413 55.5826 24.86C63.1363 21.3787 71.7111 20.816 79.655 23.2803C87.5989 25.7446 94.3498 31.0616 98.6071 38.2068C102.864 45.352 104.327 53.8199 102.713 61.9791C102.209 61.7988 101.668 61.7533 101.141 61.8472C100.615 61.941 100.122 62.1708 99.7124 62.5139C98.3006 64.1022 98.158 65.6656 97.1847 71.7372C94.7255 70.5677 92.0459 69.934 89.3234 69.8779C87.9508 69.8405 86.2074 69.6123 85.1342 70.6302C84.7201 71.0295 84.4376 71.5457 84.3245 72.1098C84.2114 72.6739 84.2731 73.2591 84.5014 73.7872C85.1485 75.2952 86.6405 75.4343 90.4143 76.8996C86.8491 76.978 84.997 76.1705 82.3552 77.2329C81.8568 77.3844 81.408 77.6665 81.0554 78.0499C80.7029 78.4334 80.4594 78.9042 80.3503 79.4136C80.2411 79.9229 80.2703 80.4522 80.4348 80.9464C80.5992 81.4407 80.893 81.8819 81.2856 82.2243C82.1456 82.8065 83.143 83.1537 84.1788 83.2314C85.8891 83.5208 87.6155 83.706 89.3483 83.7858C86.0202 84.3206 83.5638 84.5434 81.9024 86.0729C81.5073 86.5736 81.2958 87.1947 81.3033 87.8325C81.3108 88.4702 81.5367 89.0862 81.9434 89.5775C83.1021 90.9804 84.9738 90.8253 86.678 90.8539C87.3573 90.8669 88.0272 91.0155 88.6484 91.291C89.2695 91.5665 89.8293 91.9633 90.2949 92.4582C90.2949 92.4582 85.5139 103.332 84.8775 104.862L56.6089 92.5367C62.9385 79.3318 71.1669 67.1246 81.0324 56.3033ZM23.185 62.94L24.3936 64.6067C25.0051 65.457 26.4258 64.6174 25.7912 63.7404L24.4596 61.9025C24.3353 61.7301 24.1513 61.61 23.9435 61.5656C23.7357 61.5211 23.5187 61.5554 23.3348 61.6618C24.0738 58.8848 25.6823 56.4173 27.925 54.6205C27.925 54.6205 29.0124 56.4406 29.3315 56.9575C29.3862 57.0512 29.4589 57.1331 29.5454 57.1986C29.6318 57.2642 29.7303 57.3121 29.8353 57.3396C29.9402 57.367 30.0495 57.3736 30.157 57.3588C30.2645 57.344 30.368 57.3082 30.4616 57.2534C30.5553 57.1987 30.6372 57.126 30.7028 57.0395C30.7683 56.9531 30.8162 56.8546 30.8437 56.7496C30.8711 56.6447 30.8777 56.5354 30.8629 56.4279C30.8481 56.3204 30.8123 56.2169 30.7576 56.1233C30.2959 55.3122 29.8003 54.5581 29.3315 53.7453C29.281 53.6591 29.2151 53.583 29.1372 53.5207C30.6934 52.1694 35.3299 48.294 36.3318 47.6541C36.658 47.4455 37.7721 46.8305 38.4388 47.606C38.6229 47.8652 38.7247 48.1739 38.7311 48.4918C38.7375 48.8097 38.648 49.1221 38.4745 49.3886C37.7097 50.7986 36.0162 51.3494 34.9342 52.5777C34.6449 52.8979 34.434 53.2811 34.3183 53.6969C34.2026 54.1128 34.1852 54.5498 34.2675 54.9735C35.1303 57.9504 38.6349 57.4977 39.6349 59.3837C39.7183 59.5155 39.7604 59.6692 39.756 59.8251C39.7515 59.981 39.7007 60.1321 39.61 60.2589C39.446 60.4573 39.235 60.6114 38.9962 60.7073C38.7574 60.8032 38.4983 60.8378 38.2427 60.808C35.9093 60.2571 34.7969 58.7954 32.9858 57.4781C32.6693 57.2464 32.2744 57.1483 31.8863 57.205C31.4982 57.2617 31.1479 57.4686 30.9109 57.7811C30.3672 58.5137 30.8342 59.2999 31.2068 59.9327C33.4707 63.776 35.6918 65.1379 35.0144 66.5284C34.6579 67.2503 33.4332 66.359 32.7755 65.8777C32.2157 65.4695 32.3512 65.5907 31.1105 64.6673C29.8698 63.7439 29.2762 63.3036 28.4758 63.5247C28.0994 63.6297 27.7796 63.879 27.586 64.2185C27.3924 64.558 27.3406 64.9601 27.4419 65.3376C27.6291 66.015 28.9749 67.3163 29.9375 69.6052C30.0591 69.8108 30.1241 70.0449 30.126 70.2838C30.1278 70.5226 30.0665 70.7578 29.9482 70.9653C29.7631 71.2307 29.4882 71.4201 29.1742 71.4984C28.8603 71.5767 28.5286 71.5387 28.2405 71.3913C27.5635 70.9607 26.9451 70.4442 26.4009 69.8547C25.715 69.3162 25.0913 68.7027 24.5416 68.0258C23.5851 66.5068 23.1121 64.7335 23.185 62.94ZM103.267 73.0367C104.652 76.4478 106.419 79.6909 108.535 82.7038C109.847 84.6219 114.456 90.8182 118.806 90.0339C122.583 89.3511 124.12 83.2457 124.51 81.3757C124.733 79.8347 125.177 78.3338 125.828 76.9192C127.072 74.6209 129.178 72.9104 131.683 72.1631C134.187 71.4158 136.886 71.6928 139.186 72.9333C140.676 73.7198 141.934 74.8812 142.837 76.3027C143.74 77.7241 144.257 79.3566 144.336 81.0388C144.354 82.6905 144.225 84.3406 143.951 85.9695C143.425 91.1628 142.012 96.2274 139.775 100.943C136.031 108.493 128.289 115.096 119.631 115.096C107.379 115.096 99.1313 103.459 93.9706 94.6776C92.2629 91.7701 90.1755 89.2103 86.7992 89.2103C85.5353 89.2103 83.7973 89.4456 83.1448 88.4188C82.1626 86.8733 84.5995 86.2797 86.4159 85.9321C90.3591 85.1709 92.2664 85.4775 92.2575 83.7662C92.2575 82.2474 90.1737 82.153 89.0578 82.0995C86.926 82.0397 84.8081 81.7358 82.7455 81.1939C82.5052 81.1078 82.2964 80.9511 82.1466 80.7444C81.9968 80.5376 81.9129 80.2904 81.9059 80.0352C81.9541 79.1296 83.1021 78.6804 83.4372 78.5699C84.7948 78.2671 86.1975 78.2242 87.5711 78.4433C88.7971 78.6113 90.0396 78.6215 91.2682 78.4736C91.5898 78.3799 91.8729 78.1859 92.0764 77.9199C92.2798 77.6538 92.3929 77.3297 92.3991 76.9948C92.4053 76.6599 92.3042 76.3318 92.1107 76.0585C91.9172 75.7851 91.6413 75.5808 91.3234 75.4753C90.491 75.1491 87.4534 74.0314 86.76 73.7658C86.5063 73.6982 86.2843 73.544 86.1323 73.3299C85.9804 73.1159 85.9081 72.8554 85.928 72.5936C85.9479 72.3319 86.0587 72.0853 86.2413 71.8967C86.4238 71.708 86.6666 71.5892 86.9276 71.5607C90.5548 71.256 94.1921 72.0168 97.3932 73.7497C97.4872 73.8052 97.5914 73.8414 97.6995 73.8562C97.8076 73.8711 97.9176 73.8643 98.0231 73.8363C98.1286 73.8083 98.2275 73.7595 98.314 73.693C98.4005 73.6264 98.4729 73.5433 98.527 73.4485C98.7287 72.6824 98.8694 71.9015 98.9477 71.1132C99.1295 68.7891 99.6291 66.5009 100.433 64.3126C100.526 64.0157 100.729 63.7654 101 63.612C101.271 63.4585 101.59 63.4133 101.893 63.4855C102.045 63.4847 102.195 63.5141 102.336 63.5717C102.476 63.6293 102.604 63.7141 102.712 63.8213C102.82 63.9284 102.906 64.0558 102.964 64.1961C103.023 64.3364 103.053 64.4868 103.053 64.6388C103.042 68.86 102.349 69.3895 103.267 73.0367ZM88.6923 100.218L91.4643 93.8611C92.3378 95.0822 93.4733 97.175 95.5072 100.238C94.1827 100.236 90.0863 100.227 88.6923 100.218ZM86.0309 106.322L87.965 101.885H96.6338C97.9929 103.854 99.4867 105.728 101.105 107.491C97.4717 110.054 91.0953 114.791 88.1005 117.431C86.7888 113.962 85.7896 110.382 85.1146 106.735C85.2915 106.774 85.4763 106.755 85.6415 106.681C85.8066 106.606 85.9432 106.48 86.0309 106.322ZM141.892 100.238C143.985 95.3099 145.282 90.0811 145.734 84.7467C146.395 81.7761 145.97 78.6668 144.534 75.9833C143.47 74.0861 141.889 72.5296 139.976 71.4945C138.063 70.4593 135.895 69.9879 133.725 70.135C131.554 70.282 129.47 71.0415 127.714 72.3253C125.958 73.6091 124.601 75.3646 123.803 77.388C122.416 81.9016 122.861 82.9676 120.99 86.2726C120.569 87.0449 119.954 87.6947 119.207 88.1586C117.925 88.9144 115.97 88.007 114.9 87.1924C113.06 85.7664 111.457 84.057 110.153 82.128C108.819 80.2214 107.6 78.2374 106.501 76.1866C105.811 74.9729 105.243 73.6938 104.805 72.3682C103.914 68.5213 104.955 67.8065 104.643 64.2074C104.577 63.7791 104.414 63.3717 104.165 63.0166C105.171 58.4662 105.265 53.7618 104.443 49.1747C107.593 48.2319 110.824 47.585 114.094 47.2423C117.383 46.7996 120.724 46.9287 123.968 47.6238C131.778 49.5598 138.531 54.4521 142.803 61.2697C148.531 70.9492 148.05 87.8894 148.805 100.238H141.892Z" fill="black"/>
<path d="M99.9878 184.455C93.2895 181.286 85.9726 179.639 78.5624 179.633C71.1522 179.626 63.8324 181.261 57.1286 184.418C56.9576 184.492 56.8169 184.623 56.7294 184.787C56.6419 184.952 56.6127 185.141 56.6466 185.325C56.6805 185.508 56.7755 185.675 56.9161 185.797C57.0567 185.919 57.2346 185.991 57.4209 185.999H99.5903C99.7711 185.996 99.9458 185.933 100.088 185.821C100.23 185.709 100.331 185.554 100.376 185.378C100.421 185.203 100.408 185.018 100.337 184.851C100.267 184.685 100.145 184.546 99.9878 184.455ZM95.4849 184.352H61.3373C72.3537 180.269 84.4685 180.269 95.4849 184.352Z" fill="black"/>
<path d="M166.768 155.358C158.855 163.287 157.094 166.98 152.151 171.905C147.98 176.122 142.932 179.369 137.366 181.416C137.177 181.453 137.006 181.553 136.881 181.699C136.757 181.846 136.686 182.031 136.68 182.223C136.674 182.415 136.734 182.604 136.85 182.758C136.965 182.912 137.129 183.022 137.316 183.07C143.419 185.455 152.434 183.321 159.008 173.622C162.605 168.179 165.643 162.385 168.075 156.331C168.165 156.157 168.19 155.957 168.147 155.766C168.103 155.575 167.992 155.405 167.835 155.288C167.678 155.171 167.484 155.114 167.289 155.127C167.093 155.139 166.909 155.221 166.768 155.358ZM164.709 159.941C162.921 163.866 160.873 167.667 158.579 171.319C155.144 176.818 151.261 180.107 146.357 181.669C144.326 182.315 142.171 182.468 140.07 182.114C152.393 176.743 156.828 168.625 164.709 159.941Z" fill="black"/>
<path d="M29.7542 17.9575C37.5282 24.1966 37.0397 23.9078 37.4586 23.9078C37.6252 23.9218 37.792 23.8831 37.9353 23.7971C38.0787 23.7111 38.1914 23.5822 38.2574 23.4286C38.3234 23.275 38.3395 23.1046 38.3033 22.9414C38.2672 22.7781 38.1806 22.6304 38.0558 22.5192L30.8808 16.7613C30.0572 16.0982 28.9164 17.2854 29.7542 17.9575Z" fill="black"/>
<path d="M65.8296 11.5696C65.9918 12.6249 67.5891 12.2345 67.434 11.181L65.9509 1.62081C65.7904 0.574415 64.1914 0.950547 64.3465 2.00764L65.8296 11.5696Z" fill="black"/>
<path d="M95.0779 15.3835L100.037 5.27789C100.504 4.32776 99.0745 3.51132 98.6004 4.47571L93.6394 14.5813C93.1723 15.5332 94.602 16.3479 95.0779 15.3835Z" fill="black"/>
<path d="M127.317 51.3582C124.129 52.1817 120.997 53.319 117.901 54.4082C117.721 54.4704 117.568 54.5919 117.466 54.7526C117.364 54.9134 117.32 55.1039 117.341 55.2931C117.362 55.4822 117.446 55.6587 117.58 55.7936C117.714 55.9285 117.89 56.0139 118.079 56.0357C118.446 56.0357 121.063 54.9216 127.746 52.9447C127.95 52.8804 128.12 52.7397 128.222 52.5524C128.323 52.365 128.348 52.1456 128.292 51.9401C128.235 51.7346 128.101 51.5592 127.917 51.4507C127.734 51.3421 127.515 51.309 127.308 51.3582H127.317Z" fill="black"/>
<path d="M11.0624 45.6451C21.152 49.8788 20.3534 49.5669 20.5709 49.5669C20.7515 49.567 20.9272 49.5078 21.0709 49.3983C21.2146 49.2888 21.3182 49.135 21.3659 48.9608C21.4195 48.7553 21.3924 48.5371 21.2904 48.3509C21.1883 48.1646 21.0189 48.0244 20.8169 47.959L11.5259 44.0604C11.3193 44.008 11.1005 44.0378 10.9154 44.1434C10.7303 44.2491 10.5933 44.4223 10.5333 44.6268C10.4733 44.8313 10.4949 45.0511 10.5936 45.24C10.6923 45.4289 10.8603 45.5722 11.0624 45.6398V45.6451Z" fill="black"/>
<path d="M173.338 90.2314H163.207C162.996 90.2412 162.796 90.3322 162.65 90.4854C162.503 90.6386 162.422 90.8422 162.422 91.054C162.422 91.2658 162.503 91.4695 162.65 91.6227C162.796 91.7759 162.996 91.8669 163.207 91.8767H173.329C173.44 91.8819 173.551 91.8645 173.656 91.8254C173.76 91.7864 173.855 91.7267 173.936 91.6498C174.016 91.5729 174.08 91.4804 174.124 91.378C174.168 91.2756 174.191 91.1654 174.191 91.054C174.191 90.9427 174.168 90.8324 174.124 90.73C174.08 90.6276 174.016 90.5352 173.936 90.4583C173.855 90.3814 173.76 90.3216 173.656 90.2826C173.551 90.2436 173.44 90.2262 173.329 90.2314H173.338Z" fill="black"/>
<path d="M153.082 67.0242H160.46C160.672 67.0144 160.872 66.9234 161.018 66.7702C161.164 66.617 161.246 66.4134 161.246 66.2016C161.246 65.9898 161.164 65.7861 161.018 65.6329C160.872 65.4797 160.672 65.3888 160.46 65.3789H153.082C152.871 65.3888 152.671 65.4797 152.525 65.6329C152.378 65.7861 152.297 65.9898 152.297 66.2016C152.297 66.4134 152.378 66.617 152.525 66.7702C152.671 66.9234 152.871 67.0144 153.082 67.0242Z" fill="black"/>
<path d="M174.249 54.6641H159.613C159.402 54.6739 159.202 54.7649 159.056 54.9181C158.91 55.0713 158.828 55.2749 158.828 55.4867C158.828 55.6985 158.91 55.9022 159.056 56.0554C159.202 56.2086 159.402 56.2996 159.613 56.3094H174.245C174.457 56.2996 174.656 56.2086 174.802 56.0554C174.949 55.9022 175.03 55.6985 175.03 55.4867C175.03 55.2749 174.949 55.0713 174.802 54.9181C174.656 54.7649 174.457 54.6739 174.245 54.6641H174.249Z" fill="black"/>
<path d="M103.709 91.3441C103.709 91.3441 112.246 96.2356 112.622 96.4424C112.742 96.5094 112.877 96.5444 113.014 96.544C113.194 96.544 113.368 96.4853 113.511 96.377C113.655 96.2687 113.759 96.1166 113.808 95.9438C113.857 95.7711 113.848 95.587 113.783 95.4196C113.718 95.2522 113.6 95.1107 113.447 95.0163C110.481 93.3098 107.51 91.6115 104.534 89.9216C104.439 89.8694 104.335 89.8366 104.227 89.825C104.119 89.8134 104.01 89.8233 103.906 89.8542C103.802 89.885 103.705 89.9362 103.621 90.0046C103.537 90.0731 103.468 90.1576 103.416 90.2532C103.319 90.4384 103.294 90.6537 103.349 90.856C103.403 91.0583 103.531 91.2326 103.709 91.3441Z" fill="black"/>
<path d="M117.059 112.328C119.07 112.919 121.212 112.89 123.206 112.244C123.406 112.176 123.572 112.033 123.67 111.845C123.768 111.658 123.79 111.44 123.732 111.237C123.673 111.033 123.539 110.86 123.356 110.753C123.174 110.647 122.957 110.614 122.751 110.663C121.043 111.186 119.221 111.213 117.498 110.741C117.291 110.692 117.072 110.725 116.889 110.834C116.705 110.942 116.571 111.118 116.514 111.323C116.457 111.528 116.482 111.748 116.584 111.935C116.686 112.123 116.856 112.263 117.059 112.328Z" fill="black"/>
<path d="M93.5821 77.9644C96.6321 78.4599 96.6125 78.4635 96.7319 78.4635C97.6731 78.4635 97.9798 77.016 96.9762 76.8591L93.9725 76.3725C92.9279 76.1996 92.5232 77.7932 93.5821 77.9644Z" fill="black"/>
<path d="M97.2849 84.2281C96.1719 84.1796 95.0692 83.9946 94.0013 83.6773C93.7924 83.6247 93.5711 83.656 93.385 83.7646C93.1988 83.8733 93.0627 84.0505 93.0058 84.2584C92.9489 84.4662 92.9757 84.6881 93.0805 84.8764C93.1853 85.0647 93.3597 85.2044 93.5664 85.2656C94.7672 85.63 96.0109 85.8343 97.2653 85.8735C98.3544 85.9091 98.3277 84.2727 97.2849 84.2281Z" fill="black"/>
<path d="M80.3854 131.434C79.1048 132.786 77.9845 134.282 77.0466 135.891C76.9778 136.016 76.943 136.158 76.9454 136.301C76.9479 136.444 76.9876 136.584 77.0607 136.707C77.1337 136.83 77.2376 136.932 77.362 137.003C77.4865 137.073 77.6272 137.11 77.7703 137.11C78.7401 137.11 78.503 135.892 81.562 132.593C82.2839 131.805 81.1128 130.648 80.3854 131.434Z" fill="black"/>
<rect x="27.6328" y="140.52" width="26.126" height="28.5907" rx="3.94355" fill="#ECEFF1"/>
<path d="M51.1188 151.821H46.7108V149.162C46.7108 148.747 46.8429 148.549 46.9701 148.446C47.1109 148.332 47.307 148.285 47.5027 148.285H47.5054H47.5082H47.511H47.5139H47.5168H47.5198H47.5229H47.526H47.5292H47.5324H47.5357H47.539H47.5424H47.5459H47.5494H47.553H47.5567H47.5604H47.5641H47.5679H47.5718H47.5757H47.5797H47.5837H47.5878H47.592H47.5961H47.6004H47.6047H47.6091H47.6135H47.6179H47.6225H47.627H47.6317H47.6363H47.6411H47.6458H47.6507H47.6556H47.6605H47.6655H47.6705H47.6756H47.6807H47.6859H47.6911H47.6964H47.7018H47.7071H47.7126H47.718H47.7236H47.7291H47.7348H47.7404H47.7461H47.7519H47.7577H47.7636H47.7695H47.7754H47.7814H47.7874H47.7935H47.7996H47.8058H47.812H47.8182H47.8245H47.8309H47.8373H47.8437H47.8502H47.8567H47.8632H47.8698H47.8765H47.8831H47.8898H47.8966H47.9034H47.9102H47.9171H47.924H47.931H47.938H47.945H47.9521H47.9592H47.9663H47.9735H47.9808H47.988H47.9953H48.0026H48.01H48.0174H48.0249H48.0323H48.0399H48.0474H48.055H48.0626H48.0703H48.0779H48.0857H48.0934H48.1012H48.109H48.1169H48.1248H48.1327H48.1406H48.1486H48.1566H48.1647H48.1727H48.1808H48.189H48.1971H48.2053H48.2136H48.2218H48.2301H48.2384H48.2467H48.2551H48.2635H48.2719H48.2804H48.2889H48.2974H48.3059H48.3145H48.3231H48.3317H48.3403H48.349H48.3577H48.3664H48.3751H48.3839H48.3927H48.4015H48.4103H48.4192H48.428H48.4369H48.4459H48.4548H48.4638H48.4728H48.4818H48.4908H48.4999H48.509H48.5181H48.5272H48.5363H48.5455H48.5546H48.5638H48.5731H48.5823H48.5915H48.6008H48.6101H48.6194H48.6287H48.6381H48.6474H48.6568H48.6662H48.6756H48.685H48.6945H48.7039H48.7134H48.7229H48.7324H48.7419H48.7514H48.7609H48.7705H48.7801H48.7896H48.7992H48.8088H48.8184H48.8281H48.8377H48.8474H48.857H48.8667H48.8764H48.8861H48.8958H48.9055H48.9152H48.925H48.9347H48.9445H48.9542H48.964H48.9738H48.9835H48.9933H49.0031H49.0129H49.0228H49.0326H49.0424H49.0522H49.0621H49.0719H49.0818H49.0916H49.1015H49.1113H49.1212H49.1311H49.1409H49.1508H49.1607H49.1706H49.1805H49.1904H49.2002H49.2101H49.22H49.2299H49.2398H49.2497H49.2596H49.2695H49.2794H49.2893H49.2992H49.3091H49.319H49.3289H49.3388H49.3487H49.3585H49.3684H49.3783H49.3882H49.3981H49.4079H49.4178H49.4277H49.4375H49.4474H49.4573H49.4671H49.4769H49.4868H49.4966H49.5064H49.5163H49.5261H49.5359H49.5457H49.5555H49.5653H49.575H49.5848H49.5946H49.6043H49.614H49.6238H49.6335H49.6432H49.6529H49.6626H49.6723H49.682H49.6916H49.7013H49.7109H49.7206H49.7302H49.7398H49.7494H49.7589H49.7685H49.7781H49.7876H49.7971H49.8066H49.8161H49.8256H49.8351H49.8445H49.854H49.8634H49.8728H49.8822H49.8916H49.9009H49.9103H49.9196H49.9289H49.9382H49.9474H49.9567H49.9659H49.9751H49.9843H49.9935H50.0027H50.0118H50.0209H50.03H50.0391H50.0481H50.0572H50.0662H50.0752H50.0842H50.0931H50.102H50.1109H50.1198H50.1287H50.1375H50.1463H50.1551H50.1639H50.1726H50.1813H50.19H50.1986H50.2073H50.2159H50.2245H50.233H50.2416H50.2501H50.2586H50.267H50.2754H50.2838H50.2922H50.3005H50.3088H50.3171H50.3254H50.3336H50.3418H50.35H50.3581H50.3662H50.3743H50.3823H50.3903H50.3983H50.4062H50.4142H50.422H50.4299H50.4377H50.4455H50.4532H50.461H50.4686H50.4763H50.4839H50.4915H50.499H50.5065H50.514H50.5215H50.5289H50.5362H50.5436H50.5509H50.5581H50.5653H50.5725H50.5797H50.5868H50.5938H50.6009H50.6079H50.6148H50.6217H50.6286H50.6355H50.6422H50.649H50.6557H50.6624H50.669H50.6756H50.6822H50.6887H50.6951H50.7016H50.7079H50.7143H50.7206H50.7268H50.733H50.7392H50.7453H50.7514H50.7574H50.7634H50.7694H50.7752H50.7811H50.7869H50.7927H50.7984H50.804H50.8096H50.8152H50.8207H50.8262H50.8316H50.837H50.8423H50.8476H50.8529H50.858H50.8632H50.8683H50.8733H50.8783H50.8832H50.8881H50.8929H50.8977H50.9024H50.9071H50.9117H50.9163H50.9208H50.9253H50.9297H50.934H50.9383H50.9426H50.9468H50.9509H50.955H50.959H50.963H50.9669H50.9708H50.9746H50.9783H50.982H50.9857H50.9892H50.9928H50.9962H50.9996H51.003H51.0063H51.0095H51.0127H51.0158H51.0189H51.0218H51.0248H51.0277H51.0305H51.0332H51.0359H51.0385H51.0411H51.0436H51.0461H51.0484H51.0508H51.053H51.0552H51.0573H51.0594H51.0614H51.0633H51.0652H51.067H51.0688H51.0705H51.0721H51.0736H51.0751H51.0765H51.0779H51.0791H51.0804H51.0815H51.0826H51.0836H51.0845H51.0854H51.0862H51.087H51.0876H51.0882H51.0888H51.0892H51.0896H51.0899H51.0902H51.0904H51.0905L51.0905 147.94V148.285H51.4356V147.94V143.536V143.191H51.0905H46.3788C44.1059 143.191 42.6665 144.052 41.8077 145.229C40.9623 146.388 40.7094 147.811 40.7094 148.906V151.85H37.324H36.9789V152.195V156.684V157.029H37.324H40.7094V157.059V157.093V157.127V157.161V157.196V157.23V157.264V157.298V157.332V157.367V157.401V157.435V157.469V157.504V157.538V157.572V157.607V157.641V157.675V157.71V157.744V157.779V157.813V157.847V157.882V157.916V157.951V157.985V158.019V158.054V158.088V158.123V158.157V158.192V158.226V158.261V158.295V158.33V158.364V158.398V158.433V158.467V158.502V158.536V158.571V158.605V158.64V158.674V158.709V158.743V158.778V158.812V158.847V158.881V158.916V158.95V158.985V159.019V159.054V159.088V159.123V159.157V159.191V159.226V159.26V159.295V159.329V159.364V159.398V159.432V159.467V159.501V159.536V159.57V159.604V159.639V159.673V159.707V159.742V159.776V159.81V159.845V159.879V159.913V159.947V159.982V160.016V160.05V160.084V160.118V160.153V160.187V160.221V160.255V160.289V160.323V160.357V160.391V160.425V160.459V160.493V160.527V160.561V160.595V160.629V160.663V160.697V160.731V160.765V160.799V160.833V160.866V160.9V160.934V160.968V161.001V161.035V161.069V161.102V161.136V161.17V161.203V161.237V161.27V161.304V161.337V161.371V161.404V161.437V161.471V161.504V161.537V161.571V161.604V161.637V161.67V161.703V161.736V161.77V161.803V161.836V161.869V161.902V161.935V161.968V162V162.033V162.066V162.099V162.132V162.164V162.197V162.23V162.262V162.295V162.327V162.36V162.392V162.425V162.457V162.489V162.522V162.554V162.586V162.618V162.651V162.683V162.715V162.747V162.779V162.811V162.843V162.874V162.906V162.938V162.97V163.002V163.033V163.065V163.096V163.128V163.159V163.191V163.222V163.254V163.285V163.316V163.347V163.378V163.41V163.441V163.472V163.503V163.534V163.564V163.595V163.626V163.657V163.687V163.718V163.749V163.779V163.81V163.84V163.87V163.901V163.931V163.961V163.991V164.021V164.051V164.081V164.111V164.141V164.171V164.201V164.231V164.26V164.29V164.319V164.349V164.378V164.408V164.437V164.466V164.495V164.524V164.554V164.583V164.611V164.64V164.669V164.698V164.727V164.755V164.784V164.812V164.841V164.869V164.898V164.926V164.954V164.982V165.01V165.038V165.066V165.094V165.122V165.15V165.177V165.205V165.232V165.26V165.287V165.315V165.342V165.369V165.396V165.423V165.45V165.477V165.504V165.531V165.557V165.584V165.611V165.637V165.663V165.69V165.716V165.742V165.768V165.794V165.82V165.846V165.872V165.898V165.923V165.949V165.974V166V166.025V166.05V166.076V166.101V166.126V166.151V166.176V166.2V166.225V166.25V166.274V166.299V166.323V166.347V166.372V166.396V166.42V166.444V166.468V166.491V166.515V166.539V166.562V166.586V166.609V166.632V166.656V166.679V166.702V166.725V166.748V166.77V166.793V166.816V166.838V166.86V166.883V166.905V166.927V166.949V166.971V166.993V167.015V167.036V167.058V167.08V167.101V167.122V167.143V167.165V167.186V167.207V167.227V167.248V167.269V167.289V167.31V167.33V167.35V167.371V167.391V167.411V167.43V167.45V167.47V167.489V167.509V167.528V167.548V167.567V167.586V167.605V167.624V167.642V167.661V167.68V167.698V167.716V167.735V167.753V167.771V167.789V167.807V167.824V167.842V167.859V167.877V167.894V167.911V167.928V167.945V167.962V167.979V167.996V168.012V168.029V168.045V168.061V168.077V168.093V168.109V168.125V168.14V168.156V168.171V168.187V168.202V168.217V168.232V168.247V168.262V168.276V168.291V168.305V168.319V168.334V168.348V168.362V168.375V168.389V168.403V168.416V168.43V168.443V168.456V168.469V168.482V168.494V168.507V168.52V168.532V168.544V168.556V168.568V168.58V168.592V168.604V168.615V168.627V168.638V168.649V168.66V168.671V168.682V168.692V168.703V168.713V168.724V168.734V168.744V168.754V168.764V168.764H31.0642C28.1818 168.764 25.8451 166.427 25.8451 163.545V143.564C25.8451 140.682 28.1818 138.345 31.0642 138.345H51.0448C53.9272 138.345 56.2639 140.682 56.2639 143.564V163.545C56.2639 166.427 53.9272 168.764 51.0448 168.764H46.7109V168.761V168.751V168.741V168.731V168.721V168.71V168.7V168.689V168.679V168.668V168.657V168.646V168.634V168.623V168.612V168.6V168.588V168.576V168.564V168.552V168.54V168.528V168.515V168.503V168.49V168.477V168.464V168.451V168.438V168.424V168.411V168.397V168.384V168.37V168.356V168.342V168.328V168.314V168.299V168.285V168.27V168.255V168.241V168.226V168.211V168.195V168.18V168.165V168.149V168.133V168.118V168.102V168.086V168.07V168.054V168.037V168.021V168.004V167.988V167.971V167.954V167.937V167.92V167.903V167.886V167.868V167.851V167.833V167.815V167.798V167.78V167.762V167.743V167.725V167.707V167.688V167.67V167.651V167.632V167.613V167.595V167.575V167.556V167.537V167.518V167.498V167.479V167.459V167.439V167.419V167.399V167.379V167.359V167.339V167.318V167.298V167.277V167.257V167.236V167.215V167.194V167.173V167.152V167.131V167.109V167.088V167.066V167.045V167.023V167.001V166.98V166.958V166.935V166.913V166.891V166.869V166.846V166.824V166.801V166.778V166.756V166.733V166.71V166.687V166.664V166.64V166.617V166.594V166.57V166.547V166.523V166.499V166.475V166.452V166.428V166.404V166.379V166.355V166.331V166.306V166.282V166.257V166.233V166.208V166.183V166.158V166.133V166.108V166.083V166.058V166.033V166.007V165.982V165.956V165.931V165.905V165.879V165.853V165.828V165.802V165.775V165.749V165.723V165.697V165.671V165.644V165.618V165.591V165.564V165.538V165.511V165.484V165.457V165.43V165.403V165.376V165.349V165.321V165.294V165.267V165.239V165.212V165.184V165.156V165.129V165.101V165.073V165.045V165.017V164.989V164.961V164.932V164.904V164.876V164.847V164.819V164.79V164.762V164.733V164.704V164.676V164.647V164.618V164.589V164.56V164.531V164.502V164.473V164.443V164.414V164.385V164.355V164.326V164.296V164.267V164.237V164.207V164.177V164.148V164.118V164.088V164.058V164.028V163.998V163.967V163.937V163.907V163.877V163.846V163.816V163.785V163.755V163.724V163.694V163.663V163.632V163.602V163.571V163.54V163.509V163.478V163.447V163.416V163.385V163.354V163.323V163.291V163.26V163.229V163.197V163.166V163.134V163.103V163.071V163.04V163.008V162.976V162.945V162.913V162.881V162.849V162.817V162.786V162.754V162.722V162.69V162.657V162.625V162.593V162.561V162.529V162.496V162.464V162.432V162.399V162.367V162.335V162.302V162.27V162.237V162.204V162.172V162.139V162.106V162.074V162.041V162.008V161.975V161.942V161.91V161.877V161.844V161.811V161.778V161.745V161.712V161.679V161.645V161.612V161.579V161.546V161.513V161.479V161.446V161.413V161.379V161.346V161.313V161.279V161.246V161.212V161.179V161.145V161.112V161.078V161.045V161.011V160.978V160.944V160.91V160.877V160.843V160.809V160.775V160.742V160.708V160.674V160.64V160.606V160.573V160.539V160.505V160.471V160.437V160.403V160.369V160.335V160.301V160.267V160.233V160.199V160.165V160.131V160.097V160.063V160.029V159.995V159.961V159.926V159.892V159.858V159.824V159.79V159.756V159.721V159.687V159.653V159.619V159.585V159.55V159.516V159.482V159.448V159.413V159.379V159.345V159.311V159.276V159.242V159.208V159.174V159.139V159.105V159.071V159.036V159.002V158.968V158.934V158.899V158.865V158.831V158.796V158.762V158.728V158.693V158.659V158.625V158.591V158.556V158.522V158.488V158.453V158.419V158.385V158.351V158.316V158.282V158.248V158.214V158.179V158.145V158.111V158.077V158.043V158.008V157.974V157.94V157.906V157.872V157.837V157.803V157.769V157.735V157.701V157.667V157.633V157.599V157.565V157.531V157.497V157.462V157.428V157.394V157.361V157.327V157.293V157.259V157.225V157.191V157.157V157.123V157.089V157.055V157.029H50.6642H50.9762L51.0075 156.719L51.4622 152.201L51.5004 151.821H51.1188Z" fill="#6E87F5" stroke="black" stroke-width="0.690121"/>
<path d="M27.9609 146.188V155.8" stroke="black" stroke-width="0.690121" stroke-linecap="round"/>
<g clip-path="url(#clip0_4464_167)">
<path d="M15.586 103.339H34.4141C37.3071 103.339 39.6613 105.693 39.6613 108.586V127.414C39.6613 130.307 37.3071 132.661 34.4141 132.661H15.586C12.6929 132.661 10.3387 130.307 10.3387 127.414V108.586C10.3387 105.693 12.6929 103.339 15.586 103.339Z" fill="url(#paint0_linear_4464_167)" stroke="black" stroke-width="0.677419"/>
<path d="M25.0039 124.527C21.4047 124.527 18.4766 121.599 18.4766 118C18.4766 114.401 21.4047 111.473 25.0039 111.473C28.6031 111.473 31.5312 114.401 31.5312 118C31.5312 121.599 28.6031 124.527 25.0039 124.527ZM25.0039 113.23C22.3739 113.23 20.2344 115.37 20.2344 118C20.2344 120.63 22.374 122.77 25.0039 122.77C27.6338 122.77 29.7734 120.63 29.7734 118C29.7734 115.37 27.6339 113.23 25.0039 113.23Z" fill="white"/>
<path d="M33.4727 110.406C33.2412 110.406 33.015 110.312 32.851 110.149C32.6875 109.986 32.5938 109.759 32.5938 109.527C32.5938 109.296 32.6875 109.069 32.851 108.906C33.015 108.742 33.2412 108.648 33.4727 108.648C33.704 108.648 33.9303 108.742 34.0937 108.906C34.2578 109.069 34.3516 109.296 34.3516 109.527C34.3516 109.759 34.2578 109.986 34.0937 110.149C33.9302 110.313 33.704 110.406 33.4727 110.406Z" fill="white"/>
<path fill-rule="evenodd" clip-rule="evenodd" d="M36.8582 127.291C36.6544 127.346 36.5335 127.555 36.5881 127.759C36.7519 128.371 36.3892 128.999 35.7779 129.163C35.5741 129.217 35.4532 129.427 35.5078 129.63C35.5624 129.834 35.7718 129.955 35.9756 129.901C36.9936 129.626 37.5977 128.58 37.326 127.562C37.2714 127.358 37.062 127.237 36.8582 127.291Z" fill="black"/>
</g>
<g clip-path="url(#clip1_4464_167)">
<path fill-rule="evenodd" clip-rule="evenodd" d="M175.869 28.1516L170.345 39.641C169.473 41.454 167.297 42.217 165.484 41.3453L159.739 38.5832L155.913 40.9618C155.648 41.1249 155.318 41.1419 155.038 41.007C154.757 40.8721 154.564 40.6039 154.526 40.295L153.995 35.821L148.25 33.0589C146.437 32.1872 145.674 30.0108 146.546 28.1978L152.07 16.7085C152.942 14.8955 155.118 14.1324 156.931 15.0041L174.165 23.2906C175.978 24.1623 176.741 26.3386 175.869 28.1516Z" fill="#EF314C"/>
<path fill-rule="evenodd" clip-rule="evenodd" d="M160.267 25.4085C160.267 25.4085 161.603 24.3234 163.096 25.041C164.371 25.6542 164.713 27.1941 164.076 28.5179C163.196 30.3488 160.859 30.7183 157.193 31.8016C155.749 28.2612 154.579 26.2056 155.459 24.3747C156.096 23.0509 157.512 22.3562 158.787 22.9694C160.279 23.687 160.267 25.4085 160.267 25.4085Z" fill="#F5F5F5"/>
<path d="M148.055 33.4714L153.574 36.1252L154.077 40.3532C154.134 40.8162 154.422 41.2183 154.843 41.4204C155.263 41.6225 155.758 41.597 156.155 41.3525L159.77 39.104L165.289 41.7578C167.329 42.7355 169.775 41.8778 170.758 39.8405L176.282 28.3511C177.26 26.3113 176.402 23.8651 174.365 22.8824L157.131 14.596C155.091 13.6183 152.644 14.476 151.662 16.5133L146.138 28.0027C145.16 30.0425 146.018 32.4887 148.055 33.4714ZM152.483 16.9079C153.247 15.3232 155.149 14.6561 156.736 15.4166L173.97 23.7031C175.555 24.4673 176.222 26.37 175.461 27.9565L169.937 39.4459C169.173 41.0306 167.27 41.6977 165.684 40.9371L159.939 38.175C159.799 38.1075 159.633 38.1163 159.501 38.1985L155.677 40.5765C155.542 40.6519 155.38 40.657 155.241 40.5902C155.102 40.5235 155.004 40.3931 154.979 40.2411L154.448 35.7671C154.429 35.6137 154.333 35.4802 154.194 35.4129L148.449 32.6507C146.865 31.8865 146.198 29.9838 146.958 28.3973L152.483 16.9079Z" fill="black"/>
<path d="M156.136 30.4488C156.337 30.9261 156.552 31.4331 156.773 31.9758C156.861 32.1924 157.099 32.3069 157.324 32.2406C157.886 32.0743 158.416 31.9256 158.914 31.7849C161.769 30.9824 163.654 30.4522 164.488 28.7178C165.27 27.092 164.757 25.3358 163.295 24.6328C162.447 24.2342 161.462 24.2476 160.625 24.6692C160.432 23.7521 159.828 22.9748 158.986 22.5612C157.524 21.8583 155.832 22.5542 155.051 24.18C154.217 25.9144 154.98 27.7183 156.136 30.4488ZM158.592 23.3819C159.336 23.7868 159.804 24.5622 159.815 25.4096C159.814 25.5845 159.914 25.7441 160.072 25.8202C160.229 25.8958 160.416 25.8743 160.553 25.7651C161.221 25.2441 162.119 25.1249 162.9 25.4535C163.895 25.9315 164.224 27.1652 163.668 28.3232C163.012 29.6867 161.376 30.1466 158.668 30.9085C158.284 31.0165 157.882 31.1296 157.46 31.2518C157.292 30.8463 157.129 30.4613 156.974 30.0941C155.878 27.5028 155.216 25.9381 155.871 24.5745C156.428 23.4166 157.598 22.9038 158.592 23.3819Z" fill="black"/>
<path fill-rule="evenodd" clip-rule="evenodd" d="M166.876 29.7462L167.662 29.4707L165.376 34.2249C165.267 34.4515 165.362 34.7235 165.589 34.8325C165.816 34.9415 166.088 34.8461 166.197 34.6195L168.959 28.8748C169.038 28.7088 169.01 28.5112 168.888 28.374C168.765 28.2368 168.572 28.187 168.398 28.2479L166.575 28.887C166.342 28.9732 166.221 29.2302 166.303 29.4646C166.386 29.699 166.64 29.8243 166.876 29.7462Z" fill="black"/>
</g>
<defs>
<linearGradient id="paint0_linear_4464_167" x1="25" y1="103" x2="25" y2="133" gradientUnits="userSpaceOnUse">
<stop stop-color="#FF4AB6"/>
<stop offset="1" stop-color="#FF8C38"/>
</linearGradient>
<clipPath id="clip0_4464_167">
<rect width="30" height="30" fill="white" transform="translate(10 103)"/>
</clipPath>
<clipPath id="clip1_4464_167">
<rect width="27.3181" height="27.3181" fill="white" transform="translate(153.836 12) rotate(25.679)"/>
</clipPath>
</defs>
</svg>
